<?xml version="1.0" encoding="UTF-8" standalone="no"?>
<!-- Created with Inkscape (http://www.inkscape.org/) -->

<svg
   width="32"
   height="32"
   viewBox="0 0 32 32"
   version="1.1"
   id="svg1"
   xmlns="http://www.w3.org/2000/svg"
   xmlns:svg="http://www.w3.org/2000/svg">
  <defs
     id="defs1">
    <clipPath
       clipPathUnits="userSpaceOnUse"
       id="clipPath99">
      <path
         d="M 0,0 H 612 V 792 H 0 Z"
         transform="matrix(1,0,0,-1,-520.24801,209.34001)"
         id="path99" />
    </clipPath>
  </defs>
  <g
     id="layer1">
    <path
       d="m 1.8281719,-1.4187891 c 0,0.00879 -0.00879,0.00879 -0.023437,0 h 0.023437 c 0.00586,0.00879 0.00293,0.017578 -0.011719,0.023437 -0.00879,0.00879 -0.00586,0.020508 0.011719,0.035156 0.00586,-0.029297 0.00293,-0.046875 -0.011719,-0.046875 -0.00879,0 -0.00586,-0.00293 0.011719,-0.011719 z m 0.421875,-6.5273437 c 0.00586,-0.2021484 -0.00879,-0.4335938 -0.046875,-0.6914063 -0.00879,-0.00586 -0.011719,-0.029297 -0.011719,-0.070312 0,-0.076172 0.00293,-0.1347656 0.011719,-0.1757812 0.014648,-0.023437 0.026367,-0.038086 0.035156,-0.046875 0.014649,-0.014648 0.023437,-0.038086 0.023437,-0.070312 0.023437,-0.046875 0.035156,-0.084961 0.035156,-0.1171875 0.014648,-0.046875 0.023437,-0.09375 0.023437,-0.140625 0,-0.052734 0.00586,-0.1083984 0.023437,-0.1640625 v -0.1640625 c 0,-0.029297 0.011719,-0.09668 0.035156,-0.1992188 0.023437,-0.061523 0.046875,-0.1289062 0.070312,-0.1992187 0.029297,-0.070313 0.058594,-0.1347657 0.082031,-0.1992187 0.023437,-0.09375 0.061523,-0.164063 0.1171875,-0.210938 0.046875,-0.06152 0.082031,-0.123046 0.1054687,-0.1875 0.029297,-0.07031 0.064453,-0.134765 0.1054688,-0.199218 0.014648,-0.01465 0.023437,-0.04102 0.023437,-0.08203 0.00586,-0.0293 0.011719,-0.06152 0.011719,-0.09375 0,-0.03808 0.00586,-0.07031 0.023437,-0.09375 0,-0.04687 0.017578,-0.08789 0.058594,-0.128906 0.00586,0 0.011719,-0.0059 0.011719,-0.02344 0.076172,-0.05274 0.1230469,-0.09668 0.140625,-0.128907 0.023437,-0.0293 0.061524,-0.08496 0.1171875,-0.164062 0.023437,-0.04687 0.046875,-0.09375 0.070312,-0.140625 0.023437,-0.04687 0.041016,-0.09961 0.058594,-0.164063 0.023437,-0.06152 0.061523,-0.111328 0.1171875,-0.152343 0.038086,-0.02344 0.073242,-0.03809 0.1054687,-0.04687 0.029297,-0.01465 0.058594,-0.03809 0.082031,-0.07031 0.029297,-0.02344 0.049805,-0.04687 0.058594,-0.07031 0.014649,-0.02344 0.035156,-0.04981 0.058594,-0.08203 0.038086,-0.04687 0.076172,-0.09375 0.1171875,-0.140625 0.038086,-0.04687 0.070312,-0.09961 0.09375,-0.164062 0.023437,-0.03809 0.052734,-0.07031 0.09375,-0.09375 0.070312,-0.02344 0.140625,-0.05273 0.2109375,-0.09375 0.070312,-0.03809 0.1347656,-0.07617 0.1992187,-0.117188 0.076172,-0.05273 0.1289063,-0.09961 0.1523438,-0.140625 0.00586,-0.0059 0.014648,-0.01758 0.023437,-0.03516 0.00586,-0.01465 0.017578,-0.02637 0.035156,-0.03516 0.023437,-0.02344 0.041016,-0.03809 0.058594,-0.04687 0.023437,-0.0059 0.046875,-0.02344 0.070312,-0.04687 0.099609,-0.05273 0.2226562,-0.09375 0.3632812,-0.117188 0.061523,-0.02344 0.1201172,-0.03808 0.1757813,-0.04687 0.052734,-0.0059 0.1113281,-0.01758 0.1757812,-0.03516 0.046875,-0.0059 0.09375,-0.01758 0.140625,-0.03516 0.052734,-0.01465 0.1083985,-0.03516 0.1640625,-0.05859 0.023437,-0.01465 0.052734,-0.02344 0.09375,-0.02344 0.038086,-0.0059 0.070312,-0.01758 0.09375,-0.03516 0.038086,-0.02344 0.09668,-0.04687 0.1757813,-0.07031 0.076172,-0.01465 0.1552734,-0.01465 0.234375,0 0.038086,0.0088 0.076172,0.01172 0.1171875,0.01172 0.046875,-0.0059 0.087891,-0.01172 0.1289062,-0.01172 0.061523,-0.0293 0.1201172,-0.04102 0.1757813,-0.03516 0.061523,0.0088 0.1230468,0.02051 0.1875,0.03516 0.076172,0 0.1582031,0.03223 0.2460937,0.09375 0.014648,0.0088 0.026367,0.01758 0.035156,0.02344 0.014648,0.0088 0.029297,0.02051 0.046875,0.03516 0.076172,0.02344 0.140625,0.03516 0.1875,0.03516 h 0.023437 c 0.1171875,-0.02344 0.2167968,0.0088 0.3046875,0.09375 0.052734,0.06445 0.1171875,0.114258 0.1875,0.152344 l 0.2929687,0.117187 c 0.099609,0.04102 0.1582031,0.06445 0.1757813,0.07031 0.023437,0.0088 0.076172,0.06445 0.1640625,0.164062 0.029297,0.04687 0.09668,0.09961 0.1992187,0.152344 0.023437,0 0.046875,0.01172 0.070312,0.03516 0.070312,0.02344 0.1171875,0.07031 0.140625,0.140625 0.023437,0.08789 0.058594,0.164063 0.1054688,0.234375 0.052734,0.07031 0.1113281,0.137696 0.1757812,0.199219 0.052734,0.05566 0.099609,0.09375 0.140625,0.117187 0.046875,0.05567 0.084961,0.10254 0.1171875,0.140625 0.023437,0.04687 0.046875,0.0791 0.070312,0.09375 0.052734,0.08789 0.084961,0.175782 0.09375,0.269532 0.014648,0.07031 0.049805,0.152343 0.1054688,0.246093 l 0.058594,0.117188 c 0.02344,0.04687 0.03516,0.09961 0.03516,0.152344 0,0.06445 0,0.125976 0,0.1875 0.0059,0.05566 0.01758,0.114258 0.03516,0.175781 0.03809,0.08789 0.03809,0.1875 0,0.304687 -0.02344,0.05567 -0.03516,0.146485 -0.03516,0.2695317 0.02344,0.1171875 0.01465,0.2080078 -0.02344,0.2695312 -0.02344,0.079102 -0.041016,0.1582032 -0.046875,0.234375 -0.00879,0.070312 -0.017578,0.140625 -0.023437,0.2109375 -0.017578,0.041016 -0.035156,0.082031 -0.058594,0.1289063 -0.017578,0.023437 -0.032227,0.043945 -0.046875,0.058594 -0.00879,0.017578 -0.020508,0.035156 -0.035156,0.058594 -0.041016,0.1025391 -0.099609,0.1816406 -0.1757813,0.234375 0,0 -0.011719,0.011719 -0.035156,0.035156 -0.023437,0.00879 -0.046875,0.041016 -0.070312,0.09375 -0.032227,0.023437 -0.052734,0.055664 -0.058594,0.09375 0,0.041016 -0.017578,0.070312 -0.046875,0.09375 -0.023437,0.055664 -0.055664,0.09082 -0.09375,0.1054688 l -0.011719,0.011719 c -0.070312,0.023437 -0.1347657,0.055664 -0.1875,0.09375 -0.055664,0.041016 -0.1113282,0.087891 -0.1640625,0.140625 -0.017578,0.041016 -0.055664,0.070312 -0.1171875,0.09375 -0.1259766,0.064453 -0.2431641,0.1259766 -0.3515625,0.1875 -0.1113282,0.055664 -0.2285157,0.1054688 -0.3515625,0.1523438 -0.032227,0 -0.058594,-0.011719 -0.082031,-0.035156 v -0.011719 c 0.023437,-0.052734 0.035156,-0.082031 0.035156,-0.082031 0.038086,-0.061523 0.076172,-0.1171875 0.1171875,-0.1640625 0.038086,-0.046875 0.070312,-0.099609 0.09375,-0.1640625 0.038086,-0.061523 0.064453,-0.1201171 0.082031,-0.1757812 0.023437,-0.061523 0.049805,-0.1230469 0.082031,-0.1875 v -0.3046875 c 0,-0.09375 0.00293,-0.1640625 0.011719,-0.2109375 0.052734,-0.1230469 0.052734,-0.2929688 0,-0.5039063 -0.00879,-0.061523 -0.041016,-0.1552734 -0.09375,-0.28125 -0.023437,-0.09375 -0.067383,-0.1523437 -0.1289062,-0.1757812 -0.079102,-0.052734 -0.1376953,-0.1230466 -0.1757813,-0.2109376 -0.064453,-0.09961 -0.1464844,-0.169922 -0.2460937,-0.210937 -0.070312,-0.02344 -0.1347657,-0.04687 -0.1875,-0.07031 -0.046875,-0.0293 -0.1025391,-0.05859 -0.1640625,-0.08203 -0.046875,-0.02344 -0.099609,-0.04102 -0.1523438,-0.05859 -0.055664,-0.01465 -0.1142578,-0.03516 -0.1757812,-0.05859 -0.041016,-0.01465 -0.079102,-0.01465 -0.1171875,0 -0.064453,0.01758 -0.1230469,0.03223 -0.1757813,0.04687 -0.046875,0.0088 -0.102539,0.02344 -0.1640625,0.04687 -0.064453,0.03223 -0.1230469,0.06445 -0.1757812,0.09375 -0.046875,0.03223 -0.099609,0.06738 -0.1523438,0.105469 -0.046875,0.04687 -0.099609,0.09375 -0.1523437,0.140625 -0.055664,0.04687 -0.1054688,0.09082 -0.1523438,0.128906 -0.079102,0.06445 -0.1171875,0.1259769 -0.1171875,0.1875003 v 0.070312 l -0.058594,0.1757813 -0.058594,0.058594 c -0.046875,0.1171875 -0.087891,0.2402344 -0.1171875,0.3632813 -0.023437,0.1962891 -0.023437,0.3867187 0,0.5742187 0.029297,0.1025391 0.058594,0.1816407 0.082031,0.234375 0.014648,0.023437 0.023437,0.041016 0.023437,0.046875 0.00586,0.00879 0.017578,0.023437 0.035156,0.046875 0.046875,0.079102 0.070312,0.1494141 0.070312,0.2109375 0.014648,0.079102 0.041016,0.1494141 0.082031,0.2109375 0.023437,0.023437 0.038086,0.055664 0.046875,0.09375 0.00586,0.032227 0.023437,0.058594 0.046875,0.082031 0.038086,0.046875 0.084961,0.09082 0.140625,0.1289062 0.023437,0.017578 0.038086,0.029297 0.046875,0.035156 0.00586,0.00879 0.023437,0.017578 0.046875,0.023437 0.023437,0.017578 0.038086,0.032227 0.046875,0.046875 0.00586,0.00879 0.014648,0.020508 0.023437,0.035156 0.029297,0.023437 0.058594,0.052734 0.082031,0.082031 0.023437,0.032227 0.046875,0.064453 0.070312,0.09375 0.052734,0.070312 0.087891,0.1347656 0.1054688,0.1875 0.00586,0.017578 0.011719,0.035156 0.011719,0.058594 0.014648,0.046875 0.052734,0.09082 0.1171875,0.1289063 0,0 0.011719,0.00879 0.035156,0.023437 0.070312,0.023437 0.1230468,0.055664 0.1640625,0.09375 0.046875,0.041016 0.09668,0.079102 0.1523437,0.1171875 l 0.058594,0.058594 c 0.046875,0.023437 0.087891,0.035156 0.1289062,0.035156 h 0.082031 c 0.029297,0 0.073242,0.011719 0.1289062,0.035156 0.038086,0.032227 0.073242,0.055664 0.1054688,0.070312 0.029297,0.00879 0.064453,0.020508 0.1054687,0.035156 0.076172,0.046875 0.1289063,0.09082 0.1523438,0.1289062 0.038086,0.041016 0.076172,0.076172 0.1171875,0.1054688 0.038086,0.032227 0.082031,0.067383 0.1289062,0.1054687 0.038086,0.023437 0.076172,0.055664 0.1171875,0.09375 0.038086,0.041016 0.076172,0.079102 0.1171875,0.1171875 0.052734,0.079102 0.1171875,0.140625 0.1875,0.1875 0.070312,0.041016 0.1289063,0.087891 0.1757813,0.140625 0.052734,0.046875 0.1054687,0.1054688 0.1523437,0.1757813 0.023437,0.00879 0.049805,0.041016 0.082031,0.09375 l 0.058594,0.1171875 c 0.046875,0.1025391 0.087891,0.1728516 0.1289063,0.2109375 0.014648,0.023437 0.023437,0.041016 0.023437,0.046875 0.00586,0.00879 0.017578,0.023437 0.035156,0.046875 0.052734,0.079102 0.082031,0.1376953 0.082031,0.1757812 0,0.064453 0.00293,0.1142579 0.011719,0.1523438 0.023437,0.1259766 0.035156,0.2197266 0.035156,0.28125 0,0.079102 0.017578,0.1464844 0.058594,0.1992187 v 0.011719 c 0.076172,0.09375 0.1171875,0.2109375 0.1171875,0.3515625 v 0.3046875 c 0,0.1171875 -0.023437,0.1962891 -0.070312,0.234375 -0.055664,0.032227 -0.1230469,0.087891 -0.1992187,0.1640625 -0.041016,0.032227 -0.070312,0.064453 -0.09375,0.09375 -0.023437,0.032227 -0.046875,0.058594 -0.070312,0.082031 -0.1171875,0.140625 -0.2050782,0.2636719 -0.2578125,0.3632813 -0.041016,0.064453 -0.082031,0.1142578 -0.1289063,0.1523437 -0.102539,0.1025391 -0.1816406,0.2197266 -0.234375,0.3515625 -0.023437,0.046875 -0.046875,0.09375 -0.070312,0.140625 -0.017578,0.046875 -0.035156,0.09375 -0.058594,0.140625 -0.041016,0.079102 -0.076172,0.1611329 -0.1054688,0.2460938 -0.023437,0.079102 -0.046875,0.1640625 -0.070312,0.2578125 -0.017578,0.00879 -0.035156,0.011719 -0.058594,0.011719 0,-0.00586 -0.00879,-0.011719 -0.023437,-0.011719 l -0.011719,-0.023437 c -0.023437,-0.061523 -0.052734,-0.1201172 -0.082031,-0.1757813 -0.023437,-0.061523 -0.046875,-0.1230468 -0.070312,-0.1875 -0.032227,-0.084961 -0.058594,-0.1669921 -0.082031,-0.2460937 -0.023437,-0.076172 -0.046875,-0.1640625 -0.070312,-0.2578125 0,-0.029297 -0.00879,-0.061523 -0.023437,-0.09375 -0.017578,-0.023437 -0.029297,-0.041016 -0.035156,-0.058594 0,-0.023437 -0.017578,-0.046875 -0.046875,-0.070312 -0.00879,-0.023437 -0.020508,-0.041016 -0.035156,-0.058594 -0.00879,-0.014648 -0.020508,-0.035156 -0.035156,-0.058594 -0.055664,-0.076172 -0.087891,-0.1347656 -0.09375,-0.1757812 0,-0.023437 -0.017578,-0.061523 -0.046875,-0.1171875 -0.023437,-0.070312 -0.055664,-0.1230469 -0.09375,-0.1640625 -0.046875,-0.038086 -0.09082,-0.082031 -0.1289063,-0.1289063 -0.041016,-0.052734 -0.079102,-0.1083984 -0.1171875,-0.1640625 -0.023437,-0.023437 -0.043945,-0.046875 -0.058594,-0.070312 -0.017578,-0.029297 -0.035156,-0.058594 -0.058594,-0.082031 -0.102539,-0.099609 -0.1699219,-0.1640625 -0.1992187,-0.1875 -0.023437,-0.029297 -0.087891,-0.076172 -0.1875,-0.140625 -0.046875,-0.046875 -0.082031,-0.087891 -0.1054688,-0.1289063 0,0 -0.00879,-0.011719 -0.023437,-0.035156 -0.023437,-0.070312 -0.058594,-0.1113281 -0.1054687,-0.1289063 -0.046875,-0.023437 -0.1025391,-0.046875 -0.1640625,-0.070312 -0.041016,0 -0.070312,-0.00293 -0.09375,-0.011719 -0.041016,0 -0.067383,-0.017578 -0.082031,-0.058594 -0.023437,-0.014648 -0.041016,-0.026367 -0.046875,-0.035156 -0.00879,-0.014648 -0.023437,-0.038086 -0.046875,-0.070312 -0.023437,-0.061523 -0.082031,-0.1113281 -0.1757812,-0.1523438 -0.041016,-0.023437 -0.079102,-0.038086 -0.1171875,-0.046875 -0.032227,-0.00586 -0.067383,-0.023437 -0.1054688,-0.046875 -0.032227,-0.014648 -0.055664,-0.023437 -0.070312,-0.023437 -0.017578,0 -0.041016,-0.00293 -0.070312,-0.011719 -0.023437,0 -0.087891,-0.011719 -0.1875,-0.035156 -0.064453,-0.029297 -0.1289062,-0.058594 -0.1992187,-0.082031 -0.064453,-0.023437 -0.1259766,-0.049805 -0.1875,-0.082031 -0.023437,-0.00586 -0.055664,-0.014648 -0.09375,-0.023437 -0.041016,-0.00586 -0.070312,-0.014648 -0.09375,-0.023437 H 4.5234844 C 4.4531719,-4.644375 4.377,-4.6648828 4.3008281,-4.7351953 l -0.2929687,-0.234375 c -0.064453,-0.061523 -0.1289063,-0.1171875 -0.1992188,-0.1640625 -0.070312,-0.046875 -0.1376953,-0.09375 -0.1992187,-0.140625 -0.032227,-0.023437 -0.055664,-0.038086 -0.070312,-0.046875 -0.017578,-0.00586 -0.041016,-0.023437 -0.070312,-0.046875 -0.046875,-0.014648 -0.09082,-0.052734 -0.1289063,-0.1171875 v -0.023437 c -0.064453,-0.099609 -0.1523437,-0.1933594 -0.2695312,-0.28125 -0.079102,-0.099609 -0.1289063,-0.1787109 -0.1523438,-0.234375 0,-0.023437 -0.00586,-0.038086 -0.011719,-0.046875 -0.00879,-0.00586 -0.011719,-0.017578 -0.011719,-0.035156 -0.00879,-0.046875 -0.041016,-0.082031 -0.09375,-0.1054687 l -0.082031,-0.082031 c -0.023437,-0.023437 -0.046875,-0.049805 -0.070312,-0.082031 -0.017578,-0.029297 -0.035156,-0.061523 -0.058594,-0.09375 -0.017578,-0.038086 -0.032226,-0.073242 -0.046875,-0.1054688 -0.00879,-0.029297 -0.020508,-0.064453 -0.035156,-0.1054687 -0.00879,-0.00586 -0.011719,-0.017578 -0.011719,-0.035156 0,-0.014648 -0.00879,-0.026367 -0.023437,-0.035156 -0.023437,-0.140625 -0.052734,-0.2636719 -0.082031,-0.375 -0.032227,-0.1083984 -0.067383,-0.2226563 -0.1054688,-0.3398438 -0.023437,-0.046875 -0.035156,-0.09668 -0.035156,-0.1523437 z m 9.5507811,6.1992187 c -0.172851,0 -0.333984,0.020508 -0.480469,0.058594 -0.09375,0.017578 -0.175781,0.055664 -0.246093,0.1171875 -0.03223,0.00879 -0.06445,0.023437 -0.09375,0.046875 -0.03223,0.017578 -0.05859,0.032227 -0.08203,0.046875 -0.0791,0.041016 -0.152343,0.079102 -0.222656,0.1171875 -0.07031,0.041016 -0.149414,0.064453 -0.234375,0.070312 -0.0791,0.032227 -0.134766,0.052734 -0.164062,0.058594 -0.172852,0.1025391 -0.3457035,0.2080079 -0.5156254,0.31640629 -0.1640625,0.11132812 -0.3251953,0.23144531 -0.4804687,0.36328125 -0.041016,0.0322266 -0.070312,0.046875 -0.09375,0.046875 -0.140625,0.0322266 -0.2900391,0.1171875 -0.4453125,0.2578125 -0.046875,0.0410156 -0.09082,0.0791016 -0.1289063,0.1171875 -0.041016,0.03222656 -0.09082,0.06738281 -0.1523437,0.10546875 0,-0.0058594 -0.00879,-0.01171875 -0.023437,-0.01171875 -0.00879,0 -0.011719,-0.0058594 -0.011719,-0.0234375 0,-0.01464844 -0.00586,-0.02636719 -0.011719,-0.03515625 -0.00879,-0.01464844 -0.011719,-0.02636719 -0.011719,-0.03515625 0,-0.09375 0.00293,-0.18164063 0.011719,-0.26953125 0.00586,-0.09375 0.011719,-0.18164063 0.011719,-0.26953125 0,-0.0615234 0.00293,-0.10839844 0.011719,-0.140625 0.038086,-0.0615234 0.064453,-0.12304688 0.082031,-0.1875 0.023437,-0.0615234 0.046875,-0.12304684 0.070312,-0.18750004 0.029297,-0.070312 0.052734,-0.1289062 0.070312,-0.1757812 0.023437,-0.052734 0.046875,-0.1113281 0.070312,-0.1757813 0.023437,-0.038086 0.046875,-0.09668 0.070312,-0.1757812 0.038086,-0.084961 0.064453,-0.1435547 0.082031,-0.1757813 0.023437,-0.029297 0.082031,-0.084961 0.1757812,-0.1640625 0.023437,-0.023437 0.058594,-0.073242 0.1054688,-0.1523437 0.029297,-0.052734 0.061523,-0.099609 0.09375,-0.140625 0.029297,-0.038086 0.058594,-0.076172 0.082031,-0.1171875 0.09375,-0.1464844 0.1933594,-0.2519531 0.3046875,-0.3164063 0.052734,-0.014648 0.099609,-0.052734 0.140625,-0.1171875 0.038086,-0.052734 0.076172,-0.099609 0.1171875,-0.140625 0.046875,-0.046875 0.09668,-0.099609 0.1523436,-0.1640625 0.03809,-0.052734 0.108399,-0.1201171 0.210938,-0.1992187 0.04687,-0.038086 0.09375,-0.073242 0.140625,-0.1054688 0.05273,-0.038086 0.108398,-0.076172 0.164062,-0.1171875 0.240235,-0.1787109 0.495118,-0.3398437 0.761719,-0.4804687 0.01465,0 0.02637,-0.00293 0.03516,-0.011719 0.01465,-0.00586 0.0293,-0.011719 0.04687,-0.011719 0.07617,-0.052734 0.128907,-0.09375 0.152344,-0.1171875 0.02344,-0.00586 0.05273,-0.029297 0.09375,-0.070312 0.0293,-0.014648 0.04981,-0.026367 0.05859,-0.035156 0.01465,-0.014648 0.03516,-0.023437 0.05859,-0.023437 0.01465,-0.014648 0.03516,-0.023437 0.05859,-0.023437 0.07617,-0.023437 0.152344,-0.049805 0.222657,-0.082031 0.07617,-0.029297 0.155273,-0.064453 0.234375,-0.1054688 0.03809,-0.029297 0.08203,-0.046875 0.128906,-0.046875 0.04687,-0.00586 0.08789,-0.017578 0.128906,-0.035156 0.07031,-0.046875 0.120117,-0.087891 0.152344,-0.1289063 0,-0.014648 0.01172,-0.035156 0.03516,-0.058594 0.03809,-0.076172 0.08203,-0.1347656 0.128906,-0.1757813 0.108399,-0.084961 0.19336,-0.1992187 0.257813,-0.3398437 0.04687,-0.09375 0.09375,-0.1787109 0.140625,-0.2578125 0.04687,-0.084961 0.08203,-0.1757813 0.105469,-0.2695313 0.03809,-0.084961 0.05859,-0.1787109 0.05859,-0.28125 v -0.2109375 c 0,-0.140625 -0.0088,-0.2402343 -0.02344,-0.3046875 -0.0088,-0.09375 -0.05859,-0.1816406 -0.152344,-0.2695312 -0.125976,-0.09375 -0.246094,-0.1435547 -0.363281,-0.1523438 -0.0791,0 -0.161133,0 -0.246094,0 -0.0791,0 -0.164062,0.00586 -0.257812,0.011719 -0.08789,0.017578 -0.169922,0.032227 -0.246094,0.046875 -0.0791,0.00879 -0.161133,0.023437 -0.246094,0.046875 l -0.117187,0.058594 c -0.06445,0.041016 -0.123047,0.079102 -0.175782,0.1171875 -0.04687,0.041016 -0.102539,0.070312 -0.164062,0.09375 -0.01758,0 -0.02344,0.00586 -0.02344,0.011719 0,0.00879 -0.0088,0.011719 -0.02344,0.011719 -0.02344,0.023437 -0.04395,0.041016 -0.05859,0.046875 -0.0088,0.00879 -0.02051,0.023437 -0.03516,0.046875 -0.02344,0.055664 -0.03516,0.082031 -0.03516,0.082031 -0.02344,0.064453 -0.05566,0.1171875 -0.09375,0.1640625 -0.04102,0.041016 -0.0791,0.087891 -0.117188,0.140625 -0.02344,0.023437 -0.04394,0.023437 -0.05859,0 -0.01758,0 -0.02344,-0.011719 -0.02344,-0.035156 0,-0.09375 0.01465,-0.2021484 0.04687,-0.328125 0.0059,-0.1171875 0.0059,-0.234375 0,-0.3515625 0,-0.023437 0.01172,-0.084961 0.03516,-0.1875 0.01465,-0.014648 0.02344,-0.026367 0.02344,-0.035156 0,-0.014648 0.0029,-0.035156 0.01172,-0.058594 0.05274,-0.09375 0.08496,-0.1816406 0.09375,-0.2695312 0,-0.038086 0.01465,-0.084961 0.04687,-0.140625 0.02344,-0.061523 0.05274,-0.1230469 0.09375,-0.1875 0.0059,-0.023437 0.01758,-0.046875 0.03516,-0.070312 0.02344,-0.029297 0.0498,-0.058594 0.08203,-0.082031 0.06152,-0.052734 0.111328,-0.099609 0.152344,-0.140625 0.04687,-0.046875 0.09668,-0.09668 0.152343,-0.1523437 0.04687,-0.046875 0.08496,-0.076172 0.117188,-0.09375 0.02344,-0.023437 0.05273,-0.041016 0.09375,-0.058594 0.03809,-0.023437 0.07617,-0.046875 0.117187,-0.070312 0.02344,-0.014648 0.05859,-0.023437 0.105469,-0.023437 0.01465,-0.00586 0.04102,-0.011719 0.08203,-0.011719 0.08496,-0.014648 0.166993,-0.052734 0.246094,-0.1171875 0.0293,-0.014648 0.04687,-0.026367 0.04687,-0.035156 0.0059,-0.00586 0.02637,-0.014648 0.05859,-0.023437 0.0059,-0.014648 0.02344,-0.023437 0.04687,-0.023437 0.07031,-0.023437 0.134765,-0.038086 0.199219,-0.046875 0.06152,-0.014648 0.123046,-0.023437 0.1875,-0.023437 0.06152,0 0.117187,-0.00293 0.164062,-0.011719 0.05273,-0.00586 0.117188,-0.00293 0.1875,0.011719 0.108399,0.041016 0.240234,0.032227 0.398438,-0.023437 0.02344,-0.014648 0.04101,-0.017578 0.05859,-0.011719 0.02344,0.00879 0.04687,0.011719 0.07031,0.011719 0.108398,0.023437 0.237305,0.082031 0.386719,0.1757813 0.02344,0.00879 0.05273,0.023437 0.09375,0.046875 0.03809,0.017578 0.07324,0.032227 0.105468,0.046875 0.108399,0.064453 0.210938,0.1259766 0.304688,0.1875 0.09961,0.064453 0.175781,0.1347656 0.222656,0.2109375 0.03809,0.055664 0.07617,0.1113281 0.117188,0.1640625 0.03809,0.046875 0.07617,0.1025391 0.117187,0.1640625 0.02344,0.023437 0.04102,0.052734 0.05859,0.082031 0.01465,0.023437 0.03516,0.046875 0.05859,0.070312 0.06152,0.09375 0.105468,0.2050782 0.128906,0.328125 0.01465,0.087891 0.05273,0.1699219 0.117187,0.2460938 0.02344,0.055664 0.04102,0.087891 0.05859,0.09375 0.01465,0.032227 0.02344,0.070312 0.02344,0.1171875 v 0.082031 c 0,0.1171875 0.01758,0.2314454 0.05859,0.3398438 0.03809,0.1171875 0.04981,0.2285156 0.03516,0.328125 -0.01758,0.079102 -0.0293,0.1523437 -0.03516,0.2226562 0,0.070312 -0.01758,0.1464844 -0.04687,0.2226563 -0.0088,0.064453 -0.01758,0.1289062 -0.02344,0.1992187 -0.0088,0.070312 -0.02344,0.1376954 -0.04687,0.1992188 -0.01758,0.064453 -0.03223,0.1230469 -0.04687,0.1757812 -0.0088,0.046875 -0.02051,0.099609 -0.03516,0.1523438 -0.02344,0.064453 -0.05274,0.1259766 -0.08203,0.1875 -0.02344,0.055664 -0.05273,0.1142578 -0.08203,0.1757812 -0.05566,0.079102 -0.09082,0.1582032 -0.105469,0.234375 0,0.041016 -0.01172,0.070312 -0.03516,0.09375 0,0.023437 -0.0088,0.046875 -0.02344,0.070312 -0.0088,0.017578 -0.02051,0.035156 -0.03516,0.058594 l -0.05859,0.058594 c -0.04687,0.041016 -0.111329,0.1113282 -0.1875,0.2109375 -0.06445,0.1025391 -0.117188,0.1845704 -0.164063,0.2460938 -0.04687,0.055664 -0.09082,0.1054687 -0.128906,0.1523437 -0.04102,0.046875 -0.08789,0.099609 -0.140625,0.1523438 -0.05566,0.046875 -0.128906,0.1142578 -0.222656,0.1992187 -0.102539,0.079102 -0.175782,0.1611329 -0.222657,0.2460938 -0.03223,0.032227 -0.04687,0.046875 -0.04687,0.046875 -0.04687,0.046875 -0.09082,0.079102 -0.128906,0.09375 -0.01758,0 -0.02344,0.00586 -0.02344,0.011719 0,0.00879 -0.0059,0.011719 -0.01172,0.011719 -0.111328,0.032227 -0.175781,0.058594 -0.199219,0.082031 -0.02344,0.017578 -0.06738,0.064453 -0.128906,0.140625 -0.03223,0.041016 -0.08203,0.087891 -0.152344,0.140625 -0.102539,0.041016 -0.196289,0.09082 -0.28125,0.1523438 -0.08789,0.064453 -0.172851,0.1259766 -0.257812,0.1875 -0.0791,0.079102 -0.146485,0.1289062 -0.199219,0.1523437 -0.102539,0.064453 -0.164063,0.099609 -0.1875,0.1054688 -0.01758,0.00879 -0.07617,0.011719 -0.175781,0.011719 z M 7.6523906,0.39761719 c 0.014648,0.0703125 0.017578,0.13183594 0.011719,0.1875 -0.00879,0.0527344 -0.017578,0.11132812 -0.023437,0.17578125 0,0.0380859 -0.020508,0.0761719 -0.058594,0.1171875 -0.070312,0.09375 -0.140625,0.17871096 -0.2109375,0.25781246 -0.070312,0.084961 -0.1376953,0.178711 -0.1992187,0.28125 -0.046875,0.061523 -0.09082,0.131836 -0.1289063,0.2109375 -0.041016,0.076172 -0.087891,0.1464844 -0.140625,0.2109375 0,0.014648 -0.00586,0.023437 -0.011719,0.023437 0,0.00586 0,0.017578 0,0.035156 -0.041016,0 -0.058594,0 -0.058594,0 -0.017578,0 -0.032227,-0.00879 -0.046875,-0.023437 -0.023437,-0.023437 -0.046875,-0.043945 -0.070312,-0.058594 -0.017578,-0.00879 -0.035156,-0.023437 -0.058594,-0.046875 L 5.3906719,0.50308594 c -0.023437,-0.0410156 -0.067383,-0.09375 -0.1289063,-0.1640625 -0.017578,-0.008789 -0.023437,-0.0322266 -0.023437,-0.0703125 0,-0.0644531 0.00586,-0.11132813 0.023437,-0.140625 0,-0.03222656 0.00293,-0.0703125 0.011719,-0.1171875 0.014648,-0.046875 0.026367,-0.08789063 0.035156,-0.12890625 0.014648,-0.0380859 0.023437,-0.0996094 0.023437,-0.1875 0,-0.09375 -0.00879,-0.15820313 -0.023437,-0.19921875 0,-0.0703125 -0.011719,-0.16992188 -0.035156,-0.3046875 -0.00879,-0.0996094 -0.023437,-0.19921874 -0.046875,-0.29296874 -0.017578,-0.09375 -0.041016,-0.1933594 -0.070312,-0.3046875 -0.023437,-0.046875 -0.035156,-0.070312 -0.035156,-0.070312 -0.064453,-0.1787109 -0.1347656,-0.3105469 -0.2109375,-0.3984375 -0.023437,-0.052734 -0.055664,-0.1054688 -0.09375,-0.1523438 -0.041016,-0.052734 -0.070312,-0.1083984 -0.09375,-0.1640625 -0.032227,-0.023437 -0.046875,-0.046875 -0.046875,-0.070312 -0.046875,-0.052734 -0.09082,-0.084961 -0.1289062,-0.09375 -0.023437,-0.029297 -0.052734,-0.046875 -0.082031,-0.046875 -0.064453,-0.023437 -0.1142578,-0.058594 -0.1523437,-0.1054687 -0.070312,-0.1318359 -0.1962891,-0.2402344 -0.375,-0.328125 -0.032227,-0.014648 -0.055664,-0.026367 -0.070312,-0.035156 -0.00879,-0.014648 -0.023437,-0.029297 -0.046875,-0.046875 -0.079102,-0.023437 -0.1523438,-0.052734 -0.2226563,-0.09375 -0.070312,-0.038086 -0.1376953,-0.076172 -0.1992187,-0.1171875 -0.064453,-0.023437 -0.1494141,-0.046875 -0.2578125,-0.070312 -0.032227,0 -0.067383,-0.00586 -0.1054688,-0.023437 -0.041016,-0.014648 -0.079101,-0.026367 -0.1171875,-0.035156 -0.055664,-0.014648 -0.1230469,-0.035156 -0.1992187,-0.058594 -0.032227,0 -0.067383,-0.00293 -0.1054688,-0.011719 -0.032226,-0.00586 -0.067383,-0.00293 -0.1054687,0.011719 -0.032227,0 -0.070312,0.00586 -0.1171875,0.011719 -0.046875,0 -0.09375,0 -0.140625,0 -0.09375,0 -0.1933594,0.035156 -0.2929688,0.1054687 -0.102539,0.064453 -0.1933594,0.1347657 -0.2695312,0.2109375 l -0.2460938,0.2460938 c -0.055664,0.041016 -0.09375,0.09082 -0.1171875,0.1523437 -0.023437,0.064453 -0.052734,0.1347657 -0.082031,0.2109375 -0.023437,0.079102 -0.035156,0.1582032 -0.035156,0.234375 -0.017578,0.041016 -0.023437,0.1113282 -0.023437,0.2109375 -0.023437,0.1025391 -0.032226,0.2109375 -0.023437,0.328125 0.00586,0.1113282 0.023437,0.2167969 0.046875,0.3164063 0.014649,0.1171875 0.052734,0.234375 0.1171875,0.35156249 0.023437,0.046875 0.049805,0.09375 0.082031,0.140625 0.029297,0.046875 0.061523,0.0908203 0.09375,0.12890625 0.00586,0.0234375 0.00586,0.0439453 0,0.0585938 h -0.046875 c 0,0 -0.00586,-0.005859 -0.011719,-0.0234375 C 1.3389141,-0.68636719 1.2422344,-0.76839844 1.1484844,-0.87972656 1.0693828,-0.97933594 1.0078594,-1.0496484 0.96098437,-1.0906641 0.89653125,-1.1521875 0.85844531,-1.2195703 0.84379687,-1.2898828 0.80278125,-1.3514062 0.767625,-1.4187891 0.73832812,-1.4891016 c -0.0322266,-0.070312 -0.0585938,-0.1347656 -0.0820313,-0.1992187 -0.0322266,-0.076172 -0.0585938,-0.1787109 -0.0820313,-0.3046875 -0.0175781,-0.052734 -0.0175781,-0.1201172 0,-0.1992188 0.0234375,-0.061523 0.0351563,-0.1201171 0.0351563,-0.1757812 0,-0.061523 0,-0.1230469 0,-0.1875 0.0146484,-0.084961 0.0292969,-0.1699219 0.046875,-0.2578125 0.0234375,-0.09375 0.0585938,-0.1875 0.10546875,-0.28125 0.0292969,-0.046875 0.0703125,-0.1318359 0.1171875,-0.2578125 0.0292969,-0.052734 0.0703125,-0.1201172 0.1171875,-0.1992188 0.038086,-0.061523 0.0761719,-0.1113281 0.11718743,-0.1523437 0.046875,-0.038086 0.09668,-0.082031 0.1523438,-0.1289063 0.076172,-0.076172 0.1582031,-0.1347656 0.2460937,-0.1757812 0.052734,-0.023437 0.099609,-0.049805 0.140625,-0.082031 0.038086,-0.038086 0.082031,-0.070312 0.1289063,-0.09375 0.09375,-0.084961 0.1904297,-0.1289062 0.2929687,-0.1289062 0.099609,-0.038086 0.1992189,-0.073242 0.2929689,-0.1054688 0.09375,-0.029297 0.1933593,-0.061523 0.3046875,-0.09375 0.070312,-0.023437 0.1201172,-0.035156 0.1523437,-0.035156 0.061524,-0.014648 0.1171875,-0.023437 0.1640625,-0.023437 0.052734,-0.00586 0.1113281,-0.011719 0.1757813,-0.011719 0.023437,-0.014648 0.052734,-0.023437 0.09375,-0.023437 0.038086,0 0.070312,-0.00586 0.09375,-0.023437 0.038086,-0.00586 0.1054686,-0.011719 0.1992186,-0.011719 0.023437,0.00879 0.049805,0.011719 0.082031,0.011719 0.029297,0 0.061523,0.00879 0.09375,0.023437 0.084961,-0.014648 0.1787109,0.032227 0.28125,0.140625 l 0.058594,0.046875 c 0.099609,0.055664 0.178711,0.09082 0.234375,0.1054688 0.099609,0.023437 0.1816406,0.029297 0.2460938,0.011719 0.052734,0 0.09375,0.00879 0.1171875,0.023437 0.061523,0.023437 0.1230468,0.046875 0.1875,0.070312 0.061523,0.017578 0.1289062,0.035156 0.1992187,0.058594 0.1230469,0.070312 0.2460938,0.1054687 0.3632813,0.1054687 l 0.1054687,0.058594 c 0.1083985,0.064453 0.1875,0.1259766 0.234375,0.1875 0.061523,0.064453 0.1113281,0.1054687 0.1523438,0.1289062 0.061523,0.032227 0.1171875,0.070312 0.1640625,0.1171875 0.046875,0.041016 0.09375,0.079102 0.140625,0.1171875 0.052734,0.055664 0.087891,0.09375 0.1054687,0.1171875 0.023437,0.046875 0.046875,0.087891 0.070312,0.1171875 0.014648,0.023437 0.029297,0.046875 0.046875,0.070312 0.023437,0.023437 0.046875,0.052734 0.070312,0.082031 0.023437,0.023437 0.046875,0.043945 0.070312,0.058594 0.052734,0.064453 0.09375,0.1171875 0.1171875,0.1640625 0.014648,0.017578 0.023437,0.029297 0.023437,0.035156 0,0.00879 0.00586,0.017578 0.023437,0.023437 0.00586,0.079102 0.049805,0.1699219 0.1289063,0.2695312 0.038086,0.055664 0.070312,0.1054688 0.09375,0.1523438 0.029297,0.041016 0.058594,0.087891 0.082031,0.140625 0.046875,0.1025391 0.084961,0.1962891 0.1171875,0.28125 0.023437,0.1025391 0.058594,0.1933594 0.1054688,0.2695312 0.052734,0.079102 0.09375,0.1582032 0.1171875,0.234375 0.014648,0.041016 0.026367,0.082031 0.035156,0.1289063 0.014648,0.041016 0.029297,0.079102 0.046875,0.1171875 0.061523,0.18164061 0.084961,0.33398436 0.070312,0.45703124 -0.00879,0.0410156 0,0.0878906 0.023437,0.140625 0,0.0234375 0.00586,0.0439453 0.023437,0.0585938 0.038086,0.140625 0.058594,0.28125 0.058594,0.421875 0,0.046875 0,0.0937499975 0,0.140625 0,0.05273437 0.00293,0.1171875 0.011719,0.1875 z M 15.117234,0.29214844 c -0.04101,0 -0.09961,0.0117188 -0.175781,0.0351563 -0.04102,0.005859 -0.111328,0.0117188 -0.210937,0.0117188 -0.04102,0 -0.0791,-0.005859 -0.117188,-0.0117188 -0.04102,0 -0.07617,0 -0.105469,0 -0.03223,-0.0175781 -0.06445,-0.0234375 -0.09375,-0.0234375 -0.03223,0 -0.06738,-0.005859 -0.105468,-0.0117188 -0.08789,-0.0175781 -0.1875,-0.0175781 -0.304688,0 -0.06445,0.005859 -0.128906,0.005859 -0.199219,0 -0.06445,0 -0.125976,-0.008789 -0.1875,-0.0234375 -0.04101,-0.0175781 -0.08203,-0.0234375 -0.128906,-0.0234375 -0.04102,0 -0.0791,-0.0117188 -0.117187,-0.0351563 -0.06445,-0.0175781 -0.125977,-0.0292969 -0.1875,-0.0351563 -0.05566,0 -0.114258,0.0117188 -0.175782,0.0351563 -0.02344,0.0146484 -0.07617,0.0234375 -0.152343,0.0234375 -0.06445,-0.0175781 -0.125977,-0.0292969 -0.1875,-0.0351563 -0.05566,-0.008789 -0.114258,-0.0117188 -0.175782,-0.0117188 -0.07031,-0.008789 -0.158203,-0.0117188 -0.257812,-0.0117188 -0.102539,0 -0.175781,0.0117188 -0.222656,0.0351563 -0.04102,0.0146484 -0.08789,0.0234375 -0.140625,0.0234375 -0.04687,0 -0.09082,0.0117188 -0.128907,0.0351563 -0.05566,0.0146484 -0.105468,0.0263672 -0.152343,0.0351563 -0.04102,0.0146484 -0.09082,0.0234375 -0.152344,0.0234375 -0.102539,0.0234375 -0.181641,0.046875 -0.234375,0.0703125 -0.0791,0.0380859 -0.161133,0.0761719 -0.246094,0.1171875 -0.0791,0.0380859 -0.149414,0.0878906 -0.210937,0.15234375 -0.03223,0.0146484 -0.05566,0.0263672 -0.07031,0.0351563 -0.0088,0.0146484 -0.02344,0.0292969 -0.04687,0.046875 L 10.113328,1.2062109 c -0.0791,0.076172 -0.1289061,0.1347657 -0.1523436,0.1757813 -0.070312,0.1171875 -0.1582032,0.2460937 -0.2578125,0.3867187 -0.046875,0.070312 -0.070312,0.131836 -0.070312,0.1875 -0.017578,0.023437 -0.023437,0.061524 -0.023437,0.1171875 0,0.076172 -0.020508,0.140625 -0.058594,0.1875 -0.00879,0.023437 -0.017578,0.038086 -0.023437,0.046875 -0.00879,0.00586 -0.020508,0.023437 -0.035156,0.046875 -0.023437,0.014649 -0.041016,0.026367 -0.046875,0.035156 -0.00879,0.014648 -0.017578,0.029297 -0.023437,0.046875 -0.1582052,0.1406253 -0.3105489,0.28418 -0.4570333,0.433594 -0.149414,0.1552735 -0.2988281,0.3046875 -0.4453125,0.4453125 -0.023437,0.038086 -0.055664,0.070312 -0.09375,0.09375 -0.032227,0.029297 -0.058594,0.029297 -0.082031,0 -0.017578,0 -0.029297,-0.00586 -0.035156,-0.011719 C 8.127,3.2159766 7.9512187,3.0460547 7.7812969,2.8819922 7.6172344,2.7237891 7.4531719,2.5567969 7.2891094,2.3780859 7.2480937,2.3370703 7.2305156,2.2960547 7.2305156,2.2491797 V 2.1437109 c 0,-0.041016 0.011719,-0.09375 0.035156,-0.1640625 0.1933593,-0.3515625 0.4335937,-0.6679687 0.7148437,-0.9492187 0.023437,-0.023437 0.046875,-0.046875 0.070312,-0.0703125 0.029297,-0.0175781 0.064453,-0.0351563 0.1054688,-0.0585938 0.061523,-0.0556641 0.1113281,-0.10546875 0.1523437,-0.15234375 0.038086,-0.0410156 0.082031,-0.0878906 0.1289063,-0.140625 0.029297,-0.0234375 0.046875,-0.0439453 0.046875,-0.0585938 0.00586,-0.008789 0.023437,-0.0234375 0.046875,-0.046875 0.038086,-0.0791016 0.1054687,-0.15820313 0.1992187,-0.234375 0.061523,-0.0644531 0.1201172,-0.1171875 0.1757813,-0.1640625 0.061523,-0.046875 0.1230468,-0.09375 0.1875,-0.140625 0.046875,-0.05273438 0.09668,-0.08203125 0.1523437,-0.08203125 0.038086,0 0.064453,-0.00293 0.082031,-0.0117187 0.070312,-0.0292969 0.1230468,-0.0644531 0.1640625,-0.10546875 0.1318359,-0.10839844 0.2695312,-0.2109375 0.4101562,-0.3046875 0.1464845,-0.0996094 0.2929685,-0.19335938 0.4335935,-0.28125 0.07031,-0.0292969 0.128907,-0.0585938 0.175782,-0.0820313 0.05273,-0.0234375 0.111328,-0.0410156 0.175781,-0.0585938 0.0059,0 0.0498,-0.0117188 0.128906,-0.0351563 0.06152,-0.0380861 0.131836,-0.076172 0.210938,-0.11718755 0.07617,-0.038086 0.155273,-0.082031 0.234375,-0.1289062 0.04687,-0.038086 0.128906,-0.073242 0.246093,-0.1054688 0.06152,0 0.117188,0 0.164063,0 0.05273,-0.00586 0.117187,-0.011719 0.1875,-0.011719 h 0.210937 c 0.108399,-0.014648 0.222657,-0.014648 0.339844,0 0.09961,0 0.193359,0.00586 0.28125,0.011719 0.08496,0 0.178711,0.00879 0.28125,0.023437 0.02344,0.017578 0.06445,0.023437 0.128906,0.023437 0.117188,0 0.199219,0.011719 0.246094,0.035156 0.07031,0.023437 0.123047,0.041016 0.164063,0.046875 0.04687,0.00879 0.09961,0.023437 0.164062,0.046875 0.09961,0.055664 0.205078,0.099609 0.316406,0.1289062 0.108399,0.032227 0.213868,0.0585938 0.316407,0.0820313 0.131836,0.0234375 0.240234,0.0703125 0.328125,0.140625 0.05273,0.0410156 0.117187,0.0585938 0.1875,0.0585938 0.03809,0 0.06445,-0.005859 0.08203,-0.0234375 0.117187,-0.0146484 0.228515,0.008789 0.339844,0.0703125 0.01465,0.0175781 0.02637,0.0234375 0.03516,0.0234375 0.0059,0 0.01465,0.008789 0.02344,0.0234375 0.07617,0.0234375 0.143555,0.0292969 0.199219,0.0117188 h 0.07031 c 0.07617,-0.0234375 0.143554,-0.0146484 0.199218,0.0234375 0.02344,0.0175781 0.03809,0.0234375 0.04687,0.0234375 0.01465,0 0.03516,0.005859 0.05859,0.0117188 0.03809,0.0322266 0.108399,0.046875 0.210938,0.046875 0.03809,0 0.09668,-0.0146484 0.175781,-0.046875 0.03809,-0.005859 0.105469,-0.0117188 0.199219,-0.0117188 0.07031,0 0.120117,-0.005859 0.152343,-0.0234375 0.09961,-0.0234375 0.181641,-0.0498047 0.246094,-0.0820313 0.04687,-0.005859 0.08789,-0.0146484 0.128906,-0.0234375 0.03809,-0.0146484 0.08496,-0.0292969 0.140625,-0.046875 0.07617,0 0.146485,-0.0292969 0.210938,-0.09375 0.03809,-0.0292969 0.07617,-0.0615234 0.117187,-0.09375 0.03809,-0.0380859 0.07031,-0.0732421 0.09375,-0.1054687 0.04687,-0.038086 0.08789,-0.082031 0.128907,-0.1289063 0,0 0.01465,0 0.04687,0 0.02344,0 0.03516,0.011719 0.03516,0.035156 v 0.035156 c -0.05566,0.09375 -0.08789,0.18164062 -0.09375,0.2578125 -0.03223,0.0644531 -0.06445,0.12304687 -0.09375,0.17578125 -0.03223,0.046875 -0.05859,0.0996094 -0.08203,0.15234375 -0.06445,0.10253906 -0.146485,0.17578125 -0.246094,0.22265625 -0.05566,0.0234375 -0.105469,0.0556641 -0.152344,0.09375 -0.04102,0.0322266 -0.09375,0.0585938 -0.164062,0.0820313 -0.07031,0.0410156 -0.134766,0.08203125 -0.1875,0.12890625 l -0.05859,0.05859375 c -0.02344,0.02929687 -0.06445,0.05859375 -0.117188,0.08203125 -0.06445,0.0234375 -0.128906,0.0380859 -0.199218,0.046875 -0.07031,0.0146484 -0.137696,0.0292969 -0.199219,0.046875 -0.125977,0 -0.246094,0.0175781 -0.363281,0.0585938 -0.04102,0.0234375 -0.102539,0.0351563 -0.1875,0.0351563 -0.05566,-0.008789 -0.123047,-0.0117188 -0.199219,-0.0117188 z m 0,0"
       style="display:inline;fill:#000000;fill-opacity:1;fill-rule:nonzero;stroke:none;stroke-width:0.600687"
       aria-label="󲅽"
       transform="matrix(1.7990714,0,0,1.7990714,-0.48556224,25.143528)"
       clip-path="url(#clipPath99)"
       id="path302"
       fill="currentColor" />
  </g>
</svg>
