<?xml version="1.0" encoding="UTF-8" standalone="no"?>
<!-- Created with Inkscape (http://www.inkscape.org/) -->

<svg
   width="32"
   height="32"
   viewBox="0 0 32 32"
   version="1.1"
   id="svg1"
   xmlns="http://www.w3.org/2000/svg"
   xmlns:svg="http://www.w3.org/2000/svg">
  <defs
     id="defs1">
    <clipPath
       clipPathUnits="userSpaceOnUse"
       id="clipPath103">
      <path
         d="M 0,0 H 612 V 792 H 0 Z"
         transform="matrix(1,0,0,-1,-521.35702,90.577405)"
         id="path103" />
    </clipPath>
  </defs>
  <g
     id="layer1"
     transform="matrix(0.98366564,0,0,0.98366564,0.26134976,0.2613495)"
     style="fill:#ffffff">
    <path
       d="m 4.2787422,-5.0270922 c 0.014648,0 0.026367,0.00586 0.035156,0.011719 0.014648,0.00879 0.029297,0.011719 0.046875,0.011719 -0.1347656,0.4306641 -0.2666015,1.0078125 -0.3984375,1.734375 -0.1347656,0.7207031 -0.1875,1.5087891 -0.1640625,2.36718751 -0.023437,0.0234375 -0.055664,0.0351563 -0.09375,0.0351563 0,0.0175781 -0.00879,0.0234375 -0.023437,0.0234375 -0.023437,0.0234375 -0.046875,0.0410156 -0.070312,0.046875 -0.017578,0.008789 -0.035156,0.0205078 -0.058594,0.0351563 -0.023437,0.0234375 -0.046875,0.0439453 -0.070312,0.0585938 -0.017578,0.008789 -0.041016,0.0205078 -0.070312,0.0351563 -0.023437,0.0234375 -0.058594,0.046875 -0.1054688,0.0703125 -0.041016,0.0322266 -0.082031,0.0644531 -0.1289062,0.09375 -0.046875,0.0322266 -0.09082,0.0673828 -0.1289063,0.10546875 0,0 -0.023437,0.0117188 -0.070312,0.0351563 -0.041016,0.0410156 -0.082031,0.0791016 -0.1289062,0.1171875 -0.046875,0.0410156 -0.09082,0.0820313 -0.1289063,0.12890625 -0.046875,0.0234375 -0.1113281,0.07617188 -0.1875,0.15234375 -0.017578,0.02929688 -0.029297,0.046875 -0.035156,0.046875 0,0.0058594 -0.00879,0.0234375 -0.023437,0.046875 l -0.058594,0.0585938 h -0.011719 v -0.0117188 c -0.017578,0 -0.023437,-0.008789 -0.023437,-0.0234375 0,-0.06445312 -0.00879,-0.11425781 -0.023437,-0.1523437475 V -0.03490469 c -0.023437,-0.07617187 -0.035156,-0.14355468 -0.035156,-0.19921875 -0.017578,-0.005859 -0.023437,-0.0292969 -0.023437,-0.0703125 -0.023437,-0.0527344 -0.043945,-0.10546875 -0.058594,-0.15234375 -0.00879,-0.0527344 -0.023437,-0.10546875 -0.046875,-0.15234375 -0.017578,-0.0527344 -0.032227,-0.0996094 -0.046875,-0.140625 -0.00879,-0.0380859 -0.020508,-0.0820313 -0.035156,-0.12890625 -0.017578,0 -0.023437,-0.005859 -0.023437,-0.0234375 -0.023437,-0.0380859 -0.046875,-0.0761719 -0.070312,-0.11718751 -0.017578,-0.046875 -0.035156,-0.087891 -0.058594,-0.1289062 -0.023437,-0.038086 -0.046875,-0.076172 -0.070312,-0.1171875 -0.017578,-0.038086 -0.035156,-0.076172 -0.058594,-0.1171875 -0.055664,-0.076172 -0.1230468,-0.1669922 -0.1992187,-0.2695313 v -0.011719 c -0.041016,-0.038086 -0.076172,-0.076172 -0.1054688,-0.1171875 -0.032226,-0.038086 -0.067383,-0.070312 -0.1054687,-0.09375 -0.1025391,-0.09375 -0.1962891,-0.1699219 -0.28125,-0.234375 l -0.058594,-0.058594 c -0.017578,0 -0.032226,-0.00586 -0.046875,-0.023437 -0.0410156,-0.023437 -0.0820312,-0.046875 -0.12890621,-0.070312 -0.0410156,-0.023437 -0.0791016,-0.049805 -0.1171875,-0.082031 -0.0175781,0 -0.0292969,-0.00293 -0.0351563,-0.011719 -0.0234375,0 -0.0351563,-0.017578 -0.0351563,-0.058594 v -0.058594 c 0,-0.052734 0,-0.099609 0,-0.140625 0.005859,-0.038086 0.0117188,-0.073242 0.0117188,-0.1054687 0.0146484,-0.038086 0.0234375,-0.09375 0.0234375,-0.1640625 v -0.09375 c -0.0175781,-0.038086 -0.0205078,-0.073242 -0.0117188,-0.1054688 0.005859,-0.029297 0.0117188,-0.064453 0.0117188,-0.1054687 0.005859,-0.038086 0.0117188,-0.087891 0.0117188,-0.1523438 0,-0.1230469 -0.005859,-0.2138672 -0.0117188,-0.2695312 v -0.2695313 c 0.005859,-0.023437 0.0117188,-0.064453 0.0117188,-0.1289062 -0.008789,-0.099609 -0.008789,-0.2109375 0,-0.328125 0,-0.061524 -0.005859,-0.1054688 -0.0117188,-0.1289063 0,-0.070312 -0.008789,-0.1230469 -0.0234375,-0.1640625 v -0.3164062 c -0.008789,-0.029297 -0.0117188,-0.064453 -0.0117188,-0.1054688 -0.0175781,-0.029297 -0.0234375,-0.064453 -0.0234375,-0.1054687 0,-0.038086 -0.008789,-0.084961 -0.0234375,-0.140625 v -0.1289063 c 0,-0.038086 -0.005859,-0.082031 -0.0117188,-0.1289062 0,-0.046875 0,-0.09375 0,-0.140625 -0.0175781,-0.052734 -0.0292969,-0.1054688 -0.0351563,-0.1523438 -0.008789,-0.052734 -0.0175781,-0.1113281 -0.0234375,-0.1757812 -0.0175781,-0.038086 -0.0292969,-0.073242 -0.0351563,-0.1054688 -0.008789,-0.029297 -0.0117188,-0.064453 -0.0117188,-0.1054687 v -0.058594 c -0.008789,-0.023437 -0.0117188,-0.046875 -0.0117188,-0.070312 0,-0.029297 -0.008789,-0.058594 -0.0234375,-0.082031 0,-0.052734 -0.005859,-0.09375 -0.0117188,-0.1171875 0,-0.038086 -0.008789,-0.061524 -0.0234375,-0.070312 0,-0.014649 0.005859,-0.023437 0.0234375,-0.023437 l 0.046875,0.058594 c 0.0380859,0.023437 0.0966797,0.076172 0.17578125,0.1523438 0.0527344,0.055664 0.0820313,0.082031 0.0820313,0.082031 0,0 0.0292969,0.023437 0.09375,0.070312 0.046875,0.055664 0.10839846,0.1054688 0.18750006,0.1523438 0.029297,0.023437 0.070312,0.052734 0.1171875,0.082031 0.038086,0.023437 0.082031,0.055664 0.1289062,0.09375 0.046875,0.041016 0.09375,0.070312 0.140625,0.09375 0.052734,0.041016 0.1054688,0.076172 0.1523438,0.1054688 0.052734,0.032226 0.1054687,0.058594 0.1523437,0.082031 0.052734,0.032227 0.099609,0.058594 0.140625,0.082031 0.046875,0.017578 0.09668,0.035156 0.1523438,0.058594 0.00586,0.017578 0.014648,0.023437 0.023437,0.023437 0.00586,0 0.017578,0.00586 0.035156,0.011719 0.023437,0 0.041016,0.00586 0.058594,0.011719 0.023437,0.00879 0.046875,0.011719 0.070312,0.011719 0.014648,0 0.026367,0.00586 0.035156,0.011719 0.014649,0 0.029297,0 0.046875,0 0.046875,0.032227 0.070312,0.046875 0.070312,0.046875 0.076172,0.023437 0.1347657,0.035156 0.1757813,0.035156 0.038086,0.017578 0.076172,0.032226 0.1171875,0.046875 0.046875,0.00879 0.09668,0.020508 0.1523437,0.035156 0.023437,0.00879 0.041016,0.011719 0.058594,0.011719 0.023437,0 0.046875,0.00879 0.070312,0.023437 h 0.023437 c 0.038086,0 0.09668,0.011719 0.1757812,0.035156 0.023437,0 0.035156,0.00879 0.035156,0.023437 0.023437,0.00879 0.046875,0.011719 0.070312,0.011719 0.029297,0 0.058594,0.00879 0.082031,0.023437 h 0.082031 c 0.038086,0 0.082031,0.011719 0.1289062,0.035156 h 0.035156 c 0.038086,0.032227 0.076172,0.046875 0.1171875,0.046875 0.038086,0 0.076172,0.00586 0.1171875,0.011719 h 0.058594 c 0.014649,0.017578 0.035156,0.023437 0.058594,0.023437 h 0.070312 c 0.029297,0 0.061523,0.00586 0.09375,0.011719 0.029297,0 0.058594,0 0.082031,0 0.014648,0 0.023437,0.00586 0.023437,0.011719 0.00586,0.00879 0.017578,0.011719 0.035157,0.011719 z m 8.9999998,-1.875 c 0,0 -0.01172,0.00586 -0.03516,0.011719 -0.07031,0.017578 -0.169922,0.052734 -0.292969,0.1054687 -0.02344,0.023437 -0.05273,0.035156 -0.08203,0.035156 -0.02344,0.023437 -0.05859,0.046875 -0.105469,0.070312 -0.03223,0.032226 -0.05859,0.046875 -0.08203,0.046875 h -0.02344 c -0.02344,0.00879 -0.04687,0.017578 -0.07031,0.023437 -0.01758,0.00879 -0.03516,0.020508 -0.05859,0.035156 h -0.175781 c -0.02344,0 -0.05566,0.011719 -0.09375,0.035156 -0.02344,0.023437 -0.05273,0.046875 -0.08203,0.070312 -0.03223,0.017578 -0.06445,0.035156 -0.09375,0.058594 -0.0791,0.064453 -0.149414,0.1347656 -0.210938,0.2109375 -0.02344,0.032227 -0.03516,0.052734 -0.03516,0.058594 -0.01758,0.023437 -0.02344,0.052734 -0.02344,0.082031 0,0.023437 -0.0059,0.046875 -0.01172,0.070312 v 0.058594 c 0.02344,0.023437 0.04687,0.076172 0.07031,0.1523437 0.01465,0.017578 0.02344,0.029297 0.02344,0.035156 0,0.00879 0.0059,0.017578 0.02344,0.023437 0.02344,0.023437 0.03516,0.043945 0.03516,0.058594 0.0059,0.017578 0.02637,0.035156 0.05859,0.058594 0,0.017578 0,0.032226 0,0.046875 0.0059,0.00879 0.01172,0.020508 0.01172,0.035156 0.01465,0.023437 0.02344,0.043945 0.02344,0.058594 0,0.00879 0.0059,0.023437 0.02344,0.046875 0,0.017578 0.01172,0.064453 0.03516,0.140625 0.02344,0.046875 0.03809,0.099609 0.04687,0.1523437 0.01465,0.046875 0.03809,0.099609 0.07031,0.1523438 0,0.017578 0,0.032226 0,0.046875 0.0059,0.00879 0.01172,0.020508 0.01172,0.035156 v 0.1523438 c 0,0.023437 0.0029,0.041016 0.01172,0.046875 0.0059,0.00879 0.01172,0.017578 0.01172,0.023437 0,0.017578 0.0059,0.023437 0.02344,0.023437 0.0059,0.023437 0.01465,0.052734 0.02344,0.082031 0.0059,0.023437 0.01758,0.046875 0.03516,0.070312 0.0059,0.023437 0.02344,0.076172 0.04687,0.1523438 0,0.023437 0.0029,0.046875 0.01172,0.070312 0.0059,0.017578 0.01172,0.035156 0.01172,0.058594 0,0.055664 0.0059,0.09375 0.02344,0.1171875 v 0.023437 c 0,0.064453 0.0029,0.1142578 0.01172,0.1523438 0,0.064453 0.0059,0.1142578 0.02344,0.1523437 h 0.02344 c 0.02344,0.079102 0.03516,0.1289063 0.03516,0.1523438 0.02344,0.055664 0.03516,0.102539 0.03516,0.140625 0.01465,0.023437 0.02344,0.064453 0.02344,0.1171875 v 0.1523437 c 0,0 0,0.020508 0,0.058594 0.01465,0.046875 0.03809,0.099609 0.07031,0.1523437 v 0.28125 c 0.0293,0.1347656 0.05859,0.2314453 0.08203,0.2929688 v 0.070312 c 0.02344,0.055664 0.0293,0.102539 0.02344,0.140625 v 0.035156 c 0,0.064453 0,0.1025391 0,0.1171875 0,0.00879 0.0029,0.041016 0.01172,0.09375 0.01465,0.017578 0.02344,0.035156 0.02344,0.058594 0.01465,0.023437 0.02344,0.067383 0.02344,0.1289062 0,0.032227 -0.0088,0.052734 -0.02344,0.058594 v 0.1757812 c -0.01758,0.1171875 -0.01758,0.2285156 0,0.328125 v 0.21093751 c 0.02344,0.046875 0.02344,0.0908203 0,0.12890625 v 0.92578125 c 0,0.0234375 -0.01172,0.046875 -0.03516,0.0703125 -0.03223,0.0292969 -0.05566,0.046875 -0.07031,0.046875 -0.0088,0.005859 -0.02344,0.0263672 -0.04687,0.0585938 -0.02344,0.005859 -0.05274,0.0263672 -0.08203,0.0585937 -0.0088,0.005859 -0.01758,0.0146484 -0.02344,0.0234375 -0.0088,0.0146484 -0.02344,0.0292969 -0.04687,0.046875 -0.01758,0.0380859 -0.04395,0.0644531 -0.08203,0.0820313 -0.01758,0.005859 -0.05859,0.0380859 -0.128907,0.09375 -0.03223,0.0234375 -0.04687,0.0410156 -0.04687,0.0585938 -0.02344,0.005859 -0.04687,0.0380859 -0.07031,0.09375 -0.04102,0.046875 -0.05859,0.0703125 -0.05859,0.0703125 0,0 -0.0293,0.0263672 -0.08203,0.0820313 -0.04687,0.0234375 -0.111328,0.0732422 -0.1875,0.15234375 -0.02344,0.0234375 -0.04395,0.038086 -0.05859,0.046875 -0.01758,0.00586 -0.0293,0.023437 -0.03516,0.046875 -0.01758,0.014649 -0.0293,0.026367 -0.03516,0.035156 0,0.014648 -0.0088,0.029297 -0.02344,0.046875 -0.05566,0.046875 -0.105469,0.1083984 -0.152344,0.1875 -0.01758,0.014648 -0.0293,0.026367 -0.03516,0.035156 0,0.014649 -0.01758,0.029297 -0.04687,0.046875 -0.02344,0.00586 -0.05566,0.029297 -0.09375,0.070312 l -0.234375,0.234375 c -0.02344,0.014649 -0.04687,0.026367 -0.07031,0.035156 -0.01758,0.014648 -0.03516,0.029297 -0.05859,0.046875 0,0.00586 -0.01172,0.023437 -0.03516,0.046875 -0.03223,0.052734 -0.05859,0.09375 -0.08203,0.1171875 -0.02344,0.052734 -0.04687,0.084961 -0.07031,0.09375 -0.01758,0 -0.02344,0.00586 -0.02344,0.023437 -0.05566,0.023437 -0.08203,0.038086 -0.08203,0.046875 0,0.00586 -0.02344,0.038086 -0.07031,0.09375 -0.05566,0.061523 -0.08789,0.09375 -0.09375,0.09375 0,0 -0.03223,0.029297 -0.09375,0.09375 l -0.02344,0.023437 c -0.02344,0.00586 -0.04101,0.014648 -0.04687,0.023437 -0.0088,0.014648 -0.02344,0.038086 -0.04687,0.070312 l -0.05859,0.058594 c 0,0.023437 -0.02051,0.041016 -0.05859,0.058594 -0.02344,0.00586 -0.05566,0.029297 -0.09375,0.070312 -0.01758,0.014648 -0.0293,0.023437 -0.03516,0.023437 -0.0088,0 -0.01758,0.00293 -0.02344,0.011719 -0.05566,0.052734 -0.087891,0.09375 -0.09375,0.1171875 -0.055664,0.052734 -0.09375,0.084961 -0.1171875,0.09375 -0.017578,0.029297 -0.032227,0.046875 -0.046875,0.046875 -0.00879,0.00586 -0.023437,0.026367 -0.046875,0.058594 l -0.058594,0.046875 c -0.041016,0.038086 -0.067383,0.073242 -0.082031,0.1054687 -0.046875,0.046875 -0.087891,0.087891 -0.1171875,0.1289063 -0.079102,0.076172 -0.140625,0.1347656 -0.1875,0.1757812 l -0.058594,0.058594 c -0.023437,0.00586 -0.041016,0.017578 -0.046875,0.035156 -0.00879,0.014648 -0.023437,0.035156 -0.046875,0.058594 -0.055664,0.023437 -0.087891,0.046875 -0.09375,0.070312 l -0.058594,0.058594 -0.1757812,0.234375 c -0.023437,0.023437 -0.035156,0.041016 -0.035156,0.058594 -0.032227,0 -0.046875,0.011719 -0.046875,0.035156 h -0.035156 c -0.00879,-0.00879 -0.020508,-0.017578 -0.035156,-0.023437 -0.017578,-0.00879 -0.029297,-0.023437 -0.035156,-0.046875 l -0.023501,-0.02343 C 8.5590156,4.0022047 8.5092109,3.9494703 8.4623359,3.9025953 8.4213203,3.8557203 8.3744453,3.8000563 8.3217109,3.7385328 L 8.2748359,3.6799391 C 8.2045234,3.67115 8.1576484,3.6477125 8.1342109,3.6096266 8.0551094,3.5539625 8.0053047,3.5070875 7.9818672,3.4690016 c 0,-0.00879 -0.00879,-0.011719 -0.023437,-0.011719 L 7.7943672,3.2229078 7.5599922,2.9885328 c -0.017578,-0.023437 -0.032227,-0.041016 -0.046875,-0.046875 -0.00879,-0.00879 -0.020508,-0.017578 -0.035156,-0.023437 -0.064453,-0.023437 -0.099609,-0.055664 -0.1054687,-0.09375 -0.032227,-0.017578 -0.052734,-0.032227 -0.058594,-0.046875 0,-0.00879 -0.017578,-0.029297 -0.046875,-0.058594 -0.00879,-0.023437 -0.023437,-0.046875 -0.046875,-0.070312 C 7.1644844,2.6076734 7.1176094,2.5695875 7.0795234,2.5315016 7.0385078,2.4904859 7.0004219,2.4524 6.9623359,2.4143141 6.9154609,2.3674391 6.8832344,2.3264234 6.8685859,2.2971266 l -0.09375,-0.09375 c -0.017578,-0.00879 -0.029297,-0.020508 -0.035156,-0.035156 0,-0.017578 -0.017578,-0.029297 -0.046875,-0.035156 -0.00879,-0.017578 -0.020508,-0.029297 -0.035156,-0.035156 -0.017578,-0.00879 -0.035156,-0.023437 -0.058594,-0.046875 -0.017578,-0.00879 -0.029297,-0.011719 -0.035156,-0.011719 0,0 -0.00879,-0.00879 -0.023437,-0.023437 -0.00879,-0.023437 -0.020508,-0.043945 -0.035156,-0.058594 -0.017578,-0.017578 -0.029297,-0.035156 -0.035156,-0.058594 l -0.058594,-0.058594 c -0.032227,-0.00879 -0.055664,-0.020508 -0.070312,-0.035156 -0.00879,-0.017578 -0.023437,-0.029297 -0.046875,-0.035156 -0.023437,-0.032226 -0.052734,-0.058594 -0.082031,-0.082031 -0.023437,-0.017578 -0.046875,-0.035156 -0.070312,-0.058594 -0.017578,-0.00879 -0.029297,-0.020508 -0.035156,-0.035156 0,-0.017578 -0.00879,-0.029297 -0.023437,-0.035156 -0.055664,-0.055664 -0.087891,-0.09375 -0.09375,-0.1171875 -0.032227,-0.023437 -0.058594,-0.043945 -0.082031,-0.058594 -0.00879,-0.023437 -0.041016,-0.052734 -0.09375,-0.082031 -0.017578,-0.023437 -0.032227,-0.041016 -0.046875,-0.046875 -0.00879,-0.00879 -0.020508,-0.017578 -0.035156,-0.023437 -0.00879,-0.032226 -0.020508,-0.055664 -0.035156,-0.070312 -0.00879,-0.00879 -0.020508,-0.023437 -0.035156,-0.046875 l -0.058594,-0.058594 c -0.017578,0 -0.023437,-0.00586 -0.023437,-0.011719 0,-0.00879 -0.00586,-0.011719 -0.011719,-0.011719 -0.041016,-0.0410157 -0.064453,-0.0585938 -0.070312,-0.0585938 -0.00879,0 -0.023437,-0.0234375 -0.046875,-0.0703125 L 5.3920234,0.78540781 5.3334297,0.72681406 C 5.3099922,0.718025 5.2806953,0.70630625 5.2513984,0.69165781 5.2279609,0.67407969 5.2045234,0.65650156 5.1810859,0.63306406 5.1400703,0.61548594 5.1137031,0.58911875 5.0990547,0.55103281 L 4.9935859,0.44556406 C 4.9760078,0.4133375 4.9613594,0.3899 4.9467109,0.37525156 c -0.00879,-0.008789 -0.020508,-0.0234375 -0.035156,-0.046875 -0.017578,-0.0234375 -0.035156,-0.0527344 -0.058594,-0.0820312 -0.00879,-0.008789 -0.011719,-0.0292969 -0.011719,-0.0585938 v -0.0117188 c 0,-0.0175781 -0.00586,-0.0322266 -0.011719,-0.046875 -0.00879,-0.008789 -0.011719,-0.0205078 -0.011719,-0.03515625 0,-0.09960937 -0.00879,-0.17578125 -0.023437,-0.22265625 -0.00879,-0.0527344 -0.011719,-0.12304687 -0.011719,-0.2109375 0,-0.0292969 -0.00586,-0.0498047 -0.011719,-0.0585938 -0.00879,-0.0146484 -0.011719,-0.0351563 -0.011719,-0.0585938 0,-0.0292969 0.00293,-0.046875 0.011719,-0.046875 0.00586,-0.005859 0.011719,-0.0234375 0.011719,-0.046875 v -0.17578125 c -0.017578,-0.0234375 -0.023437,-0.0615234 -0.023437,-0.1171875 -0.017578,-0.0380859 -0.029297,-0.0761719 -0.035156,-0.1171875 0,-0.046875 -0.00879,-0.0878907 -0.023437,-0.12890621 v -0.140625 c 0,-0.038086 0.00293,-0.076172 0.011719,-0.1171875 0.00586,-0.038086 0.011719,-0.073242 0.011719,-0.1054688 0.023437,-0.076172 0.035156,-0.1435546 0.035156,-0.1992187 v -0.035156 c 0.014648,-0.038086 0.023437,-0.099609 0.023437,-0.1875 -0.017578,-0.029297 -0.023437,-0.076172 -0.023437,-0.1406251 v -0.2695313 c 0.014648,-0.038086 0.035156,-0.1083984 0.058594,-0.2109375 0.014648,-0.023437 0.023437,-0.041016 0.023437,-0.058594 0,-0.023437 0.00293,-0.046875 0.011719,-0.070312 v -0.3515625 c 0.014648,-0.023437 0.023437,-0.038086 0.023437,-0.046875 0,-0.014648 0.00293,-0.038086 0.011719,-0.070312 0,-0.029297 0.00586,-0.052734 0.023437,-0.070312 0.023437,-0.076172 0.041016,-0.140625 0.058594,-0.1875 0.023437,-0.076172 0.035156,-0.1347657 0.035156,-0.1757813 0.014648,-0.038086 0.035156,-0.1083984 0.058594,-0.2109375 0.014648,-0.014648 0.023437,-0.035156 0.023437,-0.058594 0,-0.023437 -0.00586,-0.041016 -0.011719,-0.058594 -0.00879,-0.014648 -0.011719,-0.035156 -0.011719,-0.058594 V -4.030998 c 0.014648,-0.00586 0.023437,-0.014649 0.023437,-0.023437 0,-0.00586 0.00293,-0.017578 0.011719,-0.035156 0.029297,-0.046875 0.049805,-0.076172 0.058594,-0.09375 v -0.058594 c 0,-0.00586 0.00586,-0.017578 0.023437,-0.035156 v -0.09375 c 0,-0.038086 0.011719,-0.084961 0.035156,-0.140625 0,0 0.00586,-0.00293 0.023437,-0.011719 l 0.1171875,-0.2929688 c 0.00586,-0.014648 0.011719,-0.035156 0.011719,-0.058594 0,-0.076172 0.00586,-0.1347657 0.023437,-0.1757813 0,-0.023437 0.00586,-0.046875 0.023437,-0.070312 0.023437,-0.052734 0.046875,-0.09375 0.070312,-0.1171875 0,0 0.00586,-0.011719 0.023437,-0.035156 v -0.058594 c 0,-0.038086 0.00293,-0.064453 0.011719,-0.082031 v -0.09375 c 0.014648,-0.023437 0.026367,-0.038086 0.035156,-0.046875 0.00586,-0.00586 0.014648,-0.023437 0.023437,-0.046875 0.052734,-0.099609 0.09375,-0.1816407 0.1171875,-0.2460938 0.038086,-0.038086 0.058594,-0.084961 0.058594,-0.140625 0.023437,-0.061523 0.041016,-0.1113281 0.058594,-0.1523437 0.014648,-0.046875 0.026367,-0.1054688 0.035156,-0.1757813 0,-0.00586 0.014648,-0.023437 0.046875,-0.046875 0.023437,-0.052734 0.046875,-0.09375 0.070312,-0.1171875 0,-0.029297 0.00586,-0.046875 0.023437,-0.046875 v -0.011719 l -0.023437,-0.023437 c -0.064453,-0.061524 -0.1171875,-0.1171875 -0.1640625,-0.1640625 -0.046875,-0.052734 -0.09375,-0.1113282 -0.140625,-0.1757813 -0.017578,-0.014648 -0.035156,-0.023437 -0.058594,-0.023437 l -0.023437,-0.023437 c -0.046875,-0.00586 -0.09375,-0.017578 -0.140625,-0.035156 -0.046875,-0.014649 -0.09375,-0.026367 -0.140625,-0.035156 -0.023437,-0.014648 -0.046875,-0.023437 -0.070312,-0.023437 -0.017578,-0.00586 -0.041016,-0.017578 -0.070312,-0.035156 -0.00879,-0.014649 -0.020508,-0.023437 -0.035156,-0.023437 -0.079102,-0.046875 -0.1376953,-0.076172 -0.1757813,-0.09375 -0.00879,0 -0.011719,-0.00293 -0.011719,-0.011719 0,-0.00586 -0.00879,-0.011719 -0.023437,-0.011719 -0.041016,-0.023437 -0.064453,-0.035156 -0.070312,-0.035156 0,0 -0.017578,-0.011719 -0.046875,-0.035156 -0.041016,-0.023437 -0.076172,-0.046875 -0.1054688,-0.070312 -0.032227,-0.029297 -0.067383,-0.058594 -0.1054687,-0.082031 -0.041016,-0.023437 -0.09082,-0.070312 -0.1523438,-0.140625 l -0.070312,-0.070312 c -0.032227,-0.014648 -0.055664,-0.023437 -0.070312,-0.023437 -0.00879,0 -0.023437,-0.00293 -0.046875,-0.011719 h -0.035156 c -0.032227,-0.014649 -0.052734,-0.026367 -0.058594,-0.035156 0,-0.00586 -0.017578,-0.014648 -0.046875,-0.023437 -0.046875,-0.029297 -0.087891,-0.058594 -0.1171875,-0.082031 -0.00879,0 -0.011719,-0.00293 -0.011719,-0.011719 0,-0.00586 -0.00879,-0.011719 -0.023437,-0.011719 -0.023437,-0.023437 -0.035156,-0.038086 -0.035156,-0.046875 -0.041016,-0.038086 -0.087891,-0.09668 -0.140625,-0.1757813 -0.023437,-0.038086 -0.058594,-0.082031 -0.1054687,-0.1289062 -0.041016,-0.046875 -0.079102,-0.09375 -0.1171875,-0.140625 l -0.058594,-0.058594 c -0.079101,-0.052734 -0.1259765,-0.084961 -0.140625,-0.09375 -0.00879,-0.014648 -0.017578,-0.023437 -0.023437,-0.023437 -0.00879,0 -0.017578,-0.00293 -0.023437,-0.011719 -0.017578,-0.038086 -0.052734,-0.084961 -0.1054687,-0.140625 l -0.058594,-0.058594 c -0.023437,-0.00586 -0.043945,-0.017578 -0.058594,-0.035156 -0.00879,-0.014648 -0.023437,-0.026367 -0.046875,-0.035156 -0.017578,0 -0.035156,-0.014648 -0.058594,-0.046875 -0.032226,-0.023437 -0.052734,-0.038086 -0.058594,-0.046875 0,-0.014648 -0.011719,-0.035156 -0.035156,-0.058594 -0.017578,-0.029297 -0.043945,-0.064453 -0.082031,-0.1054688 -0.041016,-0.061523 -0.058594,-0.09375 -0.058594,-0.09375 0,0 -0.032226,-0.017578 -0.09375,-0.058594 -0.055664,-0.023437 -0.1054687,-0.049805 -0.1523437,-0.082031 -0.041016,-0.029297 -0.087891,-0.058594 -0.140625,-0.082031 -0.023437,-0.029297 -0.052734,-0.052734 -0.082031,-0.070312 -0.032226,-0.023437 -0.058594,-0.046875 -0.082031,-0.070312 0,-0.014648 -0.00586,-0.023437 -0.011719,-0.023437 -0.00879,0 -0.011719,-0.00293 -0.011719,-0.011719 -0.023437,-0.023437 -0.043945,-0.041016 -0.058594,-0.058594 -0.017578,-0.023437 -0.035156,-0.049805 -0.058594,-0.082031 -0.00879,-0.00586 -0.011719,-0.026367 -0.011719,-0.058594 -0.032226,-0.061523 -0.055664,-0.1171875 -0.070312,-0.1640625 -0.00879,-0.052734 -0.020508,-0.1113285 -0.035156,-0.1757815 0,0 -0.00586,-0.01172 -0.011719,-0.03516 v -0.105469 c 0.023437,-0.04687 0.038086,-0.09375 0.046875,-0.140625 0.00586,-0.04687 0.023437,-0.09375 0.046875,-0.140625 0,-0.03809 0.00586,-0.06445 0.023437,-0.08203 0,-0.0059 0.00293,-0.01758 0.011719,-0.03516 l 0.058594,-0.117187 c 0.023437,-0.02344 0.070312,-0.04687 0.140625,-0.07031 0,-0.01465 0.00293,-0.02344 0.011719,-0.02344 0.014648,-0.01465 0.035156,-0.02344 0.058594,-0.02344 0.038086,-0.0059 0.084961,-0.01172 0.140625,-0.01172 0.00586,0 0.017578,-0.0059 0.035156,-0.02344 0.076172,-0.02344 0.1289062,-0.03516 0.1523437,-0.03516 0,-0.01465 0.011719,-0.02344 0.035156,-0.02344 h 0.023437 c 0.038086,0 0.061523,0.0088 0.070312,0.02344 0.070312,0.01758 0.1230469,0.03223 0.1640625,0.04687 0.046875,0.0088 0.09668,0.01758 0.1523437,0.02344 h 0.035156 c 0.00586,0.01758 0.014648,0.02344 0.023437,0.02344 0.00586,0 0.017578,0.0088 0.035156,0.02344 h 0.011719 c 0.029297,0.02344 0.052734,0.04687 0.070312,0.07031 0.023437,0.01758 0.046875,0.03516 0.070312,0.05859 0.023437,0.04101 0.046875,0.09961 0.070312,0.175781 0.014648,0.01758 0.023437,0.0293 0.023437,0.03516 0.014648,0.05566 0.035156,0.123047 0.058594,0.199219 v 0.105469 c 0,0.01758 -0.00586,0.0293 -0.011719,0.03516 -0.00879,0.0088 -0.011719,0.01758 -0.011719,0.02344 0,0.05566 0,0.08789 0,0.09375 0,0 0.014649,0.020509 0.046875,0.058594 l 0.09375,0.1054687 c 0,0.00879 0.011719,0.023437 0.035156,0.046875 0.038086,0.041016 0.09668,0.087891 0.1757812,0.140625 0.038086,0.023437 0.073242,0.043945 0.1054688,0.058594 0.029297,0.017578 0.058594,0.029297 0.082031,0.035156 0.061523,0.023437 0.1230469,0.055664 0.1875,0.09375 0.070312,0.032227 0.1347657,0.058594 0.1992188,0.082031 h 0.023437 c 0.023437,0.023437 0.038086,0.035156 0.046875,0.035156 l 0.1054687,0.09375 c 0.00586,0.017578 0.014648,0.023437 0.023437,0.023437 0.00586,0 0.017578,0.00879 0.035156,0.023437 0,0.00879 0.011719,0.011719 0.035156,0.011719 l 0.515625,0.1171875 c 0.023437,0.017578 0.041016,0.023437 0.058594,0.023437 0.014648,0 0.035156,0.00586 0.058594,0.011719 0.023437,0 0.049805,0.00586 0.082031,0.011719 0.029297,0.00879 0.061523,0.011719 0.09375,0.011719 h 0.1289062 c 0.014648,0 0.026367,0.00879 0.035156,0.023437 0.038086,0.00879 0.073242,0.020508 0.1054687,0.035156 0.029297,0.017578 0.061523,0.029297 0.09375,0.035156 0.023437,0.023437 0.035156,0.035156 0.035156,0.035156 0.038086,0.032227 0.082031,0.070312 0.1289062,0.1171875 0.029297,0.032227 0.046875,0.052734 0.046875,0.058594 0.023437,0.023437 0.038086,0.046875 0.046875,0.070312 0.00586,0.017578 0.023437,0.041016 0.046875,0.070312 0,0.00879 0.011719,0.029297 0.035156,0.058594 0.052734,0.046875 0.084961,0.082031 0.09375,0.1054687 0.029297,0.032227 0.049805,0.046875 0.058594,0.046875 0,0.023437 0.011719,0.035156 0.035156,0.035156 L 6.6224847,-8.09741 c 0.023437,0 0.046875,0.011719 0.070312,0.035156 l 0.234375,0.1757813 c 0,0.017578 0.00586,0.023437 0.023437,0.023437 l 0.058594,0.058594 c 0.023437,0.00879 0.041016,0.020508 0.058594,0.035156 0.023437,0.017578 0.046875,0.029297 0.070312,0.035156 l 0.1171875,0.1171875 c 0,0 0.00293,0.00879 0.011719,0.023437 0.014648,0 0.023437,0.00586 0.023437,0.011719 0,0 0.00586,0 0.023437,0 0.046875,0.032227 0.087891,0.052734 0.1289063,0.058594 0.014648,0 0.035156,0.017578 0.058594,0.046875 0.023437,0.00879 0.041016,0.020508 0.058594,0.035156 0.014648,0.00879 0.035156,0.020508 0.058594,0.035156 0.023437,0.023437 0.035156,0.023437 0.035156,0 0.014648,0 0.023437,-0.00586 0.023437,-0.023437 0.00586,0 0.011719,-0.00293 0.011719,-0.011719 -0.00879,0 -0.011719,-0.00586 -0.011719,-0.023437 -0.023437,-0.038086 -0.052734,-0.073242 -0.082031,-0.1054688 -0.023437,-0.029297 -0.046875,-0.064453 -0.070312,-0.1054687 l -0.058594,-0.058594 c -0.041016,-0.038086 -0.067383,-0.070312 -0.082031,-0.09375 -0.00879,-0.023437 -0.017578,-0.041016 -0.023437,-0.058594 -0.00879,-0.023437 -0.023437,-0.046875 -0.046875,-0.070312 0,0 -0.017578,-0.014648 -0.046875,-0.046875 -0.023437,-0.00586 -0.046875,-0.017578 -0.070312,-0.035156 -0.017578,-0.014648 -0.035156,-0.026367 -0.058594,-0.035156 -0.017578,-0.014648 -0.032227,-0.023437 -0.046875,-0.023437 -0.00879,-0.00586 -0.020508,-0.026367 -0.035156,-0.058594 -0.032227,-0.038086 -0.067383,-0.073242 -0.1054687,-0.1054688 -0.041016,-0.038086 -0.076172,-0.084961 -0.1054688,-0.140625 -0.023437,-0.023437 -0.046875,-0.041016 -0.070312,-0.058594 -0.017578,-0.023437 -0.035156,-0.046875 -0.058594,-0.070312 -0.055664,-0.052734 -0.082031,-0.082031 -0.082031,-0.082031 0,0 -0.020508,-0.029297 -0.058594,-0.09375 -0.023437,-0.052734 -0.041016,-0.082031 -0.046875,-0.082031 0,-0.00586 -0.020508,-0.029297 -0.058594,-0.070312 -0.017578,-0.014648 -0.029297,-0.026367 -0.035156,-0.035156 -0.00879,-0.014648 -0.023437,-0.035156 -0.046875,-0.058594 -0.017578,-0.014648 -0.023437,-0.026367 -0.023437,-0.035156 0,-0.014648 -0.00586,-0.038086 -0.011719,-0.070312 L 6.29436,-9.1638138 C 6.270923,-9.2165478 6.247485,-9.2634228 6.224048,-9.3044388 6.20647,-9.3513138 6.183032,-9.4011188 6.153736,-9.4567826 L 6.106861,-9.5739701 c 0,-0.038086 -0.00879,-0.070312 -0.023437,-0.09375 0,-0.023437 -0.011719,-0.061523 -0.035156,-0.1171875 C 5.992604,-9.8698686 5.945729,-9.9548295 5.907643,-10.04272 5.866627,-10.12768 5.825612,-10.212642 5.7787368,-10.300533 v -0.02344 c 0,-0.0059 -0.00586,-0.01172 -0.011719,-0.01172 -0.00879,0 -0.011719,-0.0059 -0.011719,-0.02344 v -0.05859 c 0.014648,-0.08496 0.017578,-0.166992 0.011719,-0.246094 -0.00879,-0.07617 -0.011719,-0.158203 -0.011719,-0.246094 v -0.105468 c 0.014648,-0.03809 0.023437,-0.08789 0.023437,-0.152344 v -0.03516 c -0.017578,0 -0.023437,-0.0029 -0.023437,-0.01172 0,-0.0059 -0.00879,-0.01172 -0.023437,-0.01172 -0.00879,-0.0059 -0.017578,-0.01758 -0.023437,-0.03516 -0.00879,-0.01465 -0.017578,-0.02637 -0.023437,-0.03516 -0.017578,0 -0.035156,-0.0293 -0.058594,-0.09375 -0.017578,-0.0293 -0.023437,-0.0498 -0.023437,-0.05859 0,-0.01465 -0.00879,-0.0293 -0.023437,-0.04687 -0.00879,-0.0059 -0.011719,-0.01465 -0.011719,-0.02344 0,-0.0059 -0.00879,-0.01465 -0.023437,-0.02344 -0.041016,-0.03809 -0.064453,-0.07324 -0.070312,-0.105469 -0.017578,0 -0.032227,-0.0029 -0.046875,-0.01172 v -0.02344 c -0.00879,-0.03809 -0.011719,-0.08789 -0.011719,-0.152344 -0.017578,-0.01465 -0.023437,-0.04102 -0.023437,-0.08203 v -0.09375 c 0,-0.06152 -0.00879,-0.105469 -0.023437,-0.128906 v -0.03516 c -0.00879,-0.05273 -0.011719,-0.08496 -0.011719,-0.09375 0,-0.0059 0.011719,-0.0293 0.035156,-0.07031 0.052734,-0.07031 0.1171875,-0.158203 0.1875,-0.269531 0,0 0.00586,-0.0029 0.023437,-0.01172 0.052734,-0.07617 0.09668,-0.128906 0.1289063,-0.152344 0,-0.01465 0.014648,-0.02344 0.046875,-0.02344 v -0.02344 l 0.3984375,-0.105469 h 0.035156 c 0.052734,0.0088 0.1201172,0.0293 0.1992188,0.05859 0.00586,0 0.026367,0.01172 0.058594,0.03516 0.046875,0.02344 0.087891,0.05566 0.1289063,0.09375 0.014648,0 0.035156,0.01172 0.058594,0.03516 0.061523,0.0791 0.099609,0.134765 0.1171875,0.164062 0.023437,0.02344 0.061523,0.0791 0.1171875,0.164063 0.00586,0.01758 0.011719,0.03516 0.011719,0.05859 v 0.269532 c -0.023437,0.06445 -0.041016,0.128906 -0.046875,0.199218 -0.00879,0.06445 -0.023437,0.125977 -0.046875,0.1875 0,0.04102 -0.011719,0.08203 -0.035156,0.128907 0,0.02344 -0.00879,0.04395 -0.023437,0.05859 0,0 0.00586,0.0088 0.023437,0.02344 0.00586,0.02344 0.026367,0.04687 0.058594,0.07031 0.046875,0.04102 0.1083984,0.111328 0.1875,0.210938 0,0 0.011719,0.01758 0.035156,0.04687 0.014648,0.02344 0.026367,0.05273 0.035156,0.08203 0.014648,0.03223 0.029297,0.06738 0.046875,0.105469 0,0.01758 0.00293,0.0293 0.011719,0.03516 0.00586,0 0.011719,0.0088 0.011719,0.02344 0.00586,0.02344 0.011719,0.04101 0.011719,0.04687 0,0.0088 0.00586,0.02344 0.023437,0.04687 0.023437,0.0791 0.046875,0.140625 0.070312,0.1875 v 0.02344 c 0.052734,0.102539 0.09375,0.18457 0.1171875,0.246094 0,0.01758 0.00293,0.0293 0.011719,0.03516 0.00586,0.0088 0.011719,0.02344 0.011719,0.04687 0.014648,0 0.023437,0.0059 0.023437,0.01172 0,0 0.00293,0 0.011719,0 0,0 0.011719,0.01758 0.035156,0.04687 l 0.1171875,0.05859 c 0.029297,0.02344 0.046875,0.04395 0.046875,0.05859 0.023437,0.02344 0.035156,0.04395 0.035156,0.05859 0.00586,0.00879 0.026367,0.023438 0.058594,0.046875 0.00586,0.017578 0.011719,0.032227 0.011719,0.046875 0,0.00879 0.014648,0.011719 0.046875,0.011719 l 0.1054687,0.1171875 0.046875,0.035156 c 0.00586,0.032227 0.014648,0.058594 0.023437,0.082031 0.00586,0.023437 0.017578,0.052734 0.035156,0.082031 0,0.00879 0.011719,0.023437 0.035156,0.046875 0.061523,0.055664 0.099609,0.09082 0.1171875,0.1054687 0.023437,0.00879 0.064453,0.041016 0.1289063,0.09375 0.023437,0.00879 0.052734,0.032227 0.09375,0.070312 0.052734,0.032227 0.099609,0.064453 0.140625,0.09375 0.038086,0.032227 0.082031,0.058594 0.1289062,0.082031 0.029297,0.023437 0.070312,0.052734 0.1171875,0.082031 l 0.1171875,0.058594 c 0.046875,0.023437 0.076172,0.035156 0.09375,0.035156 0.052734,0.023437 0.099609,0.043945 0.140625,0.058594 h 0.070312 c 0.09375,0 0.1552735,-0.00586 0.1875,-0.023437 h 0.046875 c 0.038086,0 0.061523,-0.00586 0.070312,-0.023437 0.052734,-0.00586 0.1054688,-0.023437 0.1523438,-0.046875 l 0.1171875,-0.058594 c 0.029297,-0.052734 0.049805,-0.087891 0.058594,-0.1054687 0.023437,-0.046875 0.038086,-0.070312 0.046875,-0.070312 0.00586,0 0.038086,-0.011719 0.09375,-0.035156 0.00586,-0.014648 0.017578,-0.023437 0.035156,-0.023437 0.014649,0 0.026367,-0.00586 0.035156,-0.023437 0.01465,0 0.03516,-0.011719 0.05859,-0.035156 0.03809,-0.046875 0.07617,-0.09668 0.117188,-0.1523438 0.04687,-0.052734 0.08789,-0.1113281 0.128906,-0.1757812 0.0293,-0.023437 0.0498,-0.046875 0.05859,-0.070312 0.01465,-0.029297 0.0293,-0.058594 0.04687,-0.082031 0.02344,-0.023437 0.03516,-0.035156 0.03516,-0.035156 0.0059,0 0.02637,-0.011719 0.05859,-0.035156 0.02344,-0.014648 0.03809,-0.026367 0.04687,-0.035156 0.01465,-0.014648 0.03809,-0.029297 0.07031,-0.046875 0.02344,0 0.03516,-0.011719 0.03516,-0.035156 0.0059,-0.029293 0.01758,-0.046874 0.03516,-0.046874 0.01465,-0.0059 0.02637,-0.02344 0.03516,-0.04687 0.01465,-0.0293 0.02637,-0.0498 0.03516,-0.05859 0.01465,-0.01465 0.0293,-0.03516 0.04687,-0.05859 0.04687,-0.05274 0.07617,-0.09375 0.09375,-0.117188 0.01465,-0.02344 0.02637,-0.04101 0.03516,-0.05859 0.01465,-0.02344 0.0293,-0.0498 0.04687,-0.08203 0.02344,-0.07031 0.03516,-0.111328 0.03516,-0.128906 0.02344,-0.07617 0.03516,-0.128906 0.03516,-0.152344 0.05273,-0.07617 0.08496,-0.123047 0.09375,-0.140625 0,0 0.0059,-0.0029 0.02344,-0.01172 0.02344,-0.05274 0.03516,-0.08496 0.03516,-0.09375 l 0.02344,-0.02344 c 0.02344,-0.05273 0.03809,-0.105469 0.04687,-0.152344 0.01465,-0.05273 0.03809,-0.105468 0.07031,-0.152343 0,-0.02344 0,-0.04102 0,-0.05859 0.0059,-0.01465 0.01172,-0.03516 0.01172,-0.05859 0.0293,-0.07617 0.04687,-0.128906 0.04687,-0.152344 0.0059,-0.02344 0.01172,-0.05273 0.01172,-0.09375 0,-0.0293 0.0029,-0.05859 0.01172,-0.08203 0.0059,-0.02344 0.01172,-0.04687 0.01172,-0.07031 0,-0.0293 0.0029,-0.0498 0.01172,-0.05859 0.0059,-0.01465 0.01172,-0.03516 0.01172,-0.05859 0.02344,-0.05273 0.03516,-0.09961 0.03516,-0.140625 v -0.03516 c -0.01758,-0.02344 -0.04395,-0.05274 -0.08203,-0.09375 -0.0088,-0.02344 -0.02051,-0.04102 -0.03516,-0.05859 -0.01758,-0.01465 -0.0293,-0.03516 -0.03516,-0.05859 -0.04102,-0.06152 -0.08789,-0.131836 -0.140625,-0.210937 -0.0088,-0.01465 -0.01172,-0.02344 -0.01172,-0.02344 0,-0.0059 -0.0088,-0.01758 -0.02344,-0.03516 v -0.210937 c 0,0 0,-0.01172 0,-0.03516 v -0.03516 c 0.01465,-0.0293 0.02344,-0.05273 0.02344,-0.07031 0,-0.02344 0.0029,-0.04687 0.01172,-0.07031 0.01465,-0.02344 0.02637,-0.04687 0.03516,-0.07031 0.01465,-0.0293 0.0293,-0.05859 0.04687,-0.08203 l 0.03516,-0.03516 c 0.02344,-0.0293 0.04102,-0.04687 0.05859,-0.04687 0.01465,-0.0059 0.03516,-0.02344 0.05859,-0.04687 0,0 0.01172,-0.01465 0.03516,-0.04687 h 0.02344 c 0.04687,-0.02344 0.08789,-0.04687 0.128907,-0.07031 0.03809,-0.0293 0.07617,-0.05859 0.117187,-0.08203 0.02344,0 0.03516,-0.0029 0.03516,-0.01172 h 0.05859 c 0,0 0.01465,-0.0059 0.04687,-0.02344 h 0.07031 c 0.06152,0 0.123047,-0.0059 0.1875,-0.02344 0.0293,0 0.04687,0 0.04687,0 0.0059,-0.0059 0.02637,-0.01172 0.05859,-0.01172 0.02344,-0.01465 0.03809,-0.01758 0.04687,-0.01172 0.0059,0.0088 0.01465,0.01172 0.02344,0.01172 l 0.175781,0.05859 c 0.01465,0 0.02344,0.0059 0.02344,0.01172 0.0059,0 0.02637,0 0.05859,0 0.0293,0.05566 0.08203,0.08789 0.152344,0.09375 0.02344,0.03223 0.04102,0.05859 0.05859,0.08203 0.02344,0.02344 0.04687,0.04687 0.07031,0.07031 h 0.02344 c 0.02344,0.03223 0.03516,0.06738 0.03516,0.105468 0.02344,0.02344 0.03516,0.05566 0.03516,0.09375 0.0293,0.02344 0.04687,0.04687 0.04687,0.07031 v 0.257813 c -0.01758,0.02344 -0.02344,0.04687 -0.02344,0.07031 0,0.02344 -0.0088,0.05274 -0.02344,0.08203 -0.0088,0.06445 -0.01172,0.102539 -0.01172,0.117187 0,0.0088 -0.01758,0.0293 -0.04687,0.05859 -0.02344,0.02344 -0.04102,0.05273 -0.04687,0.08203 -0.0088,0.03223 -0.02344,0.06738 -0.04687,0.105469 0,0.01758 -0.0059,0.0293 -0.01172,0.03516 0,0 0,0.0088 0,0.02344 0,0.0088 -0.0059,0.01172 -0.01172,0.01172 -0.0088,0 -0.01172,0.0088 -0.01172,0.02344 -0.02344,0.02344 -0.04101,0.04687 -0.04687,0.07031 -0.0088,0.01758 -0.02344,0.04102 -0.04687,0.07031 -0.01758,0.0088 -0.03223,0.01172 -0.04687,0.01172 -0.04687,0.02344 -0.0791,0.03516 -0.09375,0.03516 -0.0088,0.01758 -0.02051,0.02344 -0.03516,0.02344 l -0.03516,0.03516 v 0.02344 c 0,0.02344 -0.0059,0.04395 -0.01172,0.05859 -0.0088,0.01758 -0.01172,0.03516 -0.01172,0.05859 0,0.02344 -0.0059,0.05273 -0.01172,0.08203 -0.0088,0.02344 -0.0059,0.04687 0.01172,0.07031 v 0.1875 c -0.01758,0.04102 -0.02344,0.0791 -0.02344,0.117188 0,0.04101 -0.0059,0.07031 -0.01172,0.09375 -0.01758,0.05566 -0.03516,0.123047 -0.05859,0.199219 0,0.02344 -0.0059,0.04395 -0.01172,0.05859 -0.0088,0.0088 -0.01172,0.02051 -0.01172,0.03516 -0.0088,0.02344 -0.01758,0.05273 -0.02344,0.08203 -0.0088,0.02344 -0.02051,0.04687 -0.03516,0.07031 0,0.01758 -0.0059,0.0293 -0.01172,0.03516 0,0 0,0.0088 0,0.02344 v 0.128906 l -0.05859,0.410157 c 0,0.04101 -0.0088,0.07031 -0.02344,0.09375 0,0.0088 -0.0059,0.01758 -0.01172,0.02344 -0.0088,0.00879 -0.01172,0.020509 -0.01172,0.035156 l -0.04687,0.1171875 c -0.03223,0.046875 -0.05274,0.09082 -0.05859,0.1289063 0,0.041016 -0.0088,0.070312 -0.02344,0.09375 0,0.032227 -0.0088,0.052734 -0.02344,0.058594 0,0 -0.0059,0.00879 -0.01172,0.023437 -0.03223,0.041016 -0.06445,0.070312 -0.09375,0.09375 -0.01758,0.017578 -0.02344,0.029297 -0.02344,0.035156 0,0 -0.0088,0.00879 -0.02344,0.023437 0,0 -0.0059,0.011719 -0.01172,0.035156 0,0.017578 -0.0059,0.029297 -0.01172,0.035156 -0.0088,0 -0.01172,0.017578 -0.01172,0.046875 0,0.00879 -0.0059,0.020508 -0.01172,0.035156 -0.0088,0.017578 -0.01172,0.029297 -0.01172,0.035156 -0.02344,0.055664 -0.03516,0.082031 -0.03516,0.082031 -0.04687,0.046875 -0.08789,0.079102 -0.117187,0.09375 -0.02344,0.023437 -0.03516,0.041016 -0.03516,0.046875 0,0.00879 -0.0088,0.023437 -0.02344,0.046875 l -0.05859,0.1171875 c -0.0088,0.023437 -0.01758,0.041016 -0.02344,0.046875 -0.0088,0.00879 -0.01758,0.023437 -0.02344,0.046875 -0.07031,0.1171875 -0.140625,0.2197266 -0.210937,0.3046875 l -0.175782,0.1757814 c -0.02344,0.023437 -0.03516,0.043945 -0.03516,0.058594 -0.01758,0.023437 -0.03223,0.046875 -0.04687,0.070312 -0.0088,0.017578 -0.02051,0.035156 -0.03516,0.058594 -0.01758,0.017578 -0.0293,0.032227 -0.03516,0.046875 0,0.00879 -0.0088,0.020508 -0.02344,0.035156 l -0.02344,0.023437 c -0.0088,0.023437 -0.03223,0.055664 -0.07031,0.09375 0,0.046875 -0.0088,0.087891 -0.02344,0.1171875 0,0.023437 -0.0059,0.052734 -0.01172,0.082031 0,0.032226 0,0.058594 0,0.082031 -0.01758,0.017578 -0.02344,0.032227 -0.02344,0.046875 0.01465,0 0.02344,0 0.02344,0 0.0059,0 0.01758,-0.00586 0.03516,-0.023437 0.04687,-0.052734 0.08789,-0.09375 0.128906,-0.1171875 0.0293,-0.023437 0.05859,-0.035156 0.08203,-0.035156 0,0 0.01172,-0.011719 0.03516,-0.035156 0.05273,-0.029297 0.08203,-0.046875 0.08203,-0.046875 0.0059,-0.00586 0.0293,-0.038086 0.07031,-0.09375 0.06152,-0.038086 0.09961,-0.082031 0.117187,-0.1289062 l 0.03516,-0.046875 c 0.01465,-0.029297 0.04102,-0.052734 0.08203,-0.070312 0.04687,-0.052734 0.07617,-0.084961 0.09375,-0.09375 0.02344,-0.014648 0.07031,-0.035156 0.140625,-0.058594 0.02344,-0.023437 0.04687,-0.035156 0.07031,-0.035156 0.05274,-0.029297 0.105469,-0.049805 0.152344,-0.058594 0.05273,-0.014648 0.105469,-0.035156 0.152344,-0.058594 0.0293,-0.014648 0.0498,-0.023437 0.05859,-0.023437 0.01465,0 0.03516,-0.00586 0.05859,-0.023437 0.06152,-0.00586 0.117188,-0.014648 0.164063,-0.023437 0.04687,-0.014648 0.09375,-0.038086 0.140625,-0.070312 0.05273,-0.023437 0.08203,-0.035156 0.08203,-0.035156 0.02344,-0.014648 0.04102,-0.026367 0.05859,-0.035156 0.02344,-0.014648 0.04687,-0.029297 0.07031,-0.046875 0.01465,-0.00586 0.03516,-0.011719 0.05859,-0.011719 h 0.140625 c 0.02344,0 0.03809,-0.00293 0.04687,-0.011719 0.01465,-0.00586 0.0293,-0.011719 0.04687,-0.011719 0.04687,-0.023437 0.07031,-0.035156 0.07031,-0.035156 0.05274,-0.023437 0.105469,-0.038086 0.152344,-0.046875 0.05274,-0.00586 0.108399,-0.017578 0.164063,-0.035156 0.0059,0 0.01465,0 0.02344,0 0.0059,-0.00586 0.01758,-0.011719 0.03516,-0.011719 h 0.09375 c 0.02344,-0.014648 0.03809,-0.023437 0.04687,-0.023437 0.0059,0 0.02344,-0.011719 0.04687,-0.035156 0.02344,-0.023437 0.03809,-0.038086 0.04687,-0.046875 0.01465,-0.00586 0.03809,-0.023437 0.07031,-0.046875 0.0059,0 0.01172,-0.00293 0.01172,-0.011719 0,-0.00586 0.0059,-0.011719 0.02344,-0.011719 0.02344,0 0.04102,-0.00293 0.05859,-0.011719 0.02344,-0.00586 0.04687,-0.011719 0.07031,-0.011719 0.0293,-0.00586 0.06152,-0.011719 0.09375,-0.011719 0.0293,0 0.05859,-0.00586 0.08203,-0.023437 0.02344,-0.014648 0.07324,-0.035156 0.152343,-0.058594 0.0293,-0.00586 0.05859,-0.017578 0.08203,-0.035156 0.02344,-0.014648 0.04687,-0.026367 0.07031,-0.035156 0.01465,-0.014648 0.04981,-0.035156 0.105469,-0.058594 0.06152,-0.029297 0.111328,-0.058594 0.152344,-0.082031 0.04687,-0.023437 0.09668,-0.052734 0.152343,-0.09375 l 0.117188,-0.058594 c 0.07031,-0.023437 0.120117,-0.035156 0.152344,-0.035156 0.0059,-0.014648 0.01465,-0.023437 0.02344,-0.023437 0.0059,0 0.01758,-0.00293 0.03516,-0.011719 0.02344,-0.029297 0.0498,-0.052734 0.08203,-0.070312 0.0293,-0.023437 0.05859,-0.046875 0.08203,-0.070312 0,0 0.0059,-0.011719 0.02344,-0.035156 v -0.09375 c 0,-0.09375 0.0059,-0.1640625 0.02344,-0.2109375 v -0.164062 c 0,-0.02344 0.0029,-0.03809 0.01172,-0.04687 v -0.02344 c 0.01465,-0.02344 0.02637,-0.05273 0.03516,-0.09375 0.0059,-0.03809 0.02344,-0.07031 0.04687,-0.09375 0.04687,-0.07617 0.07617,-0.134765 0.09375,-0.175781 0.01465,-0.01465 0.02344,-0.02344 0.02344,-0.02344 0,-0.0059 0.0029,-0.01758 0.01172,-0.03516 0.0293,-0.02344 0.05859,-0.04101 0.08203,-0.05859 0.02344,-0.01465 0.04687,-0.03516 0.07031,-0.05859 0.01465,0 0.02637,-0.0029 0.03516,-0.01172 0.0059,-0.0059 0.01465,-0.01172 0.02344,-0.01172 0.03809,-0.0059 0.08203,-0.01465 0.128906,-0.02344 0.04687,-0.01465 0.08789,-0.0293 0.128906,-0.04687 0.04687,-0.02344 0.08789,-0.03516 0.128906,-0.03516 0.01465,-0.01465 0.04687,-0.02344 0.09375,-0.02344 0.02344,0.01758 0.04102,0.02344 0.05859,0.02344 0.01465,0 0.03516,0.0059 0.05859,0.01172 h 0.03516 c 0.01465,0 0.02637,0.0059 0.03516,0.01172 0.0059,0.0088 0.01465,0.01172 0.02344,0.01172 0.02344,0.01758 0.0498,0.03223 0.08203,0.04687 0.03809,0.0088 0.07031,0.01758 0.09375,0.02344 0.01465,0 0.02344,0.0059 0.02344,0.01172 0.0059,0.0088 0.01758,0.01172 0.03516,0.01172 0.04687,0.0791 0.08496,0.128906 0.117187,0.152344 0.0059,0.01758 0.01172,0.0293 0.01172,0.03516 0,0 0.0059,0.0088 0.02344,0.02344 0,0.01758 0.01172,0.04687 0.03516,0.09375 0.01465,0.03223 0.02637,0.05859 0.03516,0.08203 0.01465,0.02344 0.0293,0.04687 0.04687,0.07031 0.0059,0.01758 0.02637,0.05273 0.05859,0.105469 0.0059,0.0088 0.01172,0.02051 0.01172,0.03516 0,0.04687 0,0.09961 0,0.152344 0,0.04687 -0.0059,0.099609 -0.01172,0.1523433 v 0.035156 c 0,0.041016 -0.0059,0.076172 -0.01172,0.1054688 -0.0088,0.032227 -0.01172,0.064453 -0.01172,0.09375 -0.01758,0.023437 -0.02344,0.041016 -0.02344,0.046875 0,0.00879 -0.0059,0.023437 -0.01172,0.046875 0,0.023437 -0.01758,0.046875 -0.04687,0.070312 -0.02344,0.055664 -0.04687,0.1054687 -0.07031,0.1523437 -0.02344,0.041016 -0.05273,0.079102 -0.08203,0.1171875 -0.02344,0.032227 -0.03516,0.046875 -0.03516,0.046875 -0.02344,0.023437 -0.04687,0.041016 -0.07031,0.046875 -0.01758,0.00879 -0.03516,0.023437 -0.05859,0.046875 -0.01758,0 -0.03223,0.00586 -0.04687,0.011719 -0.04102,0.017578 -0.08203,0.035156 -0.128906,0.058594 -0.02344,0 -0.04102,0.00586 -0.04687,0.011719 -0.0088,0.00879 -0.02344,0.011719 -0.04687,0.011719 h -0.09375 c -0.01758,0 -0.03223,0.00879 -0.04687,0.023437 h -0.01172 c -0.05566,0.041016 -0.123047,0.082031 -0.199219,0.1289063 -0.02344,0.023437 -0.05273,0.046875 -0.08203,0.070312 -0.03223,0.017578 -0.05859,0.041016 -0.08203,0.070312 l -0.05859,0.046875 c -0.03223,0.055664 -0.06738,0.102539 -0.105469,0.140625 -0.02344,0.023437 -0.04687,0.043945 -0.07031,0.058594 -0.02344,0.023437 -0.04395,0.041016 -0.05859,0.046875 -0.01758,0.00879 -0.03516,0.023437 -0.05859,0.046875 -0.02344,0 -0.03516,0.011719 -0.03516,0.035156 l -0.05859,0.1171875 c -0.01758,0.023437 -0.03516,0.052734 -0.05859,0.082031 -0.01758,0.023437 -0.03223,0.043945 -0.04687,0.058594 -0.0088,0.00879 -0.02051,0.023437 -0.03516,0.046875 -0.0088,0.017578 -0.01758,0.023437 -0.02344,0.023437 -0.0088,0 -0.02051,0.00879 -0.03516,0.023437 -0.06445,0.023437 -0.117187,0.043945 -0.164062,0.058594 -0.04102,0.00879 -0.09082,0.029297 -0.152344,0.058594 -0.03223,0.00879 -0.05859,0.017578 -0.08203,0.023437 -0.01758,0.00879 -0.03516,0.023437 -0.05859,0.046875 -0.02344,0.017578 -0.04687,0.029297 -0.07031,0.035156 -0.01758,0 -0.03516,0.00879 -0.05859,0.023437 l -0.117188,0.1171875 c -0.02344,0.023437 -0.04687,0.043945 -0.07031,0.058594 -0.01758,0.00879 -0.04102,0.029297 -0.07031,0.058594 -0.04687,0.023437 -0.08203,0.046875 -0.105468,0.070312 -0.05566,0.023437 -0.09375,0.035156 -0.117188,0.035156 l -0.234375,0.1171875 c -0.04101,0.032226 -0.05859,0.046875 -0.05859,0.046875 l -0.117187,0.1054687 -0.03516,0.046875 c -0.02344,0.00879 -0.04687,0.017578 -0.07031,0.023437 -0.01758,0.00879 -0.03516,0.020508 -0.05859,0.035156 -0.03223,0 -0.06445,0.017578 -0.09375,0.046875 -0.03223,0.017578 -0.05273,0.029297 -0.05859,0.035156 0,0.00879 -0.01758,0.017578 -0.04687,0.023437 -0.02344,0.032227 -0.04687,0.046875 -0.07031,0.046875 z m 3.796875,0.28125 c -0.01758,0.032227 -0.02344,0.079102 -0.02344,0.140625 -0.02344,0.079102 -0.03516,0.1289063 -0.03516,0.1523438 -0.02344,0.079101 -0.03516,0.149414 -0.03516,0.2109375 0,0.041016 -0.0059,0.082031 -0.01172,0.1289062 -0.0088,0.041016 -0.01172,0.079102 -0.01172,0.1171875 -0.01758,0.055664 -0.0293,0.1025391 -0.03516,0.140625 0,0.032227 -0.0088,0.076172 -0.02344,0.1289063 0,0.017578 -0.0059,0.032226 -0.01172,0.046875 0,0.00879 0,0.023437 0,0.046875 v 0.058594 c 0,0.1259766 -0.0088,0.2167969 -0.02344,0.2695313 v 0.058594 c -0.01758,0.046875 -0.02344,0.09375 -0.02344,0.140625 0,0.046875 -0.0059,0.09375 -0.01172,0.140625 0,0.055664 0,0.1113281 0,0.1640625 0,0.046875 -0.0088,0.099609 -0.02344,0.1523438 v 0.2695312 c 0,0.070312 -0.0088,0.1259766 -0.02344,0.1640625 v 0.6328125 c 0.01465,0.070312 0.02344,0.1611328 0.02344,0.2695313 v 0.046875 c -0.01758,0.046875 -0.02051,0.09375 -0.01172,0.140625 0.0059,0.046875 0.01172,0.087891 0.01172,0.1171875 0,0.041016 0.0059,0.067383 0.02344,0.082031 v 0.058594 c 0.0059,0.046875 0.01172,0.1289062 0.01172,0.2460937 v 0.09375 c 0,0.032227 -0.0059,0.046875 -0.01172,0.046875 l -0.02344,0.011719 c -0.05566,0.032227 -0.08789,0.046875 -0.09375,0.046875 -0.02344,0.00879 -0.04687,0.020508 -0.07031,0.035156 -0.01758,0.00879 -0.04101,0.020508 -0.07031,0.035156 -0.04687,0.023437 -0.09375,0.055664 -0.140625,0.09375 -0.04687,0.041016 -0.09082,0.070312 -0.128906,0.09375 -0.02344,0.017578 -0.04687,0.035156 -0.07031,0.058594 l -0.269531,0.2695313 c 0,0 -0.01172,0.017578 -0.03516,0.046875 -0.03223,0.023437 -0.05566,0.046875 -0.07031,0.070312 -0.0088,0.023437 -0.02344,0.052734 -0.04687,0.082031 -0.01758,0.00879 -0.02344,0.017578 -0.02344,0.023437 0,0.00879 -0.0059,0.020508 -0.01172,0.035156 -0.03223,0.046875 -0.06738,0.099609 -0.105469,0.1523437 -0.03223,0.046875 -0.06445,0.1025391 -0.09375,0.1640625 0,0 -0.01172,0.029297 -0.03516,0.082031 -0.05566,0.16406246 -0.125977,0.34570309 -0.210938,0.53906246 -0.02344,0.046875 -0.03516,0.0878906 -0.03516,0.1171875 -0.01758,0.0644531 -0.03223,0.1171875 -0.04687,0.1640625 -0.0088,0.0410156 -0.0293,0.0908203 -0.05859,0.15234375 0,0.03222657 -0.0059,0.05859375 -0.01172,0.0820312525 0,0.0234374975 0,0.0498046875 0,0.0820312475 0,0.02929688 -0.0088,0.06152344 -0.02344,0.09375 0,0.005859 -0.0059,0.0117188 -0.01172,0.0117188 0,-0.008789 -0.0088,-0.0117188 -0.02344,-0.0117188 -0.01758,-0.0175781 -0.0293,-0.0322266 -0.03516,-0.046875 0,-0.008789 -0.0088,-0.0205078 -0.02344,-0.03515625 l -0.08203,-0.0703125 -0.222656,-0.234375 c -0.02344,-0.0234375 -0.04687,-0.0410156 -0.07031,-0.0585938 -0.01758,-0.0146484 -0.04101,-0.0351563 -0.07031,-0.0585938 -0.02344,-0.0234375 -0.07617,-0.0615234 -0.152344,-0.1171875 -0.04102,-0.0234375 -0.07617,-0.046875 -0.105469,-0.0703125 -0.03223,-0.0234375 -0.05859,-0.0498047 -0.08203,-0.0820313 -0.05566,-0.0234375 -0.08789,-0.0380859 -0.09375,-0.046875 0,-0.005859 -0.02051,-0.0234375 -0.05859,-0.046875 L 13.77093,-0.86693594 C 13.72406,-1.4528734 13.668391,-1.9714281 13.606867,-2.4255297 c -0.05566,-0.4511719 -0.114258,-0.84375 -0.175781,-1.171875 -0.05566,-0.3339844 -0.114258,-0.6152344 -0.175781,-0.84375 -0.06445,-0.234375 -0.123047,-0.421875 -0.175782,-0.5625 h 0.08203 c 0.03809,-0.014648 0.09668,-0.023437 0.175781,-0.023437 0.02344,-0.014648 0.04687,-0.023437 0.07031,-0.023437 0.0293,0 0.05859,-0.00293 0.08203,-0.011719 0.04687,-0.014649 0.08789,-0.023437 0.128906,-0.023437 0.03809,0 0.08496,-0.00293 0.140625,-0.011719 0.03809,-0.014648 0.07324,-0.023437 0.105469,-0.023437 0.0293,0 0.06445,-0.00586 0.105468,-0.023437 0.09961,-0.023437 0.181641,-0.041016 0.246094,-0.058594 0.02344,-0.00586 0.05274,-0.011719 0.09375,-0.011719 0.05274,-0.014648 0.105469,-0.026367 0.152344,-0.035156 0.05273,-0.014649 0.105469,-0.029297 0.152344,-0.046875 0.05273,0 0.120117,-0.011719 0.199218,-0.035156 0.02344,0 0.03809,-0.00293 0.04687,-0.011719 0.0059,-0.00586 0.02344,-0.011719 0.04687,-0.011719 0.01465,-0.00586 0.03516,-0.011719 0.05859,-0.011719 0.02344,-0.014649 0.05274,-0.026367 0.09375,-0.035156 0.03809,-0.00586 0.07031,-0.014648 0.09375,-0.023437 h 0.02344 c 0.02344,-0.014648 0.04687,-0.023437 0.07031,-0.023437 0.0293,0 0.05859,-0.011719 0.08203,-0.035156 0.06152,-0.023437 0.143555,-0.049805 0.246094,-0.082031 0.05274,-0.00586 0.105469,-0.029297 0.152344,-0.070312 0.03809,-0.029297 0.08203,-0.058594 0.128906,-0.082031 0.04687,-0.023437 0.08789,-0.046875 0.128906,-0.070312 0.04687,-0.029297 0.08203,-0.058594 0.105469,-0.082031 0.0293,-0.014648 0.07031,-0.046875 0.117188,-0.09375 0.03809,-0.023437 0.08496,-0.049805 0.140625,-0.082031 0.02344,-0.023437 0.06152,-0.046875 0.117187,-0.070312 0,-0.014649 0.01172,-0.035156 0.03516,-0.058594 0.02344,-0.023437 0.07324,-0.061523 0.152344,-0.1171875 0.06152,-0.046875 0.117188,-0.09375 0.164063,-0.140625 0.05273,-0.046875 0.111328,-0.099609 0.175781,-0.1640625 0.01465,-0.014648 0.02344,-0.023437 0.02344,-0.023437 0,-0.00586 0.01172,-0.017578 0.03516,-0.035156 h 0.02344 z m 0,0"
       style="display:inline;fill:#ffffff;fill-opacity:1;fill-rule:nonzero;stroke:none;stroke-width:0.625591"
       aria-label="󲅾"
       transform="matrix(1.8424759,0,0,1.8424759,-0.1746248,24.671153)"
       clip-path="url(#clipPath103)"
       id="path306"
       fill="currentColor" />
  </g>
</svg>
