<?xml version="1.0" encoding="UTF-8" standalone="no"?>
<!-- Created with Inkscape (http://www.inkscape.org/) -->

<svg
   width="32"
   height="32"
   viewBox="0 0 32 32"
   version="1.1"
   id="svg1"
   xmlns="http://www.w3.org/2000/svg"
   xmlns:svg="http://www.w3.org/2000/svg">
  <defs
     id="defs1">
    <clipPath
       clipPathUnits="userSpaceOnUse"
       id="clipPath100">
      <path
         d="M 0,0 H 612 V 792 H 0 Z"
         transform="matrix(1,0,0,-1,-522.63601,176.505)"
         id="path100" />
    </clipPath>
  </defs>
  <g
     id="layer1"
     style="fill:#550000">
    <path
       d="m 12.913805,-1.1717578 c 0.0059,0.140625 -0.02344,0.29296874 -0.09375,0.45703124 -0.04102,0.0410156 -0.08789,0.0996094 -0.140625,0.17578125 -0.04102,0.0556641 -0.08203,0.10546875 -0.128907,0.15234375 -0.04101,0.0410156 -0.0791,0.0878906 -0.117187,0.140625 -0.04102,0.0234375 -0.0791,0.0644531 -0.117188,0.1171875 -0.06445,0.08789062 -0.146484,0.09960937 -0.246093,0.03515625 -0.03223,-0.0234375 -0.06738,-0.04101563 -0.105469,-0.05859375 -0.03223,-0.0146484 -0.06445,-0.0351563 -0.09375,-0.0585938 -0.06445,-0.0234375 -0.114258,-0.0410156 -0.152344,-0.0585938 -0.04101,-0.0146484 -0.08203,-0.0263672 -0.128906,-0.0351563 -0.234375,-0.13183594 -0.492188,-0.2109375 -0.773438,-0.234375 -0.219726,0 -0.442382,0 -0.667968,0 -0.2285159,0 -0.4892581,0.008789 -0.7851566,0.0234375 -0.2050781,0 -0.383789,0.0234375 -0.5390625,0.0703125 -0.041016,0 -0.076172,0.008789 -0.1054687,0.0234375 -0.032227,0.0175781 -0.067383,0.0351563 -0.1054688,0.0585938 -0.055664,0.0175781 -0.09375,0.0585938 -0.1171875,0.12890625 -0.00879,0.0703125 -0.020508,0.13769531 -0.035156,0.19921875 -0.017578,0.06152343 -0.029297,0.12304687 -0.035156,0.1875 -0.041016,0.140625 -0.041016,0.26074218 0,0.36328125 0.00586,0.0527344 0.017578,0.0996094 0.035156,0.140625 0.014648,0.0380859 0.026367,0.0820313 0.035156,0.12890625 0.023437,0.0234375 0.041016,0.0351563 0.058594,0.0351563 0.061523,-0.008789 0.1230469,-0.0175781 0.1875,-0.0234375 0.070312,-0.008789 0.1347656,-0.0117188 0.1992187,-0.0117188 0.038086,-0.0175781 0.070312,0.00293 0.09375,0.0585938 0.023437,0.0527344 0.049805,0.0966797 0.082031,0.12890625 0,0.0146484 0.011719,0.0351563 0.035156,0.0585938 0.023437,0.070312 0.046875,0.076172 0.070312,0.023437 0.014648,0 0.035156,-0.011719 0.058594,-0.035156 0,0 0.014648,-0.00879 0.046875,-0.0234375 0.029297,-0.0234375 0.061523,-0.0117188 0.09375,0.0351563 0,0.038086 0,0.076172 0,0.1171875 0.00586,0.038086 0.011719,0.076172 0.011719,0.1171875 0,0.076172 0.026367,0.1669922 0.082031,0.2695312 0.061523,0.099609 0.1054687,0.2226563 0.1289062,0.3632813 0.029297,0.140625 0.058594,0.2871094 0.082031,0.4453125 0.038086,0.061523 0,0.1113281 -0.1171875,0.1523437 -0.017578,0.00586 -0.032227,0.014649 -0.046875,0.023437 -0.017578,0.00586 -0.032227,0.017578 -0.046875,0.035156 -0.023437,0.00586 -0.052734,0.038086 -0.082031,0.09375 0,0.038086 -0.011719,0.061523 -0.035156,0.070312 -0.064453,0.052734 -0.1230469,0.099609 -0.1757813,0.140625 -0.046875,0.046875 -0.102539,0.087891 -0.1640625,0.1289062 -0.032227,0.029297 -0.052734,0.046875 -0.058594,0.046875 -0.032227,0.023437 -0.058594,0.014649 -0.082031,-0.023437 -0.023437,-0.023437 -0.035156,-0.052734 -0.035156,-0.082031 -0.023437,-0.064453 -0.041016,-0.1259766 -0.046875,-0.1875 -0.00879,-0.064453 -0.020508,-0.1259766 -0.035156,-0.1875 0,-0.055664 -0.00586,-0.1025391 -0.011719,-0.140625 0,-0.041016 -0.00879,-0.09082 -0.023437,-0.1523438 0,-0.00879 -0.00879,-0.011719 -0.023437,-0.011719 h -0.035156 c -0.023437,0.099609 -0.035156,0.1640625 -0.035156,0.1875 -0.023437,0.140625 -0.017578,0.2607422 0.023437,0.3632812 0.00586,0.038086 0.011719,0.076172 0.011719,0.1171875 0,0.046875 0,0.087891 0,0.1289063 0,0.1171875 -0.041016,0.2021484 -0.1171875,0.2578125 -0.00879,0 -0.017578,0 -0.023437,0 -0.00879,0.00586 -0.020508,0.011719 -0.035156,0.011719 -0.046875,0.023437 -0.09375,0.046875 -0.140625,0.070312 -0.046875,0.029297 -0.09375,0.058594 -0.140625,0.082031 -0.017578,0 -0.029297,0.00293 -0.035156,0.011719 0,0.00586 -0.00879,0.011719 -0.023437,0.011719 -0.087891,0.023437 -0.1289062,-0.00879 -0.1289062,-0.09375 -0.017578,-0.032227 -0.023437,-0.070312 -0.023437,-0.1171875 0,-0.023437 0.00293,-0.046875 0.011719,-0.070312 0.00586,-0.017578 0.011719,-0.041016 0.011719,-0.070312 0,-0.032227 -0.017578,-0.064453 -0.046875,-0.09375 0,-0.046875 -0.020508,-0.052734 -0.058594,-0.011719 -0.023437,0.00586 -0.046875,0.038086 -0.070312,0.09375 -0.09375,0.023437 -0.149414,0.049805 -0.1640625,0.082031 -0.00879,0.029297 -0.011719,0.061523 -0.011719,0.09375 0.09375,0.029297 0.1435547,0.064453 0.1523437,0.1054687 0.014648,0.038086 0.023437,0.076172 0.023437,0.1171875 0,0.023437 -0.035156,0.046875 -0.1054687,0.070312 -0.070312,0.029297 -0.1171875,0.052734 -0.140625,0.070312 -0.070312,0.046875 -0.1523438,0.073242 -0.2460938,0.082031 -0.087891,0.014648 -0.1611328,0.011719 -0.2226562,-0.011719 -0.064453,-0.041016 -0.1142578,-0.09082 -0.1523438,-0.1523437 -0.023437,-0.079102 -0.035156,-0.140625 -0.035156,-0.1875 0,-0.064453 0.00293,-0.1230469 0.011719,-0.1757813 0.00586,-0.055664 0.011719,-0.1054687 0.011719,-0.1523437 0.00586,-0.064453 0.011719,-0.1289063 0.011719,-0.1992188 0,-0.070312 0,-0.1376953 0,-0.1992187 -0.00879,-0.070312 -0.017578,-0.1464844 -0.023437,-0.2226563 -0.00879,-0.070312 -0.023437,-0.1523437 -0.046875,-0.2460937 -0.032227,0 -0.052734,-0.00586 -0.058594,-0.011719 -0.032227,0.099609 -0.058594,0.1904297 -0.082031,0.2695313 -0.017578,0.084961 -0.035156,0.1669922 -0.058594,0.2460937 -0.00879,0.061524 -0.017578,0.1171875 -0.023437,0.1640625 -0.00879,0.052734 -0.011719,0.1113282 -0.011719,0.1757813 0,0.052734 0.00293,0.099609 0.011719,0.140625 0.00586,0.038086 0.014648,0.082031 0.023437,0.1289062 0.014648,0.038086 0.023437,0.073242 0.023437,0.1054688 0,0.029297 0.00293,0.064453 0.011719,0.1054687 0,0.052734 -0.00586,0.084961 -0.011719,0.09375 -0.023437,0.052734 -0.052734,0.09375 -0.082031,0.1171875 -0.1259765,0.052734 -0.2402343,0.064453 -0.3398437,0.035156 -0.09375,-0.00879 -0.1523438,-0.070312 -0.1757813,-0.1875 -0.023442,-0.1025365 -0.03516,-0.181638 -0.03516,-0.2343724 V 3.1993359 c 0,-0.00879 -0.00586,-0.017578 -0.011719,-0.023437 -0.00879,-0.00879 -0.011719,-0.020508 -0.011719,-0.035156 -0.023437,0.029297 -0.035156,0.049805 -0.035156,0.058594 0,0.014649 -0.00879,0.035156 -0.023437,0.058594 -0.023437,0.076172 -0.046875,0.1435547 -0.070312,0.1992187 0,0.023437 -0.017578,0.046875 -0.046875,0.070312 -0.00879,0.023437 -0.032227,0.035156 -0.070312,0.035156 C 5.7126328,3.5391797 5.6013047,3.5069531 5.5309922,3.4688672 5.4606797,3.4278516 5.4020859,3.3780469 5.3552109,3.3165234 5.2995469,3.2696484 5.2731797,3.1876172 5.2731797,3.0704297 c 0,-0.140625 0.00293,-0.2783203 0.011719,-0.4101563 0.00586,-0.1259765 0.023437,-0.2578125 0.046875,-0.3984375 0,0 -0.011719,-0.00586 -0.035156,-0.011719 v 0.011719 C 5.2321641,2.3790234 5.1735703,2.4903516 5.1208359,2.6016797 5.0739609,2.7100781 5.0329453,2.8272656 5.0036484,2.9532422 c -0.00879,0.023437 -0.011719,0.049805 -0.011719,0.082031 0,0.038086 -0.00879,0.070312 -0.023437,0.09375 0,0.00586 -0.00586,0.014649 -0.011719,0.023437 -0.00879,0.00586 -0.011719,0.017578 -0.011719,0.035156 -0.023437,0.046875 -0.055664,0.058594 -0.09375,0.035156 C 4.7868514,3.1993352 4.7165388,3.1348812 4.6403669,3.0352722 4.5524759,2.8946472 4.5026716,2.7452332 4.4880231,2.5899597 4.4470071,2.3848816 4.4557961,2.1827332 4.5114601,1.9805847 4.5348971,1.9014837 4.5495461,1.828241 4.5583351,1.7579285 4.5729831,1.6876165 4.5876321,1.6202332 4.6052101,1.5587097 4.6432961,1.2833191 4.7722023,1.0372254 4.9919289,0.82042849 c 0.023437,-0.0234375 0.046875,-0.046875 0.070312,-0.0703125 0.023437,-0.0175781 0.049805,-0.0351563 0.082031,-0.0585938 0.023437,-0.0175781 0.061523,-0.046875 0.1171875,-0.09375 0.046875,-0.0410156 0.070312,-0.10546875 0.070312,-0.19921875 0,-0.0234375 0.00293,-0.0410156 0.011719,-0.046875 0.00586,-0.008789 0.011719,-0.0234375 0.011719,-0.046875 -0.032227,-0.14941407 -0.011719,-0.31054688 0.058594,-0.4921875 0.023437,-0.0761719 0.017578,-0.12304688 -0.011719,-0.140625 -0.023437,-0.0234375 -0.067383,-0.046875 -0.1289062,-0.0703125 -0.041016,-0.0146484 -0.076172,-0.0234375 -0.1054688,-0.0234375 -0.032227,0 -0.067383,-0.005859 -0.1054687,-0.0234375 -0.041016,-0.005859 -0.079102,-0.0117188 -0.1171875,-0.0117188 -0.041016,0 -0.076172,-0.0146484 -0.1054688,-0.046875 -0.1113281,-0.0234375 -0.2167968,-0.0380859 -0.3164062,-0.046875 -0.1025391,-0.0146484 -0.2050781,-0.0292969 -0.3046875,-0.046875 -0.1025391,0 -0.2226563,0 -0.3632813,0 -0.140625,-0.005859 -0.28125,0 -0.421875,0.0234375 -0.055664,0.0175781 -0.1113281,0.0234375 -0.1640625,0.0234375 -0.046875,0 -0.09375,0.005859 -0.140625,0.0117188 -0.102539,0.0234375 -0.1992187,0.046875 -0.2929687,0.0703125 -0.087891,0.0175781 -0.1757813,0.0439453 -0.2695313,0.0820313 -0.087891,0.0556641 -0.1757812,0.0878906 -0.2695312,0.09375 -0.032227,0.0322266 -0.1054688,0.0585938 -0.2226563,0.0820313 -0.1582031,0.0410156 -0.3105468,0 -0.4570312,-0.1171875 l -0.023437,-0.0117188 C 1.4909531,-0.448125 1.4001328,-0.55359375 1.3239609,-0.65613281 1.2448594,-0.75574219 1.1745469,-0.86121094 1.1130234,-0.97253906 1.0339219,-1.0897266 0.97532813,-1.2127734 0.93724219,-1.3475391 c -0.0410156,-0.1464843 -0.0322266,-0.2929687 0.0234375,-0.4335937 0.005859,-0.038086 0.0175781,-0.076172 0.0351563,-0.1171875 0.0146485,-0.038086 0.0351563,-0.087891 0.0585938,-0.1523438 0.023437,-0.076172 0.046875,-0.140625 0.070312,-0.1875 0.029297,-0.052734 0.058594,-0.1083984 0.082031,-0.1640625 0.099609,-0.140625 0.140625,-0.3164062 0.1171875,-0.5273437 -0.017578,-0.1083985 -0.032227,-0.2021485 -0.046875,-0.28125 -0.00879,-0.084961 -0.023437,-0.1699219 -0.046875,-0.2578125 -0.017578,-0.052734 -0.029297,-0.1054688 -0.035156,-0.1523438 -0.00879,-0.052734 -0.017578,-0.1054687 -0.023437,-0.1523437 -0.023437,-0.234375 -0.041016,-0.4365235 -0.046875,-0.609375 -0.00879,-0.1699219 0,-0.3339844 0.023437,-0.4921875 0.023437,-0.2021485 0.052734,-0.4042969 0.09375,-0.609375 0.038086,-0.2021485 0.073242,-0.4394531 0.1054687,-0.7148438 0.00586,-0.084961 0.017578,-0.1669922 0.035156,-0.2460937 0.014648,-0.076172 0.023437,-0.1552735 0.023437,-0.234375 0,-0.061523 0,-0.1201172 0,-0.1757813 0.00586,-0.061523 0.011719,-0.1230468 0.011719,-0.1875 0,-0.1787109 -0.00879,-0.3632812 -0.023437,-0.5507812 C 1.385483,-7.7869922 1.362046,-8.0155078 1.323961,-8.2733203 1.300524,-8.3963672 1.271227,-8.4842578 1.24193,-8.5311328 c 0,-0.014648 -0.00586,-0.023437 -0.011719,-0.023437 l -0.023437,0.023437 v 0.7382812 c 0,0.070312 0,0.1347657 0,0.1875 0,0.046875 -0.00879,0.1025391 -0.023437,0.1640625 -0.023437,0.064453 -0.041016,0.1230469 -0.046875,0.1757813 0,0.046875 -0.017578,0.102539 -0.046875,0.1640625 -0.023437,0.055664 -0.043945,0.102539 -0.058594,0.140625 -0.00879,0.041016 -0.029297,0.082031 -0.0585938,0.1289062 -0.046875,0.1171875 -0.0820313,0.234375 -0.10546875,0.3515625 -0.0175781,0.1113282 -0.0322266,0.2226563 -0.046875,0.3398438 0,0.1347656 0.00293,0.2285156 0.0117188,0.28125 0.005859,0.055664 0,0.1113281 -0.0234375,0.1640625 0,0.00879 -0.008789,0.011719 -0.0234375,0.011719 -0.0175781,-0.00586 -0.0234375,-0.017578 -0.0234375,-0.035156 -0.0234375,-0.140625 -0.046875,-0.2871094 -0.0703125,-0.4453125 -0.0175781,-0.1640625 -0.0292969,-0.3076172 -0.0351563,-0.4335938 -0.0322266,-0.2021484 -0.0527344,-0.4013672 -0.0585938,-0.5976562 0,-0.2021485 0.00293,-0.4042969 0.0117188,-0.609375 0.0146484,-0.178711 0.0263672,-0.3310547 0.0351563,-0.4570313 0.005859,-0.1318359 0.0146484,-0.2490234 0.0234375,-0.3515625 0.0292969,-0.140625 0.0527344,-0.2724609 0.0703125,-0.3984375 0.0146484,-0.1318359 0.0380859,-0.2695312 0.0703125,-0.4101562 0.0234375,-0.099609 0.0380859,-0.1992188 0.046875,-0.2929688 0.0146484,-0.09375 0.0380859,-0.2050781 0.0703125,-0.3398439 0.046875,-0.263671 0.12890625,-0.495117 0.24609375,-0.691406 0.076172,-0.140625 0.1699219,-0.27539 0.28125,-0.410157 0.1083984,-0.131836 0.2490234,-0.260742 0.421875,-0.386718 0.1787109,-0.234375 0.3691406,-0.451172 0.5742187,-0.65625 0.2109375,-0.202148 0.4248047,-0.380859 0.6445313,-0.539062 0.1083984,-0.07617 0.2050781,-0.140625 0.2929687,-0.1875 0.084961,-0.05273 0.1669922,-0.09961 0.2460938,-0.140625 0.084961,-0.03809 0.1816406,-0.07324 0.2929687,-0.105469 0.1083985,-0.0293 0.2460938,-0.07031 0.4101563,-0.117187 0.2255859,-0.07617 0.46875,-0.146485 0.7265625,-0.210938 0.2578125,-0.07031 0.5449219,-0.123047 0.8671875,-0.164062 0.2402344,-0.07031 0.4921875,-0.105469 0.75,-0.105469 0.070312,-0.01465 0.1435547,-0.02637 0.2226562,-0.03516 0.076172,-0.0059 0.1552735,-0.0029 0.234375,0.01172 0.1171875,0.01758 0.234375,0.02344 0.3515625,0.02344 0.1230469,0 0.28125,0.0059 0.46875,0.01172 0.2109375,0.04101 0.413086,0.08789 0.609375,0.140625 0.1933594,0.04687 0.3896485,0.102539 0.5859375,0.164062 0.3046875,0.111328 0.600586,0.234375 0.8906253,0.375 0.295898,0.140625 0.5625,0.304688 0.796875,0.492188 0.1875,0.18164 0.351562,0.380859 0.492187,0.597656 0.108399,0.158203 0.228516,0.301758 0.363282,0.433594 0.131836,0.134765 0.269531,0.269531 0.410156,0.410156 0.06152,0.0791 0.120117,0.164062 0.175781,0.257812 0.06152,0.08789 0.117188,0.172852 0.164063,0.257813 0.09375,0.164062 0.166992,0.363281 0.222656,0.597656 0.06152,0.2285153 0.111328,0.4306637 0.152344,0.6093747 0.0293,0.2753906 0.04687,0.5449219 0.04687,0.8085937 v 0.8085938 c -0.0088,0.102539 -0.01758,0.2050781 -0.02344,0.3046875 -0.0088,0.102539 -0.01758,0.2050781 -0.02344,0.3046875 l -0.05859,0.4570312 c -0.01758,0.079102 -0.02344,0.1523438 -0.02344,0.2226563 0,0.070312 -0.0088,0.1376953 -0.02344,0.1992187 -0.0088,0.3134766 -0.03223,0.5449219 -0.07031,0.6914063 0,0.09375 -0.01172,0.2050781 -0.03516,0.328125 0,0.023437 -0.01758,0.064453 -0.04687,0.1171875 h -0.03516 c -0.02344,-0.052734 -0.04395,-0.09668 -0.05859,-0.1289063 -0.01758,-0.038086 -0.02344,-0.082031 -0.02344,-0.1289062 0,-0.046875 -0.0059,-0.09375 -0.01172,-0.140625 -0.01758,-0.070312 -0.02344,-0.1435547 -0.02344,-0.2226563 0,-0.084961 -0.0088,-0.1992187 -0.02344,-0.3398437 0,-0.1171875 -0.01758,-0.225586 -0.04687,-0.328125 -0.03223,-0.099609 -0.05566,-0.2021485 -0.07031,-0.3046875 -0.0088,-0.099609 -0.02051,-0.2021485 -0.03516,-0.3046875 v -0.7148438 c -0.0088,0.017578 -0.02051,0.023437 -0.03516,0.023437 0,0.023437 -0.0059,0.043945 -0.01172,0.058594 -0.0088,0.017578 -0.01172,0.035156 -0.01172,0.058594 -0.02344,0.140625 -0.04395,0.2871094 -0.05859,0.4335938 -0.0088,0.140625 -0.02344,0.290039 -0.04687,0.4453125 -0.01758,0.140625 -0.03516,0.2871094 -0.05859,0.4335937 -0.01758,0.1494141 -0.02344,0.3339844 -0.02344,0.5507813 0.02344,0.1113281 0.04102,0.2197265 0.05859,0.328125 0.02344,0.1113281 0.06445,0.2167969 0.128906,0.3164062 0.07031,0.1025391 0.128907,0.2080078 0.175782,0.3164063 0.05273,0.1113281 0.105468,0.2167969 0.152343,0.3164062 0.05274,0.079102 0.08203,0.1494141 0.08203,0.2109375 0.01465,0.055664 0.02637,0.1142578 0.03516,0.1757813 0.01465,0.055664 0.03516,0.1523437 0.05859,0.2929687 0.02344,0.070312 0.0498,0.1494141 0.08203,0.234375 0.03809,0.087891 0.07031,0.1699219 0.09375,0.2460938 0.06152,0.2666015 0.07324,0.5126953 0.03516,0.7382812 l -0.05859,0.46875 c -0.02344,0.1816407 -0.03223,0.3222657 -0.02344,0.421875 0.01465,0.1025391 0.03516,0.1962891 0.05859,0.28125 0,0.023437 0.0029,0.046875 0.01172,0.070312 0.0059,0.017578 0.01172,0.041016 0.01172,0.070312 0.01465,0.023437 0.02344,0.067383 0.02344,0.1289063 z M 5.4255234,-2.1912891 c 0.061523,-0.046875 0.1201172,-0.09375 0.1757813,-0.140625 0.061523,-0.046875 0.1523437,-0.09375 0.2695312,-0.140625 0.023437,-0.052734 0.049805,-0.099609 0.082031,-0.140625 0.029297,-0.038086 0.061523,-0.073242 0.09375,-0.1054687 0.023437,-0.014648 0.052734,-0.014648 0.09375,0 0.046875,0.023437 0.087891,0.055664 0.1289062,0.09375 0.038086,0.041016 0.076172,0.070312 0.1171875,0.09375 0.014648,0.017578 0.035156,0.023437 0.058594,0.023437 0.014648,0 0.023437,-0.014648 0.023437,-0.046875 0,-0.1083985 -0.00879,-0.1904297 -0.023437,-0.2460938 -0.017578,-0.061523 -0.035156,-0.1201172 -0.058594,-0.1757812 -0.017578,-0.061523 -0.035156,-0.1230469 -0.058594,-0.1875 -0.023437,-0.09375 -0.023437,-0.1904297 0,-0.2929688 0.038086,-0.061523 0.049805,-0.1230468 0.035156,-0.1875 0,-0.052734 0,-0.1083984 0,-0.1640625 0,-0.052734 -0.00586,-0.140625 -0.011719,-0.2578125 0,-0.023437 -0.011719,-0.038086 -0.035156,-0.046875 -0.017578,-0.00586 -0.032227,-0.00293 -0.046875,0.011719 -0.023437,0.023437 -0.035156,0.035156 -0.035156,0.035156 -0.017578,0.1025391 -0.035156,0.1699219 -0.058594,0.1992188 -0.017578,0.023437 -0.035156,0.029297 -0.058594,0.011719 -0.023437,-0.014648 -0.064453,-0.023437 -0.1171875,-0.023437 0,-0.099609 -0.00586,-0.1552734 -0.011719,-0.1640625 0,-0.014648 0,-0.029297 0,-0.046875 -0.041016,-0.084961 -0.09375,-0.1582031 -0.1640625,-0.2226562 -0.064453,-0.070312 -0.1757812,-0.1289063 -0.3398437,-0.1757813 -0.1494141,-0.09375 -0.3105469,-0.1640625 -0.4804688,-0.2109375 -0.1640625,-0.052734 -0.336914,-0.09375 -0.515625,-0.1171875 -0.102539,-0.023437 -0.1699218,-0.026367 -0.1992187,-0.011719 -0.032227,0.00879 -0.09375,0.041016 -0.1875,0.09375 -0.00879,-0.014648 -0.017578,-0.023437 -0.023437,-0.023437 -0.00879,0 -0.020508,-0.00586 -0.035156,-0.023437 -0.087891,-0.061523 -0.2314453,-0.052734 -0.4335937,0.023437 h -0.023437 c -0.017578,0 -0.023437,0.00879 -0.023437,0.023437 -0.140625,0.064453 -0.2548828,0.087891 -0.3398438,0.070312 -0.023437,0 -0.043945,0 -0.058594,0 -0.017578,-0.00586 -0.035156,-0.011719 -0.058594,-0.011719 -0.041016,-0.014648 -0.1113281,-0.023437 -0.2109375,-0.023437 -0.140625,0 -0.2636718,0.023437 -0.3632812,0.070312 -0.023437,0.017578 -0.043945,0.023437 -0.058594,0.023437 -0.00879,0 -0.029297,0.00879 -0.058594,0.023437 -0.046875,0.023437 -0.09082,0.029297 -0.1289063,0.011719 0,0 -0.011719,-0.00293 -0.035156,-0.011719 h -0.023437 c -0.055664,0 -0.082031,0.020508 -0.082031,0.058594 0,0.1113281 -0.020508,0.1845703 -0.058594,0.2226562 -0.023437,0.041016 -0.041016,0.09082 -0.046875,0.1523438 0,0.055664 0.00293,0.140625 0.011719,0.2578125 0.014649,0.064453 0.011719,0.1464844 -0.011719,0.2460937 -0.017578,0.064453 -0.029297,0.1259766 -0.035156,0.1875 -0.00879,0.055664 -0.017578,0.1142578 -0.023437,0.1757813 v 0.140625 c 0.023437,0.28125 0.076172,0.5449219 0.1640625,0.7851562 0.014649,0.070312 0.049805,0.140625 0.1054688,0.2109375 0.061523,0.140625 0.1289062,0.2548828 0.1992187,0.3398438 0.076172,0.079101 0.1640625,0.140625 0.2578125,0.1875 0.046875,0.032226 0.1083985,0.087891 0.1875,0.1640625 0.014649,0.064453 0.041016,0.1054687 0.082031,0.1289062 0.023437,0.023437 0.041016,0.035156 0.058594,0.035156 0.023437,0.032226 0.046875,0.043945 0.070312,0.035156 0.023437,-0.00586 0.049805,-0.023437 0.082031,-0.046875 l 0.058594,-0.1171875 c 0.084961,-0.1171875 0.2050782,-0.1757812 0.3632813,-0.1757812 h 0.4570312 c 0.061523,0.017578 0.131836,0.020508 0.2109375,0.011719 0.076172,-0.00586 0.1464844,-0.011719 0.2109375,-0.011719 0.1933594,-0.023437 0.366211,-0.073242 0.515625,-0.1523438 0.076172,-0.038086 0.1523438,-0.09668 0.2226563,-0.1757812 0.070312,-0.084961 0.1347656,-0.1757813 0.1992187,-0.2695313 z m 2.6835938,2.15625004 c 0.014648,-0.06152344 0.026367,-0.1171875 0.035156,-0.1640625 0.00586,-0.046875 0.011719,-0.09375 0.011719,-0.140625 -0.017578,-0.0292969 -0.023437,-0.0761719 -0.023437,-0.140625 -0.023437,-0.0615234 -0.043945,-0.12011719 -0.058594,-0.17578125 -0.00879,-0.0615234 -0.020508,-0.12304688 -0.035156,-0.1875 -0.023437,-0.0761719 -0.064453,-0.15234375 -0.1171875,-0.22265629 -0.046875,-0.070312 -0.1376953,-0.1347656 -0.2695313,-0.1992187 -0.046875,-0.061524 -0.09082,-0.1201172 -0.1289062,-0.1757813 -0.032227,-0.061523 -0.064453,-0.1230468 -0.09375,-0.1875 -0.032227,-0.038086 -0.055664,-0.073242 -0.070312,-0.1054687 -0.00879,-0.029297 -0.023437,-0.073242 -0.046875,-0.1289063 -0.032227,-0.140625 -0.070312,-0.234375 -0.1171875,-0.28125 -0.09375,-0.070312 -0.1757813,-0.084961 -0.2460938,-0.046875 -0.2109375,0.140625 -0.3486328,0.3339844 -0.4101562,0.5742188 -0.00879,0.070312 -0.041016,0.1699219 -0.09375,0.2929687 -0.064453,0.1582032 -0.1289063,0.3017578 -0.1992188,0.43359379 -0.070312,0.13476562 -0.1523437,0.26953125 -0.2460937,0.41015625 -0.046875,0.0791016 -0.09082,0.18164062 -0.1289063,0.3046875 -0.2197265,0.29589843 -0.2109375,0.53320312 0.023437,0.71484375 0.029297,0.0996094 0.082031,0.20214843 0.1523438,0.3046875 0.038086,0.0761719 0.09375,0.13476562 0.1640625,0.17578121 0.038086,0.023437 0.076172,0.046875 0.1171875,0.070312 0.038086,0.029297 0.076172,0.058594 0.1171875,0.082031 0.052734,0.023437 0.09668,0.035156 0.1289062,0.035156 0.076172,0.023437 0.1347657,0.00293 0.1757813,-0.058594 0.014648,-0.00879 0.035156,-0.041016 0.058594,-0.09375 0.014648,-0.023437 0.023437,-0.043945 0.023437,-0.0585938 0,-0.0175781 0.00293,-0.0351563 0.011719,-0.0585938 0.014648,-0.0878906 0.061523,-0.15820313 0.140625,-0.2109375 0.076172,-0.046875 0.140625,-0.0351563 0.1875,0.0351563 0.029297,0.0292969 0.046875,0.0498047 0.046875,0.0585938 0.00586,0.0146484 0.023437,0.0351563 0.046875,0.0585938 0.070312,0.0615234 0.140625,0.0761719 0.2109375,0.046875 0.09375,-0.0322266 0.1933594,-0.0761719 0.3046875,-0.12890625 0.1171875,-0.0556641 0.1904297,-0.13769532 0.2226562,-0.24609375 0,-0.0234375 0,-0.0439453 0,-0.0585938 0.00586,-0.008789 0.011719,-0.0234375 0.011719,-0.046875 0.014648,-0.0556641 0.026367,-0.11132813 0.035156,-0.1640625 0.00586,-0.046875 0.023437,-0.11132813 0.046875,-0.1875 0,-0.046875 0.00293,-0.09082032 0.011719,-0.12890625 z M 12.351305,-2.7186328 c 0,-0.038086 0,-0.082031 0,-0.1289063 0,-0.046875 0.0059,-0.099609 0.02344,-0.1640625 -0.01758,-0.052734 -0.02344,-0.1054687 -0.02344,-0.1523437 0,-0.052734 0,-0.1113281 0,-0.1757813 0,-0.076172 -0.02051,-0.1523437 -0.05859,-0.2226562 -0.04687,-0.1083985 -0.105469,-0.234375 -0.175781,-0.375 -0.06445,-0.140625 -0.146485,-0.2519531 -0.246094,-0.3398438 -0.04102,-0.023437 -0.07617,-0.041016 -0.105469,-0.058594 -0.03223,-0.014648 -0.0791,-0.035156 -0.140625,-0.058594 -0.125976,-0.061523 -0.246094,-0.1171875 -0.363281,-0.1640625 -0.117188,-0.052734 -0.234375,-0.1113281 -0.351563,-0.1757812 -0.03223,-0.038086 -0.06738,-0.058594 -0.105468,-0.058594 -0.0791,-0.052734 -0.184571,-0.052734 -0.316407,0 -0.0088,0.00879 -0.02051,0.017578 -0.03516,0.023437 -0.0088,0.00879 -0.02051,0.020508 -0.03516,0.035156 -0.02344,0 -0.05273,0.011719 -0.08203,0.035156 -0.102539,0.041016 -0.196289,0.058594 -0.28125,0.058594 -0.055664,0 -0.1376956,-0.017578 -0.2460941,-0.058594 -0.079102,-0.014648 -0.1523437,-0.041016 -0.2226562,-0.082031 -0.064453,-0.023437 -0.1054688,-0.00586 -0.1289063,0.046875 -0.023437,0.046875 -0.035156,0.079102 -0.035156,0.09375 -0.032227,0.064453 -0.070312,0.09375 -0.1171875,0.09375 -0.09375,0 -0.1845703,0.032227 -0.2695313,0.09375 -0.041016,0.023437 -0.076172,0.041016 -0.1054687,0.046875 -0.032227,0.00879 -0.067383,0.023437 -0.1054688,0.046875 -0.102539,0.055664 -0.1933593,0.076172 -0.2695312,0.058594 -0.064453,0 -0.1464844,0.017578 -0.2460938,0.046875 -0.017578,0.00879 -0.029297,0.011719 -0.035156,0.011719 0,0 -0.00879,0.00879 -0.023437,0.023437 -0.055664,0 -0.064453,0.032227 -0.023437,0.09375 0.029297,0.017578 0.046875,0.029297 0.046875,0.035156 0.00586,0 0.023437,0.00879 0.046875,0.023437 0.029297,0.1025391 0.046875,0.1699219 0.046875,0.1992188 0,0.023437 0,0.046875 0,0.070312 0.00586,0.1259765 -0.023437,0.2548828 -0.09375,0.3867187 -0.032227,0.023437 -0.058594,0.055664 -0.082031,0.09375 -0.017578,0.041016 -0.035156,0.070312 -0.058594,0.09375 -0.041016,0.064453 -0.076172,0.1289063 -0.1054688,0.1992188 -0.032226,0.064453 -0.058594,0.1259765 -0.082031,0.1875 v 0.035156 h 0.035156 c 0.052734,-0.023437 0.084961,-0.035156 0.09375,-0.035156 0.038086,0 0.058594,0.00586 0.058594,0.011719 0.014648,0.070312 0.061523,0.1582032 0.140625,0.2578125 0.061523,0.087891 0.1289062,0.1699219 0.1992187,0.2460938 0.076172,0.079102 0.1640625,0.1699219 0.2578125,0.2695312 0.046875,0.1025391 0.1054688,0.1845703 0.1757813,0.2460938 l 0.2226562,0.1171875 c 0.28125,0.1171875 0.6269532,0.2109375 1.042969,0.28125 0.123047,0.017578 0.249024,0.017578 0.375,0 0.19336,-0.00586 0.386719,-0.061524 0.574219,-0.1640625 0.169922,-0.061524 0.342773,-0.1582031 0.515625,-0.2929688 0.169922,-0.140625 0.345703,-0.28125 0.527344,-0.421875 0.07617,-0.061523 0.120117,-0.1113281 0.128906,-0.1523437 0.01465,-0.038086 0.03516,-0.1083985 0.05859,-0.2109375 z m 0,0"
       style="display:inline;fill:#550000;fill-opacity:1;fill-rule:nonzero;stroke:none;stroke-width:0.620771"
       aria-label="󲅻"
       transform="matrix(1.8159641,0,0,1.8159641,3.7313995,25.096316)"
       clip-path="url(#clipPath100)"
       id="path303"
       fill="currentColor" />
  </g>
</svg>
