<?xml version="1.0" encoding="UTF-8" standalone="no"?>
<!-- Created with Inkscape (http://www.inkscape.org/) -->

<svg
   width="32"
   height="32"
   viewBox="0 0 32 32"
   version="1.1"
   id="svg1"
   xmlns="http://www.w3.org/2000/svg"
   xmlns:svg="http://www.w3.org/2000/svg">
  <defs
     id="defs1">
    <clipPath
       clipPathUnits="userSpaceOnUse"
       id="clipPath101">
      <path
         d="M 0,0 H 612 V 792 H 0 Z"
         transform="matrix(1,0,0,-1,-520.38202,147.862)"
         id="path101" />
    </clipPath>
  </defs>
  <g
     id="layer1">
    <path
       d="m 17.016438,-0.03448438 c 0.03808,0.24023438 0.04687,0.47460938 0.02344,0.703125 -0.01758,0.234375 -0.08203,0.45996098 -0.199219,0.67968748 -0.06445,0.099609 -0.134765,0.1875 -0.210937,0.2578125 -0.0791,0.076172 -0.169922,0.1523438 -0.269531,0.2226563 -0.407227,0.328125 -0.814454,0.5390625 -1.21875,0.6328125 -0.219727,0.029297 -0.47754,0.035156 -0.773438,0.011719 -0.06445,-0.00879 -0.134766,-0.011719 -0.210937,-0.011719 -0.0791,0 -0.149415,-0.00879 -0.210938,-0.023437 -0.125977,-0.023437 -0.243164,-0.055664 -0.351562,-0.09375 -0.111329,-0.032227 -0.234375,-0.058594 -0.375,-0.082031 -0.298829,-0.079101 -0.580079,-0.1640625 -0.84375,-0.2578125 -0.257813,-0.087891 -0.480469,-0.1816406 -0.667969,-0.28125 -0.03223,-0.00879 -0.05566,-0.011719 -0.07031,-0.011719 -0.0088,0 -0.02051,-0.00879 -0.03516,-0.023437 -0.04687,-0.017578 -0.09961,-0.00879 -0.152344,0.023437 -0.02344,0.023437 -0.04394,0.038086 -0.05859,0.046875 -0.0088,0.00586 -0.02051,0.023437 -0.03516,0.046875 -0.383789,0.3662109 -0.74414,0.7265625 -1.078125,1.078125 C 9.9500313,3.2350469 9.5926094,3.5690312 9.21175,3.8912969 L 9.071125,4.0319219 H 9.035969 c 0,-0.017578 -0.00879,-0.023437 -0.023437,-0.023437 C 8.9890938,3.9850469 8.9656563,3.9616094 8.9422188,3.9381719 8.9246406,3.9205937 8.9070625,3.9030156 8.883625,3.8795781 8.508625,3.58075 8.1629219,3.2584844 7.852375,2.9069219 7.5388984,2.5553594 7.1990547,2.1979375 6.8328438,1.8405156 6.8006172,1.8170781 6.7771797,1.7995 6.7625313,1.7936406 6.7537422,1.7848516 6.7390938,1.7702031 6.7156563,1.7467656 H 6.5984688 c -0.3603516,0.2021485 -0.8056641,0.375 -1.3359375,0.515625 -0.1113282,0.023437 -0.2109375,0.041016 -0.3046875,0.058594 -0.09375,0.014648 -0.1933594,0.023437 -0.2929688,0.023437 -0.09375,0.00586 -0.1816406,0.014648 -0.2578125,0.023437 -0.070312,0.00586 -0.1582031,0.017578 -0.2578125,0.035156 -0.017578,0.00586 -0.052734,0.011719 -0.1054687,0.011719 -0.140625,0 -0.28125,0 -0.421875,0 -0.140625,0 -0.28125,0.00586 -0.421875,0.023437 -0.1494141,0 -0.28125,-0.023437 -0.3984375,-0.070312 C 2.6844063,2.3209844 2.5730781,2.2653203 2.4734688,2.2037969 2.4090156,2.1393437 2.3387031,2.08075 2.2625313,2.0280156 2.1834297,1.9811406 2.1101875,1.9254766 2.039875,1.8639531 1.6414375,1.565125 1.3396797,1.1256719 1.1375313,0.53973437 c -0.041016,-0.13476562 -0.064453,-0.2578125 -0.070312,-0.375 -0.00879,-0.11132812 0,-0.21386718 0.023437,-0.31640625 0.029297,-0.0761719 0.061523,-0.15820312 0.09375,-0.24609375 0.029297,-0.09375 0.070312,-0.19042968 0.1171875,-0.29296875 0.070312,-0.1640625 0.1464843,-0.32226562 0.234375,-0.48046872 0.084961,-0.1640625 0.1816406,-0.3222657 0.2929687,-0.4804688 0.099609,-0.140625 0.1904297,-0.2607422 0.2695313,-0.3632812 0.084961,-0.099609 0.1699218,-0.2285157 0.2578125,-0.3867188 0.029297,-0.046875 0.049805,-0.087891 0.058594,-0.1289062 v -0.023437 c 0.061523,-0.099609 0.099609,-0.2021485 0.1171875,-0.3046875 0.023437,-0.046875 0.035156,-0.070312 0.035156,-0.070312 0.2724609,-0.4365235 0.5039062,-0.9169922 0.6914062,-1.4414063 0,-0.029297 0.00586,-0.046875 0.023437,-0.046875 0.076172,-0.1230469 0.1347656,-0.2460937 0.1757813,-0.3632812 0.038086,-0.1230469 0.070312,-0.2578125 0.09375,-0.3984375 v -0.023437 c 0.023437,-0.038086 0.038086,-0.073242 0.046875,-0.1054688 0.00586,-0.038086 0.023437,-0.073242 0.046875,-0.1054687 0.061523,-0.140625 0.1171875,-0.2519532 0.1640625,-0.3398438 0.046875,-0.09375 0.087891,-0.2109375 0.1289062,-0.3515625 0.061523,-0.1464844 0.1289063,-0.2958984 0.1992188,-0.4453125 0.070312,-0.1552734 0.1289062,-0.3193359 0.1757812,-0.4921875 0.038086,-0.1640625 0.076172,-0.3076172 0.1171875,-0.4335937 0.038086,-0.131836 0.076172,-0.272461 0.1171875,-0.421875 v -0.1757813 c 0.023437,-0.09375 0.052734,-0.1787109 0.09375,-0.2578125 0.038086,-0.084961 0.076172,-0.1699219 0.1171875,-0.2578125 0.1171875,-0.2724609 0.2255859,-0.5185547 0.328125,-0.7382812 0.099609,-0.225586 0.2109375,-0.46875 0.328125,-0.7265624 0.023437,-0.04687 0.038086,-0.08789 0.046875,-0.128907 0.014648,-0.03809 0.035156,-0.08496 0.058594,-0.140625 0.029297,-0.03809 0.052734,-0.07324 0.070312,-0.105468 0.023437,-0.03809 0.046875,-0.07324 0.070312,-0.105468 0,-0.0059 0.00586,-0.01172 0.023437,-0.01172 0.061523,-0.07031 0.1113281,-0.140625 0.1523437,-0.210938 0.038086,-0.07031 0.070312,-0.134765 0.09375,-0.199218 h 0.035156 c 0.023437,-0.02344 0.035156,-0.04102 0.035156,-0.05859 0.099609,-0.123047 0.1933594,-0.249024 0.28125,-0.375 0.09375,-0.131836 0.2109375,-0.272461 0.3515625,-0.421875 0.2167969,-0.216797 0.4394531,-0.427735 0.6679688,-0.632813 0.2255859,-0.210937 0.4628906,-0.389648 0.7148437,-0.539062 0.076172,-0.09375 0.2050781,-0.19043 0.3867188,-0.292969 0.038086,-0.02344 0.082031,-0.04687 0.1289062,-0.07031 0.029297,-0.0293 0.046875,-0.04687 0.046875,-0.04687 0.00586,0 0.014648,0 0.023437,0 0.00586,-0.0059 0.017578,-0.01172 0.035156,-0.01172 0.1083984,-0.03809 0.2226562,-0.07031 0.3398437,-0.09375 0.1171875,-0.0293 0.234375,-0.07031 0.3515625,-0.117188 0.046875,0.02344 0.09668,0.03516 0.1523438,0.03516 0.061523,0.01758 0.1552734,0.04687 0.28125,0.09375 0.09375,0.04102 0.1582031,0.0791 0.1992187,0.117187 0.046875,0.04102 0.082031,0.0791 0.1054691,0.117188 0.108398,0.04687 0.205078,0.102539 0.292969,0.164062 0.08496,0.05566 0.175781,0.114258 0.269531,0.175781 0.328125,0.257813 0.621094,0.539063 0.878906,0.84375 0.257813,0.298828 0.474609,0.594727 0.65625,0.890625 h 0.01172 c 0.0293,0.06445 0.07031,0.125977 0.117187,0.1875 0.05274,0.06445 0.105469,0.125977 0.152344,0.1875 0.0293,0.01758 0.04687,0.03223 0.04687,0.04687 0.0059,0.0088 0.02637,0.02051 0.05859,0.03516 0.06152,0.18164 0.146484,0.351562 0.257812,0.515625 0.108399,0.164062 0.213867,0.3164064 0.316407,0.4570314 0,0.017578 0,0.029297 0,0.035156 0.0059,0.00879 0.01172,0.017578 0.01172,0.023437 0.09961,0.2109375 0.205078,0.4394531 0.316407,0.6796875 0.108398,0.2431641 0.202148,0.4892578 0.28125,0.7382813 0.02344,0.1113281 0.04101,0.2197265 0.05859,0.328125 0.02344,0.102539 0.05274,0.2050781 0.09375,0.3046875 0.02344,0.1816406 0.04687,0.3925781 0.07031,0.6328125 0.0293,0.234375 0.07617,0.4804687 0.140625,0.7382812 0.06152,0.2519531 0.128906,0.4775391 0.199219,0.6796875 0.07031,0.1962891 0.152343,0.421875 0.246093,0.6796875 0.06152,0.2197266 0.131836,0.4277344 0.210938,0.6210938 0.08496,0.1875 0.178711,0.3457031 0.28125,0.46875 0,0.055664 0.01465,0.1230468 0.04687,0.1992187 0.03809,0.1494141 0.111328,0.28125 0.222656,0.3984375 l 0.02344,0.023437 c 0.05273,0.1113281 0.09668,0.234375 0.128906,0.375 0.03809,0.1347656 0.09375,0.2636719 0.164062,0.3867188 -0.03223,0 -0.03223,0.011719 0,0.035156 0.02344,0.079102 0.03809,0.1289063 0.04687,0.1523438 0.108399,0.140625 0.216797,0.2871093 0.328125,0.4335937 0.117188,0.1494141 0.234375,0.3134766 0.351563,0.4921875 0.123047,0.1640625 0.237304,0.35156252 0.339844,0.56250002 0.155273,0.26660157 0.263671,0.50976563 0.328125,0.7265625 z m -8.1679692,-0.0234375 c 0.070312,0.01757813 0.140625,0.0234375 0.2109375,0.0234375 0.070312,0 0.140625,0 0.2109375,0 0.2109375,0 0.4013671,-0.04980468 0.5742187,-0.15234375 0.038086,-0.0292969 0.070312,-0.0527344 0.09375,-0.0703125 0.023437,-0.0234375 0.049805,-0.046875 0.082031,-0.0703125 0,-0.140625 0.0293,-0.26953125 0.09375,-0.38671875 0,-0.005859 0,-0.0117188 0,-0.0117188 0.0059,0 0.01172,-0.005859 0.01172,-0.0234375 0.0293,-0.0615234 0.02637,-0.12011718 -0.01172,-0.17578125 -0.01758,-0.005859 -0.0293,-0.0146484 -0.03516,-0.0234375 -0.0088,-0.0146484 -0.01758,-0.0292969 -0.02344,-0.046875 -0.02344,-0.0527344 -0.02344,-0.0820312 0,-0.0820312 0.04687,-0.038086 0.09668,-0.061523 0.152344,-0.070312 0.07617,-0.023437 0.146483,-0.058594 0.210937,-0.1054688 0.06152,-0.046875 0.123046,-0.09668 0.1875,-0.1523437 0.09375,-0.084961 0.169921,-0.1904297 0.234375,-0.3164063 0.01465,-0.029297 0.02344,-0.058594 0.02344,-0.082031 0,-0.023437 0.0029,-0.046875 0.01172,-0.070312 0.02344,-0.052734 0.04101,-0.099609 0.05859,-0.140625 0.01465,-0.046875 0.03516,-0.1054688 0.05859,-0.1757813 0.02344,-0.140625 0.05859,-0.2724609 0.105469,-0.3984375 0.05273,-0.1230469 0.120117,-0.2460937 0.199219,-0.3632812 0.02344,-0.038086 0.04687,-0.073242 0.07031,-0.1054688 0.0293,-0.029297 0.05859,-0.064453 0.08203,-0.1054687 0.03809,-0.052734 0.07617,-0.099609 0.117188,-0.140625 0.03809,-0.046875 0.07031,-0.09668 0.09375,-0.1523438 0.03809,-0.038086 0.07031,-0.082031 0.09375,-0.1289062 0.01465,-0.014648 0.02344,-0.046875 0.02344,-0.09375 0,-0.076172 -0.02344,-0.1582032 -0.07031,-0.2460938 -0.04102,-0.09375 -0.111328,-0.1787109 -0.210938,-0.2578125 -0.05566,-0.046875 -0.146484,-0.09668 -0.269531,-0.1523437 -0.117187,-0.038086 -0.231445,-0.076172 -0.339844,-0.1171875 -0.111328,-0.038086 -0.228515,-0.070312 -0.351562,-0.09375 -0.06445,-0.014649 -0.123047,-0.023437 -0.175781,-0.023437 -0.05567,-0.00586 -0.114258,-0.026367 -0.175782,-0.058594 -0.0791,-0.00586 -0.134765,-0.017578 -0.164062,-0.035156 -0.032229,-0.023437 -0.079104,-0.046875 -0.1406697,-0.070312 C 9.6511946,-4.8098729 9.4842024,-4.9710056 9.375804,-5.2141697 9.367014,-5.2522557 9.355296,-5.2874117 9.340648,-5.3196384 9.331858,-5.3489354 9.32014,-5.3840914 9.305492,-5.4251072 9.287914,-5.4631932 9.282055,-5.5012792 9.282055,-5.5422947 c 0,-0.038086 -0.00586,-0.076172 -0.011719,-0.1171875 0,-0.046875 -0.067383,-0.070312 -0.1992188,-0.070312 -0.023437,-0.014648 -0.064453,-0.023437 -0.1171875,-0.023437 -0.087891,-0.014648 -0.1582031,-0.00586 -0.2109375,0.023437 -0.046875,0.070312 -0.09082,0.1728516 -0.1289062,0.3046875 -0.023437,0.064453 -0.052734,0.1230469 -0.082031,0.1757813 -0.023437,0.046875 -0.046875,0.102539 -0.070312,0.1640625 -0.041016,0.079101 -0.087891,0.1464843 -0.140625,0.1992187 -0.046875,0.087891 -0.1171875,0.1289063 -0.2109375,0.1289063 H 8.0633125 C 7.946125,-4.7717891 7.8318672,-4.763 7.7234688,-4.7337031 c -0.1113282,0.023437 -0.2167969,0.046875 -0.3164063,0.070312 -0.1259766,0.055664 -0.2519531,0.09375 -0.375,0.1171875 -0.1259766,0.017578 -0.2519531,0.035156 -0.375,0.058594 -0.1582031,0 -0.2695312,0.020508 -0.3398437,0.058594 -0.041016,0.023437 -0.1054688,0.082031 -0.1992188,0.1757812 -0.087891,0.064453 -0.1376953,0.1376953 -0.1523437,0.2226563 -0.023437,0.079101 -0.035156,0.1376953 -0.035156,0.1757812 0.00586,0.041016 0.026367,0.09082 0.058594,0.1523438 0.046875,0.140625 0.1201171,0.28125 0.2226562,0.421875 0.070312,0.1640625 0.140625,0.336914 0.2109375,0.515625 0.076172,0.1816406 0.1552734,0.3720703 0.234375,0.5742187 0.038086,0.079102 0.076172,0.1494141 0.1171875,0.2109375 0.038086,0.055664 0.076172,0.1347656 0.1171875,0.234375 0.038086,0.1171875 0.1113281,0.2285156 0.2226563,0.328125 0.029297,0.023437 0.082031,0.064453 0.1523437,0.1171875 0.052734,0.046875 0.099609,0.09375 0.140625,0.140625 0.046875,0.046875 0.087891,0.1025391 0.1289063,0.16406252 0.029297,0.0234375 0.046875,0.0527344 0.046875,0.0820313 0.00586,0.0234375 0.026367,0.046875 0.058594,0.0703125 0.046875,0.0644531 0.09375,0.12597657 0.140625,0.1875 0.052734,0.0556641 0.1113281,0.11425782 0.1757813,0.17578125 0.076172,0.0644531 0.1347656,0.1171875 0.1757812,0.1640625 0.038086,0.046875 0.1083984,0.0908203 0.2109375,0.12890625 0.140625,0.0644531 0.3076172,0.10546875 0.5039055,0.1289062 z M 8.1101875,-3.7258906 v 0.046875 c 0.014648,0.00879 0.049805,0.011719 0.1054688,0.011719 0.00586,0 0.014648,0.00586 0.023437,0.011719 0.00586,0.00879 0.017578,0.011719 0.035156,0.011719 0.099609,0 0.1816406,0.043945 0.2460938,0.1289063 0.099609,0.1171875 0.2519531,0.1640625 0.4570312,0.140625 0.076172,-0.023437 0.1289063,-0.052734 0.1523438,-0.09375 0.023437,-0.014648 0.038086,-0.026367 0.046875,-0.035156 0.00586,-0.014648 0.023437,-0.029297 0.046875,-0.046875 0.038086,-0.061523 0.087891,-0.082031 0.1523437,-0.058594 0.070312,0.017578 0.1230469,0.023437 0.1640625,0.023437 0.046875,0 0.09668,0 0.1523438,0 0.061523,-0.023437 0.082031,-0.00293 0.058594,0.058594 0,0.1171875 -0.035156,0.2285156 -0.1054687,0.328125 -0.00879,0.046875 -0.043945,0.1025391 -0.1054688,0.1640625 -0.1171875,0.09375 -0.2080078,0.1962891 -0.2695312,0.3046875 -0.055664,0.1113281 -0.1025391,0.234375 -0.140625,0.375 v 0.1054688 c 0,0.041016 0.017578,0.067383 0.058594,0.082031 0.038086,0 0.084961,0.011719 0.140625,0.035156 0.084961,0.032227 0.1669922,0.055664 0.2460938,0.070312 0.084961,0.017578 0.1757812,0.041016 0.2695312,0.070312 0.076172,0.023437 0.1201172,0.035156 0.1289063,0.035156 0,0.017578 0.00586,0.023437 0.023437,0.023437 -0.017578,0.00879 -0.029297,0.011719 -0.035156,0.011719 -0.070312,0 -0.1347656,0 -0.1875,0 -0.055664,-0.00586 -0.1171875,-0.011719 -0.1875,-0.011719 H 9.3758125 c -0.064453,0 -0.1230469,0 -0.1757812,0 -0.055664,0 -0.1171875,0.00586 -0.1875,0.011719 -0.064453,0.032227 -0.1171875,0.032227 -0.1640625,0 -0.070312,-0.00586 -0.1347657,-0.011719 -0.1875,-0.011719 -0.055664,0 -0.1142579,-0.00586 -0.1757813,-0.023437 h -0.375 c -0.023437,0 -0.035156,0 -0.035156,0 0.014648,-0.014648 0.026367,-0.023437 0.035156,-0.023437 0,-0.023438 0.035156,-0.049805 0.1054688,-0.082031 0.070312,-0.029297 0.1582031,-0.058594 0.2695312,-0.082031 0.029297,0 0.084961,-0.014648 0.1640625,-0.046875 0.052734,0 0.082031,-0.023437 0.082031,-0.070312 0.00586,-0.1318359 -0.023437,-0.2607422 -0.09375,-0.3867187 -0.032227,-0.038086 -0.067383,-0.076172 -0.1054688,-0.1171875 -0.032227,-0.038086 -0.064453,-0.076172 -0.09375,-0.1171875 -0.1025391,-0.1230469 -0.2050781,-0.2636719 -0.3046875,-0.421875 -0.017578,-0.061523 -0.023437,-0.1757813 -0.023437,-0.3398438 z m 1.1367188,2.2148437 c 0.052734,0.046875 0.099609,0.09082 0.140625,0.1289063 0.046875,0.041016 0.09668,0.087891 0.1523437,0.140625 0.00586,0.00879 0.011719,0.017578 0.011719,0.023437 0,0.00879 0.00586,0.020508 0.023437,0.035156 0,0.023437 -0.011719,0.046875 -0.035156,0.070312 -0.041016,0.017578 -0.099609,0.023437 -0.1757812,0.023437 -0.023437,0 -0.055664,-0.00293 -0.09375,-0.011719 -0.032227,-0.00586 -0.058594,-0.011719 -0.082031,-0.011719 -0.087891,-0.014648 -0.1757812,-0.014648 -0.2695312,0 -0.087891,0 -0.1582032,0.00879 -0.2109375,0.023437 -0.079102,0 -0.1376954,-0.00586 -0.1757813,-0.023437 -0.046875,-0.014648 -0.1230469,-0.046875 -0.2226562,-0.09375 -0.041016,-0.038086 -0.041016,-0.058594 0,-0.058594 0.046875,-0.023437 0.076172,-0.041016 0.09375,-0.058594 0.1171875,-0.038086 0.2285156,-0.09668 0.3398437,-0.1757812 0.029297,-0.00586 0.064453,-0.011719 0.1054688,-0.011719 z m 0,0"
       style="display:inline;fill:#231f20;fill-opacity:1;fill-rule:nonzero;stroke:none;stroke-width:0.622598"
       aria-label="󲅼"
       transform="matrix(1.6008089,0,0,1.6889324,1.6199933,23.991484)"
       clip-path="url(#clipPath101)"
       id="path304" />
  </g>
</svg>
