<?xml version="1.0" encoding="UTF-8" standalone="no"?>
<!-- Created with Inkscape (http://www.inkscape.org/) -->

<svg
   width="32"
   height="32"
   viewBox="0 0 32 32"
   version="1.1"
   id="svg1"
   xmlns="http://www.w3.org/2000/svg"
   xmlns:svg="http://www.w3.org/2000/svg">
  <defs
     id="defs1">
    <clipPath
       clipPathUnits="userSpaceOnUse"
       id="clipPath102">
      <path
         d="M 0,0 H 612 V 792 H 0 Z"
         transform="matrix(1,0,0,-1,-522.54901,119.22)"
         id="path102" />
    </clipPath>
  </defs>
  <g
     id="layer1">
    <path
       d="m 7.1004141,3.4328906 c -0.032227,-0.023437 -0.046875,-0.035156 -0.046875,-0.035156 0,-0.041016 -0.017578,-0.058594 -0.046875,-0.058594 -0.1171875,0 -0.1992188,0 -0.2460938,0 -0.046875,0 -0.082031,0.00293 -0.1054687,0.011719 -0.017578,0.014648 -0.032227,0.023437 -0.046875,0.023437 -0.00879,0 -0.023437,0.00586 -0.046875,0.023437 -0.041016,0 -0.067383,0.011719 -0.082031,0.035156 -0.00879,0.023437 -0.041016,0.049805 -0.09375,0.082031 -0.023437,0 -0.055664,0 -0.09375,0 -0.041016,0.00586 -0.070312,0.011719 -0.09375,0.011719 -0.041016,0.014649 -0.079102,0.023437 -0.1171875,0.023437 -0.041016,0 -0.079102,0.00293 -0.1171875,0.011719 -0.023437,0 -0.046875,-0.011719 -0.070312,-0.035156 0,0 -0.020508,-0.020508 -0.058594,-0.058594 -0.1171875,-0.023437 -0.2080078,-0.023437 -0.2695313,0 -0.032227,0.014648 -0.052734,0.026367 -0.058594,0.035156 0,0.014649 -0.011719,0.035156 -0.035156,0.058594 -0.017578,0.014648 -0.032227,0.023437 -0.046875,0.023437 -0.023437,0.014648 -0.052734,0.023437 -0.082031,0.023437 -0.032227,0 -0.058594,0.00293 -0.082031,0.011719 -0.041016,0.014649 -0.082031,0.023437 -0.1289062,0.023437 -0.046875,0 -0.1025391,0.00586 -0.1640625,0.023437 H 4.8504141 C 4.7097891,3.62625 4.5867422,3.6203906 4.4871328,3.6438281 L 4.4636953,3.6203906 C 4.4402578,3.5969531 4.4168203,3.5617969 4.3933828,3.5149219 4.3523672,3.4211719 4.2820547,3.3860156 4.1824453,3.4094531 c -0.023437,0 -0.052734,0.014649 -0.082031,0.046875 -0.046875,0.023437 -0.09082,0.052734 -0.1289063,0.09375 -0.023437,0.023437 -0.055664,0.035156 -0.09375,0.035156 -0.032226,0 -0.052734,0.011719 -0.058594,0.035156 0,0.052734 -0.029297,0.070312 -0.082031,0.046875 H 3.6785391 C 3.6375234,3.62625 3.5965078,3.6028125 3.5496328,3.5969531 c -0.041016,-0.00879 -0.087891,-0.020508 -0.140625,-0.035156 0,0 -0.011719,0.00586 -0.035156,0.023437 0,0.038086 -0.011719,0.058594 -0.035156,0.058594 -0.055664,0.014649 -0.1230469,0.023437 -0.1992187,0.023437 -0.046875,0.00586 -0.087891,0.014649 -0.1171875,0.023437 -0.032227,0.00586 -0.079102,0.011719 -0.140625,0.011719 0,0.014648 -0.011719,0.017578 -0.035156,0.011719 -0.017578,-0.00879 -0.023437,-0.020508 -0.023437,-0.035156 v -0.058594 c 0,0 0,-0.011719 0,-0.035156 0,-0.017578 -0.020508,-0.023437 -0.058594,-0.023437 -0.064453,0 -0.1025391,0.00586 -0.1171875,0.023437 0,0.023437 -0.00879,0.041016 -0.023437,0.058594 -0.00879,0.014649 -0.020508,0.035156 -0.035156,0.058594 -0.017578,0.046875 -0.046875,0.070312 -0.09375,0.070312 L 2.4715078,3.7610156 C 2.4861563,3.72 2.4949453,3.6848438 2.4949453,3.6555469 c 0,-0.023437 0.00293,-0.046875 0.011719,-0.070312 0,-0.017578 -0.00879,-0.032227 -0.023437,-0.046875 -0.00879,-0.00879 -0.017578,-0.00586 -0.023437,0.011719 -0.041016,0 -0.076172,0.011719 -0.1054688,0.035156 -0.00879,0 -0.029297,0.011719 -0.058594,0.035156 -0.00879,0.029297 -0.020508,0.061524 -0.035156,0.09375 -0.00879,0.038086 -0.020508,0.073242 -0.035156,0.1054688 -0.017578,0.023437 -0.043945,0.035156 -0.082031,0.035156 H 1.9793203 c -0.017578,0 -0.023437,-0.00879 -0.023437,-0.023437 V 3.7024219 c 0.038086,-0.1259766 0.011719,-0.2548828 -0.082031,-0.3867188 0,-0.00879 -0.011719,-0.029297 -0.035156,-0.058594 -0.023437,-0.046875 -0.035156,-0.09082 -0.035156,-0.1289063 -0.017578,-0.023437 -0.023437,-0.055664 -0.023437,-0.09375 0,-0.041016 -0.00586,-0.079101 -0.011719,-0.1171875 -0.017578,-0.023437 -0.023437,-0.055664 -0.023437,-0.09375 0,-0.032226 -0.011719,-0.067383 -0.035156,-0.1054687 -0.032227,-0.064453 -0.055664,-0.1376953 -0.070312,-0.2226563 -0.00879,-0.079101 -0.011719,-0.1699218 -0.011719,-0.2695312 0,-0.055664 -0.011719,-0.1347656 -0.035156,-0.234375 -0.023437,-0.046875 -0.041016,-0.1025391 -0.046875,-0.1640625 -0.00879,-0.055664 -0.020508,-0.1025391 -0.035156,-0.140625 -0.023437,-0.079102 -0.035156,-0.140625 -0.035156,-0.1875 0.014648,-0.064453 0.00293,-0.140625 -0.035156,-0.234375 -0.023437,-0.087891 -0.032226,-0.1582031 -0.023437,-0.2109375 0,-0.0556641 -0.011719,-0.13476565 -0.035156,-0.23437502 -0.023437,-0.046875 -0.035156,-0.0908203 -0.035156,-0.12890625 -0.041016,-0.1171875 -0.055664,-0.21972657 -0.046875,-0.3046875 0.014649,-0.0791016 0.014649,-0.14648438 0,-0.19921875 -0.00879,-0.08789063 -0.017578,-0.16992188 -0.023437,-0.24609375 -0.00879,-0.07617188 -0.011719,-0.14648438 -0.011719,-0.2109375 0,-0.046875 -0.00879,-0.0849609 -0.023437,-0.1171875 -0.00879,-0.14648438 -0.043945,-0.31054688 -0.1054688,-0.4921875 0,-0.0761719 0.011719,-0.12890623 0.035156,-0.15234373 0.00586,-0.09375 0.00586,-0.178711 0,-0.2578125 0,-0.023437 -0.00879,-0.046875 -0.023437,-0.070312 -0.00879,-0.029297 -0.011719,-0.058594 -0.011719,-0.082031 v -0.1171875 c -0.032226,-0.061523 -0.055664,-0.1464843 -0.070312,-0.2578125 -0.00879,-0.1171875 0,-0.2255859 0.023437,-0.328125 0.014649,-0.029297 0.017578,-0.052734 0.011719,-0.070312 -0.00879,-0.023437 -0.011719,-0.046875 -0.011719,-0.070312 -0.041016,-0.061523 -0.064453,-0.1289062 -0.070312,-0.1992187 0,-0.070312 0,-0.1347656 0,-0.1992188 -0.0322265,-0.052734 -0.046875,-0.099609 -0.046875,-0.140625 0,-0.046875 -0.005859,-0.09668 -0.0117188,-0.1523437 v -0.1640625 c 0.005859,-0.052734 0.005859,-0.1201172 0,-0.1992188 -0.0175781,-0.046875 -0.0322266,-0.09375 -0.046875,-0.140625 -0.008789,-0.052734 -0.0117188,-0.1171875 -0.0117188,-0.1875 -0.0175781,-0.061523 -0.0292969,-0.1435547 -0.0351563,-0.2460937 0,-0.099609 -0.0175781,-0.178711 -0.046875,-0.234375 -0.008789,-0.061523 -0.0117188,-0.1289063 -0.0117188,-0.1992188 0,-0.070312 0,-0.1347656 0,-0.1992187 -0.0175781,-0.052734 -0.0234375,-0.1054688 -0.0234375,-0.1523438 0,-0.052734 0,-0.1113281 0,-0.1757812 0,-0.061523 0.00293,-0.1230469 0.0117188,-0.1875 0.005859,-0.061523 0.00293,-0.1289063 -0.0117188,-0.1992188 -0.0410156,-0.070312 -0.0410156,-0.1435547 0,-0.2226562 0.0146484,-0.052734 0.0146484,-0.1113281 0,-0.1757813 -0.0234375,-0.046875 -0.0351563,-0.09668 -0.0351563,-0.1523437 0,-0.061523 0.0117188,-0.1640625 0.0351563,-0.3046875 0.0234375,-0.038086 0.0234375,-0.084961 0,-0.140625 -0.046875,-0.1083985 -0.046875,-0.2021485 0,-0.28125 0,-0.023437 0.00293,-0.038086 0.0117188,-0.046875 0.005859,-0.00586 0.0117188,-0.023437 0.0117188,-0.046875 0,-0.09375 0,-0.178711 0,-0.2578125 0.005859,-0.076172 0,-0.1582031 -0.0234375,-0.2460938 -0.0410156,-0.099609 -0.0322266,-0.1816406 0.0234375,-0.2460937 0.005859,-0.076172 0.005859,-0.1552735 0,-0.234375 0,-0.076172 0.0175781,-0.1347656 0.0585938,-0.1757813 0.0234375,-0.061523 0.046875,-0.140625 0.0703125,-0.234375 0.0234375,-0.09375 0.0498047,-0.1757812 0.0820312,-0.2460937 0.084961,-0.029297 0.1669922,-0.046875 0.2460938,-0.046875 0.023437,0 0.041016,0.00586 0.058594,0.011719 0.014649,0 0.026367,0.00879 0.035156,0.023437 0.038086,0.023437 0.082031,0.043945 0.1289062,0.058594 0.046875,0.00879 0.087891,0.029297 0.1289063,0.058594 0.061523,0 0.1230468,0.023437 0.1875,0.070312 0.061523,0.041016 0.1230468,0.09082 0.1875,0.1523438 0.061523,0.079102 0.1523437,0.1289062 0.2695312,0.1523437 0.061524,0.032227 0.1171875,0.058594 0.1640625,0.082031 0.052734,0.023437 0.1171875,0.046875 0.1875,0.070312 0.061524,0.032227 0.1201172,0.055664 0.1757813,0.070312 0.061523,0.00879 0.1289062,0.020508 0.1992187,0.035156 0.038086,0.00879 0.073242,0.020508 0.1054688,0.035156 0.029297,0.017578 0.061523,0.029297 0.09375,0.035156 0.140625,0.09375 0.2636718,0.1523438 0.375,0.1757813 0.09375,0.041016 0.1787109,0.079102 0.2578125,0.1171875 0.076172,0.041016 0.1523437,0.09082 0.2226562,0.1523437 0.038086,0.041016 0.09668,0.058594 0.1757813,0.058594 0.052734,0 0.1201172,0.023437 0.1992187,0.070312 0.046875,0.070312 0.1201172,0.1113281 0.2226563,0.1171875 0.023437,0.017578 0.052734,0.029297 0.09375,0.035156 0.038086,0 0.087891,0.017578 0.1523437,0.046875 0.09375,0.064453 0.1699219,0.1113282 0.234375,0.140625 0.061523,0.032227 0.1230469,0.058594 0.1875,0.082031 0.140625,0.079102 0.2636719,0.1640625 0.375,0.2578125 0.046875,0.046875 0.09375,0.1171875 0.140625,0.2109375 0.052734,0.087891 0.1113281,0.140625 0.1757813,0.1640625 l 0.1171875,0.058594 c 0.023437,0.032227 0.052734,0.055664 0.09375,0.070312 0.038086,0.017578 0.073242,0.041016 0.1054687,0.070312 0.061523,0.064453 0.1230469,0.1025391 0.1875,0.1171875 0.076172,0.023437 0.1201172,0.035156 0.1289063,0.035156 0.070312,0.023437 0.1552734,0.052734 0.2578125,0.082031 0.099609,0.023437 0.1699218,0.058594 0.2109375,0.1054688 0.023437,0.023437 0.061523,0.052734 0.1171875,0.082031 0.1230468,0.046875 0.2167968,0.099609 0.28125,0.1523438 0.023437,0.023437 0.046875,0.041016 0.070312,0.046875 0.029297,0.00879 0.058594,0.017578 0.082031,0.023437 0.052734,0.017578 0.09668,0.035156 0.1289063,0.058594 0.029297,0.017578 0.058594,0.035156 0.082031,0.058594 0.023437,0.023437 0.046875,0.043945 0.070312,0.058594 0.029297,0.017578 0.058594,0.035156 0.082031,0.058594 0.038086,0.023437 0.076172,0.046875 0.1171875,0.070312 0.038086,0.017578 0.076172,0.032227 0.1171875,0.046875 0.076172,0.041016 0.1347656,0.082031 0.1757812,0.1289062 0.00586,0.041016 0.029297,0.067383 0.070312,0.082031 0.076172,0.102539 0.1582031,0.1757812 0.2460938,0.2226562 0.052734,0.055664 0.1318359,0.1347657 0.234375,0.234375 0.099609,0.1025391 0.1640625,0.1845703 0.1875,0.2460938 0.029297,0.055664 0.058594,0.102539 0.082031,0.140625 0.023437,0.041016 0.052734,0.079102 0.09375,0.1171875 0.052734,0.041016 0.09668,0.087891 0.1289063,0.140625 0.029297,0.046875 0.058594,0.09375 0.082031,0.140625 0.023437,0.041016 0.046875,0.079102 0.070312,0.1171875 0.029297,0.041016 0.058594,0.079102 0.082031,0.1171875 0.038086,0.046875 0.064453,0.099609 0.082031,0.1523437 0.023437,0.1259766 0.061523,0.2080078 0.1171875,0.2460938 0.046875,0.055664 0.070312,0.1054687 0.070312,0.1523437 0,0.055664 0.00586,0.1025391 0.023437,0.140625 0.023438,0.041016 0.046875,0.079102 0.070313,0.1171875 0.09375,0.2431641 0.140625,0.4394532 0.140625,0.5859375 0,0.1025391 0.0293,0.2197266 0.09375,0.3515625 0.02344,0.064453 0.04101,0.1259766 0.05859,0.1875 0.01465,0.0556641 0.02637,0.11425784 0.03516,0.17578128 0.01465,0.0644531 0.02637,0.12597656 0.03516,0.1875 0.01465,0.0556641 0.02344,0.11425781 0.02344,0.17578125 0,0.0234375 0.01172,0.0761719 0.03516,0.15234375 0.01465,0.0791016 0.03516,0.17578125 0.05859,0.29296875 0,0.046875 0.0029,0.08789062 0.01172,0.12890625 0.0059,0.03808593 0.01172,0.08496093 0.01172,0.140625 0,0.0615234 0.0029,0.1171875 0.01172,0.1640625 0.0059,0.0527344 0.01465,0.10546875 0.02344,0.15234375 0.01465,0.0292969 0.02344,0.0644531 0.02344,0.10546875 0,0.0380859 0.0059,0.0732422 0.02344,0.10546875 0,0.0380859 0.01172,0.10839843 0.03516,0.2109375 0.0059,0.038086 0.01172,0.0966797 0.01172,0.17578127 v 0.1757812 c 0,0.1171875 0.01758,0.2167969 0.05859,0.3046875 0.0293,0.140625 0.0498,0.2753907 0.05859,0.4101563 0.01465,0.140625 0.01172,0.2841797 -0.01172,0.4335937 v 0.035156 c 0,0.1083984 -0.0088,0.1787109 -0.02344,0.2109375 -0.01758,0.029297 -0.03516,0.076172 -0.05859,0.140625 l -0.05859,0.1171875 c -0.02344,0.038086 -0.04687,0.058594 -0.07031,0.058594 h -0.210938 c -0.0791,0.00586 -0.149414,-0.00879 -0.210937,-0.046875 -0.03223,-0.00879 -0.07031,-0.011719 -0.117188,-0.011719 -0.055664,0.00586 -0.1347374,0.011719 -0.2343467,0.011719 h -0.24612 c -0.079102,0 -0.1289062,0.00586 -0.1523437,0.023437 -0.055664,0.014649 -0.1347657,0.023437 -0.234375,0.023437 h -0.39846 c -0.064453,0 -0.09375,0.023437 -0.09375,0.070312 0,0 -0.017578,0.011719 -0.046875,0.035156 -0.023437,0.029297 -0.043945,0.046875 -0.058594,0.046875 -0.087891,0.00586 -0.1699219,0.017578 -0.2460937,0.035156 -0.079102,0.023437 -0.1611328,0.049805 -0.2460938,0.082031 -0.017578,0 -0.035156,-0.017578 -0.058594,-0.046875 v -0.070312 c -0.017578,0 -0.023437,-0.00586 -0.023437,-0.011719 0,-0.00879 -0.00586,-0.011719 -0.011719,-0.011719 -0.041016,0 -0.067383,0.011719 -0.082031,0.035156 -0.017578,0.014649 -0.029297,0.026367 -0.035156,0.035156 0,0.014648 -0.00879,0.029297 -0.023437,0.046875 0,0.023437 -0.011719,0.035156 -0.035156,0.035156 -0.023437,0 -0.052734,0.00293 -0.082031,0.011719 -0.023437,0.00586 -0.046875,0.011719 -0.070312,0.011719 l -0.02344,-0.023432 C 7.6277578,3.2922656 7.60725,3.2805469 7.5926016,3.2805469 l -0.058594,0.058594 c -0.023437,0.023437 -0.055664,0.035156 -0.09375,0.035156 -0.1171875,0 -0.2314453,0.017578 -0.3398435,0.058594 z m 2.0625,-8.5195312 c -0.046875,-0.023437 -0.1230469,-0.041016 -0.2226563,-0.058594 -0.102539,-0.023437 -0.1816406,-0.046875 -0.234375,-0.070312 -0.1171875,-0.076172 -0.2402344,-0.1552734 -0.3632812,-0.234375 -0.1171875,-0.084961 -0.2285157,-0.1787109 -0.328125,-0.28125 -0.023437,-0.029297 -0.052734,-0.058594 -0.082031,-0.082031 -0.032227,-0.023437 -0.067383,-0.049805 -0.1054687,-0.082031 -0.041016,-0.1083984 -0.079102,-0.1787109 -0.1171875,-0.2109375 -0.041016,-0.029297 -0.082031,-0.061523 -0.1289063,-0.09375 -0.032227,-0.00586 -0.058594,-0.017578 -0.082031,-0.035156 -0.023437,-0.014648 -0.046875,-0.035156 -0.070312,-0.058594 C 7.372875,-6.3551953 7.3142813,-6.405 7.2527578,-6.4460156 7.1883047,-6.4841016 7.1385,-6.5339062 7.1004141,-6.5983594 c -0.032227,-0.023437 -0.067383,-0.041016 -0.1054688,-0.058594 -0.032227,-0.014648 -0.1054687,-0.035156 -0.2226562,-0.058594 -0.079102,-0.023437 -0.1464844,-0.046875 -0.1992188,-0.070312 -0.102539,-0.076172 -0.1875,-0.1230468 -0.2578125,-0.140625 -0.1728515,-0.052734 -0.3398437,-0.1318359 -0.5039062,-0.234375 -0.041016,-0.023437 -0.076172,-0.038086 -0.1054688,-0.046875 -0.032227,-0.014648 -0.067383,-0.035156 -0.1054687,-0.058594 -0.1025391,-0.029297 -0.1875,-0.073242 -0.2578125,-0.1289063 -0.070312,-0.052734 -0.1376953,-0.1171875 -0.1992188,-0.1875 -0.079102,-0.084961 -0.2167969,-0.1582031 -0.4101562,-0.2226562 -0.064453,-0.038086 -0.099609,-0.09668 -0.1054688,-0.1757813 -0.032227,-0.061523 -0.064453,-0.1113281 -0.09375,-0.1523437 -0.032227,-0.038086 -0.058594,-0.076172 -0.082031,-0.1171875 -0.055664,-0.038086 -0.1054688,-0.070312 -0.1523438,-0.09375 -0.09375,-0.014648 -0.1640625,-0.061523 -0.2109375,-0.140625 -0.041016,-0.029297 -0.099609,-0.073242 -0.1757812,-0.1289063 -0.064453,-0.014648 -0.1142578,-0.046875 -0.1523438,-0.09375 -0.055664,-0.038086 -0.1054687,-0.073242 -0.1523437,-0.1054687 -0.041016,-0.029297 -0.087891,-0.064453 -0.140625,-0.1054688 -0.064453,-0.038086 -0.1259766,-0.082031 -0.1875,-0.1289062 -0.064453,-0.046875 -0.1347657,-0.084961 -0.2109375,-0.1171875 -0.017578,-0.014648 -0.032227,-0.026367 -0.046875,-0.035156 -0.00879,-0.00586 -0.020508,-0.023437 -0.035156,-0.046875 -0.064453,-0.038086 -0.1289062,-0.073242 -0.1992187,-0.1054687 -0.070312,-0.029297 -0.1376953,-0.058594 -0.1992188,-0.082031 -0.041016,-0.014648 -0.067383,-0.041016 -0.082031,-0.082031 -0.023437,-0.046875 -0.035156,-0.084961 -0.035156,-0.1171875 -0.00879,-0.00586 -0.011719,-0.026367 -0.011719,-0.058594 0.00586,-0.046875 0.014648,-0.099609 0.023437,-0.1640625 0.00586,-0.070312 0.023437,-0.140625 0.046875,-0.2109374 0.023437,-0.03809 0.041016,-0.08203 0.058594,-0.128907 0.023437,-0.05273 0.061524,-0.09961 0.1171875,-0.140625 0.099609,-0.09961 0.1992188,-0.199218 0.2929688,-0.292968 0.09375,-0.09961 0.1757812,-0.202149 0.2460937,-0.304688 0.046875,-0.09375 0.1083985,-0.175781 0.1875,-0.246094 0.061524,-0.07031 0.1113281,-0.134765 0.1523438,-0.199218 0.038086,-0.06152 0.084961,-0.123047 0.140625,-0.1875 0.029297,-0.06152 0.070312,-0.134766 0.1171875,-0.222657 0.046875,-0.08496 0.09375,-0.164062 0.140625,-0.234375 0.029297,-0.0293 0.049805,-0.05859 0.058594,-0.08203 0.014648,-0.02344 0.035156,-0.04687 0.058594,-0.07031 0.038086,-0.03809 0.076172,-0.08203 0.1171875,-0.128907 0.038086,-0.04687 0.076172,-0.08789 0.1171875,-0.128906 0.052734,-0.03809 0.1171875,-0.09668 0.1875,-0.175781 0.070312,-0.0293 0.140625,-0.05859 0.2109375,-0.08203 0.070312,-0.0293 0.1757812,-0.05859 0.3164062,-0.08203 0.070312,-0.0293 0.140625,-0.05859 0.2109375,-0.08203 0.070312,-0.02344 0.1435547,-0.04687 0.2226563,-0.07031 0.099609,-0.07031 0.2021484,-0.108399 0.3046875,-0.117188 0.052734,-0.02344 0.1054687,-0.04101 0.1523437,-0.05859 0.052734,-0.02344 0.1083985,-0.05273 0.1640625,-0.09375 0.070312,-0.03809 0.1435547,-0.07617 0.2226563,-0.117187 0.076172,-0.03809 0.1552734,-0.07031 0.234375,-0.09375 0.046875,-0.0293 0.087891,-0.04687 0.1289062,-0.04687 0.038086,-0.0059 0.1083985,-0.01465 0.2109375,-0.02344 0.099609,-0.0059 0.1699219,-0.02344 0.2109375,-0.04687 0.029297,-0.01465 0.049805,-0.02344 0.058594,-0.02344 0.014648,0 0.035156,-0.0029 0.058594,-0.01172 0.023437,0 0.046875,-0.0029 0.070312,-0.01172 0.029297,-0.0059 0.058594,-0.01172 0.082031,-0.01172 0.099609,0 0.1992187,-0.0029 0.2929687,-0.01172 0.099609,-0.01465 0.2021485,-0.0293 0.3046875,-0.04687 h 0.1523438 c 0.1552734,0.02344 0.3046875,0 0.4453125,-0.07031 0.038086,-0.01465 0.099609,-0.02344 0.1875,-0.02344 0.1552734,0 0.2695312,0 0.3398437,0 0.076172,0 0.1523438,-0.01172 0.2226563,-0.03516 0.046875,-0.0293 0.1201172,-0.04687 0.2226562,-0.04687 0.09375,0.04101 0.1816406,0.05566 0.2695313,0.04687 h 0.023437 c 0.023437,0.0088 0.041016,0.01172 0.058594,0.01172 0.023437,0 0.046875,0.0088 0.070312,0.02344 0.076172,0.02344 0.1552732,0.04394 0.2343752,0.05859 0.07617,0.0088 0.155273,0.03223 0.234375,0.07031 0.164062,0.0791 0.354492,0.164063 0.574219,0.257813 0.08496,0.04101 0.155273,0.07031 0.210937,0.09375 0.06152,0.02344 0.117188,0.04687 0.164063,0.07031 l 0.234375,0.117188 c 0.117187,0.06445 0.225586,0.164062 0.328125,0.304687 0.02344,0.04102 0.0498,0.0791 0.08203,0.117188 0.0293,0.04101 0.06152,0.0791 0.09375,0.117187 0.0059,0.02344 0.01172,0.05566 0.01172,0.09375 -0.0088,0.06445 -0.01758,0.128906 -0.02344,0.199219 -0.0088,0.06445 -0.02344,0.125976 -0.04687,0.1875 -0.03223,0.0791 -0.05566,0.152344 -0.07031,0.222656 -0.0088,0.07031 -0.02051,0.137695 -0.03516,0.199219 0,0.125976 -0.03223,0.240234 -0.09375,0.339844 -0.04101,0.111328 -0.0791,0.219726 -0.117187,0.328125 -0.03223,0.102539 -0.08203,0.205078 -0.152344,0.304687 -0.0088,0.03223 -0.01758,0.06738 -0.02344,0.105469 -0.0088,0.04102 -0.02051,0.07031 -0.03516,0.09375 -0.02344,0.04687 -0.04101,0.09375 -0.04687,0.140625 0,0.04687 -0.01758,0.102539 -0.04687,0.164062 -0.04687,0.2578132 -0.111328,0.4804694 -0.1875,0.6679694 -0.01758,0.032227 -0.03223,0.067383 -0.04687,0.1054688 -0.0088,0.032227 -0.02344,0.064453 -0.04687,0.09375 -0.0791,0.064453 -0.117187,0.1171875 -0.117187,0.1640625 0,0.070312 -0.05274,0.1582031 -0.152344,0.2578125 -0.02344,0.023437 -0.04687,0.046875 -0.07031,0.070312 -0.01758,0.017578 -0.03223,0.035156 -0.04687,0.058594 -0.02344,0.055664 -0.05274,0.1230469 -0.08203,0.1992188 -0.02344,0.064453 -0.05566,0.1259765 -0.09375,0.1875 -0.04687,0.079102 -0.08789,0.149414 -0.117187,0.2109375 -0.02344,0.079102 -0.04687,0.1582031 -0.07031,0.234375 -0.01758,0.070312 -0.0293,0.1347656 -0.03516,0.1875 -0.01758,0.041016 -0.02344,0.099609 -0.02344,0.1757812 -0.01758,0.064453 -0.03223,0.1289063 -0.04687,0.1992188 -0.0088,0.070312 -0.02344,0.1376953 -0.04687,0.1992187 -0.01758,0.017578 -0.03516,0.067383 -0.05859,0.1523438 -0.02344,0.079102 -0.05274,0.1289062 -0.08203,0.1523437 -0.07031,0.1025391 -0.114258,0.1875 -0.1289067,0.2578125 -0.017578,0.023437 -0.032227,0.046875 -0.046875,0.070312 -0.00879,0.017578 -0.020508,0.035156 -0.035156,0.058594 -0.064453,0.079102 -0.1230469,0.1933594 -0.1757813,0.3398437 -0.046875,0.140625 -0.102539,0.2666016 -0.1640625,0.375 -0.023437,0.032227 -0.052734,0.070312 -0.082031,0.1171875 -0.023437,0.046875 -0.055664,0.09082 -0.09375,0.1289063 -0.079102,0.087891 -0.1376953,0.196289 -0.1757813,0.328125 -0.00879,0.00879 -0.017578,0.020508 -0.023437,0.035156 -0.00879,0.017578 -0.020508,0.029297 -0.035156,0.035156 z m 3.5507809,-5.5664064 c 0.0293,0.05566 0.05859,0.09082 0.08203,0.105469 0.01465,0.04102 0.05859,0.08203 0.128906,0.128906 0.09961,0.05566 0.19043,0.134766 0.269531,0.234375 0.06152,0.111328 0.09961,0.164063 0.117188,0.164063 0.03809,0.09375 0.07324,0.1757809 0.105468,0.2460934 0.0293,0.070312 0.05859,0.1376953 0.08203,0.1992187 0.05273,0.1025391 0.09375,0.1728516 0.117187,0.2109375 0.0293,0.023437 0.04687,0.055664 0.04687,0.09375 0.0059,0.032227 0.02344,0.058594 0.04687,0.082031 0.05273,0.087891 0.09961,0.1728515 0.140625,0.2578125 0.03809,0.087891 0.08203,0.1816406 0.128906,0.28125 0.0293,0.041016 0.06152,0.082031 0.09375,0.1289062 0.0293,0.041016 0.05859,0.079102 0.08203,0.1171875 0.03809,0.064453 0.06445,0.140625 0.08203,0.234375 0.0059,0.041016 0.01172,0.087891 0.01172,0.140625 0,0.046875 0.0059,0.09082 0.02344,0.1289063 0.02344,0.064453 0.03809,0.1289062 0.04687,0.1992187 0.01465,0.070312 0.0293,0.1376953 0.04687,0.1992188 0.01465,0.079102 0.02344,0.1523437 0.02344,0.2226562 0.0059,0.070312 0.01758,0.1464844 0.03516,0.2226563 0,0.070312 0.01172,0.1728515 0.03516,0.3046875 0.0293,0.102539 0.06152,0.1992187 0.09375,0.2929687 0.0293,0.09375 0.05859,0.1962891 0.08203,0.3046875 0.02344,0.1728516 0.05274,0.3222657 0.09375,0.4453125 0.03809,0.1259766 0.07031,0.2402344 0.09375,0.3398438 v 0.058594 c 0.07031,0.1494141 0.105469,0.2900391 0.105469,0.421875 0,0.023437 0.0029,0.046875 0.01172,0.070312 0.01465,0.023437 0.02637,0.052734 0.03516,0.082031 0.01465,0.041016 0.02344,0.102539 0.02344,0.1875 v 0.1289062 c 0,0.09375 0.0029,0.1933594 0.01172,0.2929688 0.01465,0.102539 0.0293,0.243164 0.04687,0.421875 0.01465,0.055664 0.02344,0.1054687 0.02344,0.1523437 0,0.041016 0.01172,0.087891 0.03516,0.140625 v 0.09375 c 0.02344,0.079102 0.02344,0.1699219 0,0.2695313 0,0.079102 0.0059,0.1347656 0.02344,0.1640625 0,0.079102 -0.0088,0.1376953 -0.02344,0.1757812 0,0.023437 -0.0088,0.055664 -0.02344,0.09375 -0.0088,0.032227 -0.01172,0.067383 -0.01172,0.1054688 0.02344,0.046875 0.02344,0.09082 0,0.1289062 -0.01758,0.041016 -0.03223,0.082031 -0.04687,0.1289063 0,0.032227 -0.02051,0.046875 -0.05859,0.046875 -0.03223,0.00879 -0.06738,0.011719 -0.105469,0.011719 -0.04101,0 -0.07617,0.00879 -0.105468,0.023437 -0.02344,-0.023437 -0.03516,-0.041016 -0.03516,-0.058594 0,-0.061523 -0.04394,-0.073242 -0.128906,-0.035156 -0.01758,0.00879 -0.06445,0.041016 -0.140625,0.09375 -0.06445,0.041016 -0.105469,0.052734 -0.128906,0.035156 -0.04102,0 -0.07617,0.00879 -0.105469,0.023437 -0.02344,0.017578 -0.04687,0.035156 -0.07031,0.058594 -0.04687,0.079102 -0.102539,0.1171875 -0.164063,0.1171875 -0.05566,0 -0.111328,-0.014648 -0.164062,-0.046875 -0.04102,0 -0.07031,-0.023437 -0.09375,-0.070312 -0.02344,-0.038086 -0.06738,-0.058594 -0.128907,-0.058594 -0.05566,0.017578 -0.146484,0.023437 -0.269531,0.023437 -0.04102,0 -0.06738,0.035156 -0.08203,0.1054687 0,0.055664 -0.04102,0.1054688 -0.117188,0.1523438 -0.02344,0 -0.05859,0 -0.105468,0 -0.04102,0 -0.07617,0.017578 -0.105469,0.046875 -0.06445,0 -0.117188,-0.038086 -0.164063,-0.1171875 -0.03223,-0.038086 -0.05273,-0.038086 -0.05859,0 -0.01758,0.046875 -0.03516,0.099609 -0.05859,0.1523437 -0.02344,0.017578 -0.06445,0.023437 -0.117188,0.023437 -0.125976,0.041016 -0.228515,0.00586 -0.304687,-0.1054687 -0.04102,-0.070312 -0.0791,-0.070312 -0.117188,0 -0.02344,0.079101 -0.07031,0.1376953 -0.140625,0.1757812 -0.04687,0.055664 -0.08203,0.087891 -0.105468,0.09375 -0.01758,0.017578 -0.0293,0.023437 -0.03516,0.023437 -0.0088,0 -0.01758,0.00879 -0.02344,0.023437 -0.05566,0 -0.08789,-0.014648 -0.09375,-0.046875 0,-0.023437 -0.0293,-0.035156 -0.08203,-0.035156 l -0.03516,0.023437 c -0.03223,0.046875 -0.05859,0.087891 -0.08203,0.1171875 -0.0791,0.023437 -0.137695,0.035156 -0.175781,0.035156 0,-0.014648 -0.0059,-0.023437 -0.01172,-0.023437 0,-0.00586 0,-0.017578 0,-0.035156 0.0059,-0.023437 0.01172,-0.049805 0.01172,-0.082031 0,-0.038086 0.0059,-0.070312 0.02344,-0.09375 0,-0.046875 -0.0088,-0.076172 -0.02344,-0.09375 -0.03223,-0.1171875 -0.05859,-0.2167968 -0.08203,-0.3046875 -0.01758,-0.09375 -0.04102,-0.1699218 -0.07031,-0.234375 -0.02344,-0.084961 -0.0791,-0.1582031 -0.164062,-0.2226562 -0.117188,-0.140625 -0.208008,-0.2753906 -0.269532,-0.4101563 -0.05566,-0.140625 -0.114257,-0.28125 -0.175781,-0.421875 -0.02344,-0.046875 -0.03516,-0.076172 -0.03516,-0.09375 -0.03223,-0.099609 -0.05859,-0.1787109 -0.08203,-0.234375 -0.02344,-0.023437 -0.04395,-0.058594 -0.05859,-0.1054687 -0.0088,-0.052734 -0.01172,-0.140625 -0.01172,-0.2578125 0,-0.061523 -0.01758,-0.1201172 -0.04687,-0.1757813 -0.04102,-0.070312 -0.06445,-0.1464843 -0.07031,-0.234375 0,-0.084961 0.0029,-0.1640625 0.01172,-0.234375 0.01465,-0.1318359 0.05274,-0.2578125 0.117188,-0.375 0.0293,-0.084961 0.06152,-0.1669922 0.09375,-0.2460937 0.03809,-0.076172 0.07617,-0.1523438 0.117187,-0.2226563 0.09961,-0.1552734 0.169922,-0.4013672 0.210938,-0.7382812 0,-0.084961 0.03809,-0.1669922 0.117187,-0.2460938 0.09375,-0.061523 0.155274,-0.1318359 0.1875,-0.2109375 0.0293,-0.061523 0.06152,-0.1230468 0.09375,-0.1875 0.0293,-0.070312 0.06445,-0.1347656 0.105469,-0.1992187 0.06152,-0.084961 0.09375,-0.1582031 0.09375,-0.2226563 0.02344,-0.076172 0.0498,-0.1435547 0.08203,-0.1992187 0.0059,-0.038086 0.01465,-0.073242 0.02344,-0.1054688 0.01465,-0.038086 0.02344,-0.076172 0.02344,-0.1171875 0.01465,-0.076172 0.0293,-0.1757812 0.04687,-0.2929687 0.02344,-0.1171875 0.04687,-0.2050781 0.07031,-0.2695313 0.0293,-0.046875 0.0498,-0.09375 0.05859,-0.140625 0.01465,-0.046875 0.02637,-0.099609 0.03516,-0.1640625 0.0293,-0.1230468 0.07031,-0.2460937 0.117187,-0.3632812 0.01465,-0.023437 0.02637,-0.041016 0.03516,-0.058594 0.0059,-0.023437 0.01465,-0.049805 0.02344,-0.082031 0.02344,-0.061523 0.04687,-0.1201172 0.07031,-0.1757813 0.0293,-0.052734 0.05859,-0.1171875 0.08203,-0.1875 0.0293,-0.061523 0.05273,-0.1230468 0.07031,-0.1875 0.01465,-0.061523 0.04102,-0.140625 0.08203,-0.234375 0.01465,-0.023437 0.02637,-0.052734 0.03516,-0.09375 0.0059,-0.038086 0.02344,-0.082031 0.04687,-0.1289063 0.01465,-0.0293 0.02344,-0.06152 0.02344,-0.09375 0,-0.03809 0.0029,-0.07324 0.01172,-0.105469 0.02344,-0.06152 0.04687,-0.117187 0.07031,-0.164062 0.0293,-0.05274 0.05859,-0.111328 0.08203,-0.175782 0.0293,-0.02344 0.0498,-0.03516 0.05859,-0.03516 0.03809,0 0.08789,0.01758 0.152343,0.04687 z m 0,0"
       style="display:inline;fill:#000000;fill-opacity:1;fill-rule:nonzero;stroke:none;stroke-width:0.623424"
       aria-label="󲆀"
       transform="matrix(1.8252558,0,0,1.8252558,1.4998649,25.091895)"
       clip-path="url(#clipPath102)"
       id="path305"
       fill="currentColor" />
  </g>
</svg>
