<?xml version="1.0" encoding="UTF-8" standalone="no"?>
<!-- Created with Inkscape (http://www.inkscape.org/) -->

<svg
   width="32"
   height="32"
   viewBox="0 0 32 32"
   version="1.1"
   id="svg1"
   xmlns="http://www.w3.org/2000/svg"
   xmlns:svg="http://www.w3.org/2000/svg">
  <defs
     id="defs1">
    <clipPath
       clipPathUnits="userSpaceOnUse"
       id="clipPath65">
      <path
         d="M 0,0 H 612 V 792 H 0 Z"
         transform="matrix(1,0,0,-1,-122.529,133.86)"
         id="path65" />
    </clipPath>
  </defs>
  <g
     id="layer1">
    <path
       d="m 0.17510156,-4.8284766 c -0.0644531,-0.2255859 -0.0322266,-0.4570312 0.09375,-0.6914062 0.10839844,-0.1875 0.24609375,-0.328125 0.41015625,-0.421875 0.16992188,-0.09375 0.35449219,-0.1582031 0.55078129,-0.1992188 0.1933593,-0.038086 0.3925781,-0.058594 0.5976562,-0.058594 0.2109375,0 0.4042969,0 0.5859375,0 0.2109375,0 0.4160156,0.00879 0.6210938,0.023437 0.2021484,0.017578 0.4101562,0.041016 0.6210937,0.070312 0.413086,0.070312 0.8203125,0.1699219 1.21875,0.2929687 0.4042969,0.1171875 0.8144531,0.2460938 1.2304688,0.3867188 0.75,0.2753906 1.5,0.6064453 2.25,0.9960937 0.75,0.3925782 1.4326172,0.8525391 2.0507809,1.3828125 0.249024,0.2109375 0.46875,0.4628907 0.65625,0.75 0.1875,0.28125 0.322266,0.5859375 0.410157,0.9140625 0.04687,0.1494141 0.05859,0.2900391 0.03516,0.42187504 -0.01758,0.12597656 -0.05274,0.24609375 -0.105469,0.36328125 -0.05566,0.1171875 -0.117187,0.234375 -0.1875,0.3515625 -0.07031,0.11132812 -0.140625,0.22851562 -0.210937,0.3515625 -0.158204,0.24902344 -0.360352,0.43359375 -0.609375,0.55078125 -0.243164,0.1171875 -0.4980473,0.20507812 -0.7617192,0.26953125 -0.196289,0.046875 -0.3925781,0.0761719 -0.5859375,0.09375 -0.196289,0.023437 -0.3925781,0.035156 -0.5859375,0.035156 C 8.0618203,1.0367578 7.6633828,1.0016016 7.2649453,0.94886719 6.8665078,0.89320313 6.4856484,0.78773438 6.1282266,0.63246094 5.9319375,0.54457031 5.721,0.45082031 5.4954141,0.35121094 c -0.2285157,-0.10253906 -0.4189453,-0.22851563 -0.5742188,-0.375 -0.041016,0.1171875 -0.055664,0.24609375 -0.046875,0.38671875 0.00586,0.140625 0.00586,0.27246094 0,0.3984375 0,0.0234375 -0.00586,0.0732422 -0.011719,0.15234375 -0.00879,0.0761719 -0.017578,0.15527346 -0.023437,0.23437496 -0.00879,0.084961 -0.011719,0.1640625 -0.011719,0.234375 0,0.070312 0.00293,0.1171875 0.011719,0.140625 C 4.830375,1.5142969 4.7952188,1.4557031 4.7336953,1.3473047 4.6692422,1.2447656 4.5842813,1.1129297 4.4758828,0.94886719 4.3733438,0.78480469 4.2532266,0.59144531 4.1126016,0.37464844 3.9778359,0.16371094 3.8372109,-0.05308594 3.6907266,-0.28160156 3.5501016,-0.5071875 3.4094766,-0.72984375 3.2688516,-0.94957031 3.1282266,-1.1751562 2.9993203,-1.3773047 2.8821328,-1.5589453 2.7649453,-1.7464453 2.6624063,-1.9046484 2.5774453,-2.0394141 2.4983438,-2.17125 2.4485391,-2.2620703 2.4251016,-2.3089453 c -0.023437,-0.052734 -0.032227,-0.084961 -0.023437,-0.09375 0.00586,-0.014648 0.041016,-0.029297 0.1054687,-0.046875 0.046875,-0.00586 0.178711,-0.023437 0.3984375,-0.046875 0.225586,-0.029297 0.4980469,-0.064453 0.8203125,-0.1054688 0.319336,-0.046875 0.6621094,-0.09375 1.03125,-0.140625 0.375,-0.046875 0.7207031,-0.087891 1.0429688,-0.1289062 0.3193359,-0.046875 0.5917968,-0.082031 0.8203125,-0.1054688 0.2255859,-0.029297 0.3632812,-0.049805 0.4101562,-0.058594 -0.017578,0.055664 -0.046875,0.1113281 -0.09375,0.1640625 -0.041016,0.046875 -0.087891,0.09375 -0.140625,0.140625 -0.046875,0.046875 -0.099609,0.09082 -0.1523437,0.1289062 -0.046875,0.041016 -0.082031,0.082031 -0.1054688,0.1289063 -0.1347656,0.087891 -0.2695312,0.1875 -0.4101562,0.3046875 -0.1347657,0.1113281 -0.2402344,0.2226562 -0.3164063,0.3398437 0.076172,0.064453 0.1640625,0.1259766 0.2578125,0.1875 0.09375,0.055664 0.178711,0.1171875 0.2578125,0.1875 0.4277344,0.2519532 0.8847656,0.4394532 1.3710938,0.56250004 0.4921875,0.1171875 0.984375,0.19628906 1.4765625,0.234375 0.2490234,0.008789 0.5068359,0.0117188 0.7734375,0.0117188 0.2724614,0 0.5302734,-0.0292969 0.7734384,-0.09375 C 10.634086,-0.98765625 10.50518,-1.2308203 10.335258,-1.4651953 10.171195,-1.6995703 9.9778359,-1.9163672 9.7610391,-2.1214453 9.5501016,-2.3323828 9.3274453,-2.5228125 9.0930703,-2.6956641 8.8586953,-2.8655859 8.62725,-3.0237891 8.4016641,-3.1644141 7.8391641,-3.5394141 7.2649453,-3.8733984 6.6790078,-4.1722266 6.0930703,-4.4769141 5.4749063,-4.7376562 4.8274453,-4.9573828 4.4290078,-5.1038672 4.0247109,-5.2298437 3.6204141,-5.3323828 3.2131875,-5.4319922 2.8030313,-5.5110937 2.3899453,-5.5667578 2.2786172,-5.5901953 2.1585,-5.6048437 2.0266641,-5.6136328 c -0.1259766,-0.014648 -0.2548828,-0.023437 -0.3867188,-0.023437 -0.1259765,0 -0.2519531,0.00879 -0.375,0.023437 -0.1171875,0.017578 -0.2314453,0.043945 -0.33984374,0.082031 -0.15820312,0.055664 -0.26953125,0.1376954 -0.33984375,0.2460938 -0.0703125,0.1113281 -0.11132812,0.2314453 -0.1171875,0.3632812 0,0.1259766 0.0175781,0.2578125 0.0585938,0.3984375 0.046875,0.1347657 0.10546875,0.2578125 0.17578125,0.375 0.15527344,0.2988282 0.35742194,0.5712891 0.60937494,0.8203125 0.099609,0.1113282 0.2109376,0.2314454 0.3281251,0.3632813 0.1171875,0.1347656 0.2460937,0.2226562 0.3867188,0.2695312 C 1.736625,-2.8362891 1.4641641,-3.0003516 1.2063516,-3.1878516 0.95439844,-3.3812109 0.74053125,-3.6155859 0.56182031,-3.8909766 0.47392969,-4.0228125 0.39189844,-4.1663672 0.31572656,-4.3245703 0.24541406,-4.4886328 0.19853906,-4.655625 0.17510156,-4.8284766 Z m 0,0"
       style="display:inline;fill:#000000;fill-opacity:1;fill-rule:nonzero;stroke:none;stroke-width:0.401323"
       aria-label="󲆍"
       transform="matrix(2.7900867,0,0,2.7900867,-0.26845985,22.523899)"
       clip-path="url(#clipPath65)"
       id="path276"
       fill="currentColor" />
  </g>
</svg>
