<?xml version="1.0" encoding="UTF-8" standalone="no"?>
<!-- Created with Inkscape (http://www.inkscape.org/) -->

<svg
   width="32"
   height="32"
   viewBox="0 0 32 32"
   version="1.1"
   id="svg1"
   xmlns="http://www.w3.org/2000/svg"
   xmlns:svg="http://www.w3.org/2000/svg">
  <defs
     id="defs1">
    <clipPath
       clipPathUnits="userSpaceOnUse"
       id="clipPath150">
      <path
         d="M 0,0 H 612 V 792 H 0 Z"
         transform="matrix(1,0,0,-1,-519.61501,385.44801)"
         id="path150" />
    </clipPath>
  </defs>
  <g
     id="layer1">
    <path
       d="m 18.316641,0.75073437 -2.320313,0.24609375 c -0.140625,0 -0.275391,0.00293 -0.398437,0.0117188 -0.125977,0.014648 -0.243164,0.029297 -0.351563,0.046875 0.07031,0.3339843 0.123047,0.6386718 0.164063,0.9140625 0.04687,0.2724609 0.08203,0.5068359 0.105468,0.703125 0.0293,0.2255859 0.0498,0.421875 0.05859,0.5859375 -0.266601,-0.1113282 -0.556641,-0.234375 -0.867187,-0.375 C 14.402574,2.7429219 14.115465,2.6140156 13.851793,2.4968281 13.529527,2.3562031 13.22191,2.2155781 12.926012,2.0749531 L 10.593984,4.1491719 C 10.561758,3.8913594 10.523672,3.651125 10.476797,3.4343281 10.435781,3.2146016 10.385977,3.0153828 10.324453,2.8366719 10.26,2.4147969 10.175039,2.0163594 10.066641,1.6413594 9.9641016,1.2722187 9.8586328,0.99682812 9.7502344,0.80932812 c -0.017578,-0.0322266 -0.023437,-0.0556641 -0.023437,-0.0703125 0,-0.008789 -0.00879,-0.0234375 -0.023437,-0.046875 -0.023437,-0.10253906 -0.043945,-0.1640625 -0.058594,-0.1875 -0.00879,-0.0322266 -0.011719,-0.046875 -0.011719,-0.046875 -0.017578,-0.008789 -0.023437,-0.0322266 -0.023437,-0.0703125 0,-0.0175781 -0.00879,-0.0234375 -0.023437,-0.0234375 C 9.4455469,0.0183125 9.3166406,-0.26000781 9.1994531,-0.47973438 9.088125,-0.69653125 8.9914453,-0.87817188 8.9064844,-1.0187969 8.7951562,-1.1594219 8.6984766,-1.27075 8.6135156,-1.3586406 l 5.2968754,-0.6914063 c 0.257812,0.3222656 0.480468,0.6650391 0.667968,1.03125 0.19336,0.36035159 0.354493,0.73828127 0.480469,1.13671877 0.216797,-0.04101562 0.416016,-0.08203125 0.597656,-0.12890625 0.178711,-0.046875 0.339844,-0.08203125 0.480469,-0.10546875 0.146484,-0.0380859 0.292969,-0.0703125 0.433594,-0.09375 C 16.342031,-0.89575 16.207266,-1.4934063 16.160391,-2.0031719 c -0.04687,-0.5068359 -0.05274,-0.9257812 -0.01172,-1.2539062 0.05273,-0.3984375 0.152344,-0.7382813 0.292969,-1.0195313 -1.283204,0.1582031 -2.478516,0.3105469 -3.585938,0.4570313 -0.486328,0.064453 -0.972656,0.1347656 -1.464844,0.2109375 -0.486328,0.079102 -0.949218,0.1523437 -1.3945309,0.2226562 -0.4453125,0.070312 -0.8554687,0.1376953 -1.2304687,0.1992188 -0.3691407,0.064453 -0.6738282,0.1230468 -0.9140625,0.1757812 -0.4921875,0.1025391 -0.8613282,0.2460938 -1.1015625,0.4335938 -0.2431641,0.1875 -0.4160157,0.3691406 -0.515625,0.5390625 -0.1171875,0.2197265 -0.1611328,0.4453125 -0.1289063,0.6796875 0,0.2197265 0.00293,0.44238279 0.011719,0.66796872 0.014648,0.20507813 0.029297,0.42773438 0.046875,0.66796875 0.023437,0.234375 0.052734,0.46289063 0.09375,0.69140625 0.00586,0.17871094 0.1347656,0.31054688 0.3867187,0.39843748 0.2490235,0.09375 0.7207031,0.1289063 1.4179688,0.1054688 0.1699218,-0.017578 0.3164062,-0.032227 0.4335937,-0.046875 0.1171875,-0.00879 0.2841797,-0.032227 0.5039063,-0.070312 0.099609,0.1640625 0.1933593,0.3222656 0.28125,0.4804687 0.09375,0.1552735 0.1699218,0.2636719 0.234375,0.328125 0.014648,0.038086 0.023437,0.076172 0.023437,0.1171875 0.00586,0.038086 0.011719,0.09375 0.011719,0.1640625 C 9.181875,2.198 8.8889062,2.2419453 8.6721094,2.2741719 8.4523828,2.3034687 8.2326562,2.3210469 8.0158594,2.3210469 7.6232812,2.3356953 7.2951562,2.3269062 7.0314844,2.2976094 6.7648828,2.2741719 6.5422266,2.2185078 6.3635156,2.1335469 6.1906641,2.0544453 6.0471094,1.9372578 5.9299219,1.7819844 5.8127344,1.6325703 5.6955469,1.4421406 5.5783594,1.2077656 5.5080469,1.0817891 5.3498437,0.80346875 5.1096094,0.37573437 4.8752344,-0.052 4.5998437,-0.55297656 4.2892969,-1.1242656 3.9758203,-1.7014141 3.6447656,-2.3107891 3.2932031,-2.9523906 2.9416406,-3.5910625 2.6135156,-4.1828594 2.3088281,-4.7219219 2.01,-5.2668438 1.7580469,-5.723875 1.5471094,-6.0930156 1.3420312,-6.4680156 1.2307031,-6.6730938 1.2072656,-6.7141094 1.0812891,-6.8928203 1.0021875,-7.2795391 0.97289062,-7.8742656 c -0.0234375,-0.5917969 -0.005859,-1.3066407 0.0585938,-2.1445314 0.052734,-0.445312 0.1523437,-0.796875 0.2929687,-1.054687 0.140625,-0.263672 0.2929688,-0.46875 0.4570313,-0.609375 0.1787109,-0.155274 0.3867187,-0.263672 0.6210937,-0.328125 l 10.6640629,-1.476563 c 0.06152,0 0.111328,0.0088 0.152343,0.02344 0.04687,0.0088 0.08496,0.02051 0.117188,0.03516 0.03809,0.02344 0.06152,0.04395 0.07031,0.05859 0.881836,1.546875 1.675782,2.935546 2.378907,4.1601559 0.295898,0.524414 0.588867,1.0371093 0.878906,1.5351562 0.287109,0.5009766 0.544922,0.9492188 0.773437,1.3476563 0.225586,0.3984375 0.410157,0.7207031 0.550782,0.9609375 0.146484,0.243164 0.222656,0.3691406 0.222656,0.375 0.02344,0.055664 0.04687,0.1054687 0.07031,0.1523437 0.02344,0.041016 0.02344,0.079102 0,0.1171875 -0.02344,0.041016 -0.08789,0.076172 -0.1875,0.1054688 -0.09375,0.032227 -0.234375,0.064453 -0.421875,0.09375 l -0.574218,0.1640625 c -0.09375,0.1347656 -0.172852,0.2753906 -0.234375,0.421875 -0.05566,0.140625 -0.09375,0.28125 -0.117188,0.421875 -0.04687,0.1582031 -0.0791,0.3251953 -0.09375,0.5039062 0.342774,0.6035156 0.644531,1.1542969 0.902344,1.6523438 0.117187,0.2197265 0.225586,0.43066404 0.328125,0.63281247 0.09961,0.20507813 0.19043,0.39257813 0.269531,0.5625 0.08496,0.164062505 0.155274,0.29882813 0.210938,0.41015625 0.06152,0.1171875 0.09375,0.1875 0.09375,0.2109375 0,0.1171875 -0.02051,0.19335938 -0.05859,0.234375 -0.02344,0.0234375 -0.05274,0.0410156 -0.08203,0.0585938 z m 0,0"
       style="display:inline;fill:#231f20;fill-opacity:1;fill-rule:nonzero;stroke:none;stroke-width:0.622184"
       aria-label="󲅲"
       transform="matrix(1.7051693,0,0,1.7273553,-0.55739912,24.065346)"
       clip-path="url(#clipPath150)"
       id="path337" />
  </g>
</svg>
