<?xml version="1.0" encoding="UTF-8" standalone="no"?>
<svg
   viewBox="0 0 1024 1024"
   fill="currentColor"
   width="32"
   height="32"
   version="1.1"
   id="svg1"
   sodipodi:docname="book.svg"
   inkscape:version="1.4.3 (0d15f75, 2025-12-25)"
   xmlns:inkscape="http://www.inkscape.org/namespaces/inkscape"
   xmlns:sodipodi="http://sodipodi.sourceforge.net/DTD/sodipodi-0.dtd"
   xmlns="http://www.w3.org/2000/svg"
   xmlns:svg="http://www.w3.org/2000/svg">
  <defs
     id="defs1" />
  <sodipodi:namedview
     id="namedview1"
     pagecolor="#ffffff"
     bordercolor="#000000"
     borderopacity="0.25"
     inkscape:showpageshadow="2"
     inkscape:pageopacity="0.0"
     inkscape:pagecheckerboard="0"
     inkscape:deskcolor="#d1d1d1"
     inkscape:zoom="26.03125"
     inkscape:cx="15.980792"
     inkscape:cy="15.980792"
     inkscape:window-width="1920"
     inkscape:window-height="1051"
     inkscape:window-x="3191"
     inkscape:window-y="-9"
     inkscape:window-maximized="1"
     inkscape:current-layer="svg1" />
  <path
     d="m 683.51286,104.004 c 0,0 -457.321,62.749 -481.313,62.893 -23.995,0.134 -85.24599,10.204 -87.13299,63.134 l -7.747,140.44 c -0.134,26.998 6.242,45.72 17.56399,57.617 l 191.047,334.102 c 10.014,13.591 44.41,43.299 65.211,40.829 l 133.038,-19.834 -7.216,136.811 c 47.848,-26.462 120.798,-104.689 146.101,-157.813 l 5.474,-0.688 c 29.509,41.172 87.324,74.07 128.881,94.681 l -12.476,-112.092 84.127,-12.673 c 11.313,-8.27 75.038,-2.416 48.911,-47.408 -26.221,-44.801 -44.025,-80.114 -70.099,-115.865 -19.451,-26.414 -15.478,-56.651 19.303,-51.765 l 35.513,2.084 c 27.572,-10.014 24.384,-21.72 23.272,-39.476 l -195.979,-340.345 c -12.097,-30.092 -24.384,-34.058 -36.481,-34.594 z m 106.968,412.714 c -19.643,56.313 -16.447,115.09 19.45,164.049 l -61.582,8.856 c -1.893,-28.738 -10.204,-16.447 -12.476,-38.173 l -15.869,-84.854 -265.693,42.331 4.156,70.872 36.087,-4.156 -3.43,51.622 -99.03,14.51 c -16.979,0.824 -30.378,-7.542 -36.087,-36.087 l 4.156,-86.164 c -3.003,-22.688 3.771,-41.557 48.575,-45.72 z"
     id="path1" />
</svg>
