<svg viewBox="0 0 1024 1024" fill="currentColor" width="32" height="32" xmlns="http://www.w3.org/2000/svg" xmlns:xlink="http://www.w3.org/1999/xlink">
    <path d="M687.225 202.772c0 0-457.321 62.749-481.313 62.893-23.995 0.134-85.246 10.204-87.133 63.134l-7.747 140.44c-0.134 26.998 6.242 45.72 17.564 57.617l191.047 334.102c10.014 13.591 44.41 43.299 65.211 40.829l133.038-19.834-7.216 136.811c47.848-26.462 120.798-104.689 146.101-157.813l5.474-0.688c29.509 41.172 87.324 74.070 128.881 94.681l-12.476-112.092 84.127-12.673c11.313-8.27 75.038-2.416 48.911-47.408-26.221-44.801-44.025-80.114-70.099-115.865-19.451-26.414-15.478-56.651 19.303-51.765l35.513 2.084c27.572-10.014 24.384-21.72 23.272-39.476l-195.979-340.345c-12.097-30.092-24.384-34.058-36.481-34.594zM794.193 615.486c-19.643 56.313-16.447 115.090 19.45 164.049l-61.582 8.856c-1.893-28.738-10.204-16.447-12.476-38.173l-15.869-84.854-265.693 42.331 4.156 70.872 36.087-4.156-3.43 51.622-99.030 14.51c-16.979 0.824-30.378-7.542-36.087-36.087l4.156-86.164c-3.003-22.688 3.771-41.557 48.575-45.72z" />
</svg>