<?xml version="1.0" encoding="UTF-8" standalone="no"?>
<!-- Created with Inkscape (http://www.inkscape.org/) -->

<svg
   width="32"
   height="32"
   viewBox="0 0 32 32"
   version="1.1"
   id="svg1"
   xmlns="http://www.w3.org/2000/svg"
   xmlns:svg="http://www.w3.org/2000/svg">
  <defs
     id="defs1">
    <clipPath
       clipPathUnits="userSpaceOnUse"
       id="clipPath147">
      <path
         d="M 0,0 H 612 V 792 H 0 Z"
         transform="matrix(1,0,0,-1,-522.48301,413.65301)"
         id="path147" />
    </clipPath>
  </defs>
  <g
     id="layer1">
    <path
       d="m 13.195711,-8.2161406 v 0.023437 c -0.0088,0.2285156 -0.03223,0.4570312 -0.07031,0.6914062 -0.04101,0.2285157 -0.105468,0.4892578 -0.199218,0.7851563 -0.06445,0.2050781 -0.140625,0.421875 -0.234375,0.65625 -0.08789,0.2285156 -0.19336,0.3984375 -0.316407,0.515625 l -0.02344,0.09375 c -0.08789,0.140625 -0.169922,0.28125 -0.246094,0.421875 -0.0791,0.140625 -0.149414,0.28125 -0.210937,0.421875 -0.205078,0.3222656 -0.404297,0.6855469 -0.597657,1.0898437 -0.18164,0.3515625 -0.257812,0.7119141 -0.234375,1.078125 0.0293,0.3603516 0.08496,0.7207032 0.164063,1.078125 0.0059,0.023437 0.01465,0.058594 0.02344,0.1054688 0.0059,0.046875 0.02344,0.09375 0.04687,0.140625 0.03809,0.102539 0.07617,0.21093748 0.117188,0.32812498 0.02344,0.10253906 0.05273,0.21679687 0.09375,0.33984375 0.03809,0.1171875 0.07617,0.22851562 0.117187,0.328125 -0.102539,0.0234375 -0.193359,0.05566406 -0.269531,0.09375 -0.0791,0.03808593 -0.158203,0.07324218 -0.234375,0.10546875 -0.02344,0.0058594 -0.04395,0.01171875 -0.05859,0.01171875 -0.0088,0 -0.02344,0.01171875 -0.04687,0.03515625 C 10.500398,0.32096875 9.9613359,0.59928906 9.3988359,0.95964063 8.8363359,1.3170625 8.3002031,1.6862031 7.7933672,2.0612031 c -0.5009766,0.375 -0.9375,0.7177735 -1.3125,1.03125 -0.3691406,0.3105469 -0.6181641,0.5214844 -0.75,0.6328125 -0.032227,0 -0.055664,-0.017578 -0.070312,-0.046875 0,-0.064453 0,-0.1582031 0,-0.28125 0,-0.1171875 -0.00879,-0.2080078 -0.023437,-0.2695312 C 5.6136797,3.0338594 5.5961016,2.9313203 5.5902422,2.8229219 5.5814531,2.7203828 5.5668047,2.6119844 5.5433672,2.4947969 5.5257891,2.3541719 5.5111406,2.2194063 5.4964922,2.0963594 5.4877031,1.9791719 5.4730547,1.8678438 5.4496172,1.7682344 5.3939531,1.5572969 5.3470781,1.387375 5.3089922,1.2643281 5.2767656,1.1471406 5.2211016,1.0328828 5.1449297,0.92448438 5.0804766,0.83073438 5.0072344,0.72819531 4.9222734,0.61979688 4.8343828,0.50846875 4.7699297,0.403 4.7230547,0.30339063 c -0.140625,-0.28125 -0.2197266,-0.44824219 -0.234375,-0.50390625 -0.017578,-0.0615234 0.014648,-0.12304688 0.09375,-0.1875 0.076172,-0.0761719 0.1669922,-0.15527344 0.2695312,-0.234375 0.099609,-0.0849609 0.140625,-0.140625 0.1171875,-0.1640625 -0.023437,-0.0380859 -0.055664,-0.0585938 -0.09375,-0.0585938 -0.041016,0 -0.087891,0 -0.140625,0 -0.00879,0 -0.011719,0.005859 -0.011719,0.0117188 0,0.008789 -0.00879,0.0117188 -0.023437,0.0117188 l -0.3046875,0.0351563 c -0.1582031,0.0234375 -0.3164063,0.0527344 -0.4804688,0.0820313 -0.1640625,0.0322266 -0.3251953,0.0644531 -0.4804687,0.09375 -0.1025391,0.008789 -0.1845703,0.0175781 -0.2460938,0.0234375 -0.064453,0.008789 -0.1289062,0.0117188 -0.1992187,0.0117188 -0.2519531,0 -0.4804688,-0.0585938 -0.6914063,-0.17578125 -0.1728515,-0.0996094 -0.2871093,-0.21679688 -0.3398437,-0.35156253 -0.055664,-0.1318359 -0.082031,-0.2871093 -0.082031,-0.46875 v -0.3867187 c 0.029297,-0.178711 0.049805,-0.3310547 0.058594,-0.4570313 0.014648,-0.1318361 -0.029298,-0.2607424 -0.128907,-0.3867189 C 1.7259844,-2.8870391 1.6908281,-2.972 1.6996172,-3.0598906 c 0.00586,-0.09375 0.029297,-0.1582031 0.070312,-0.1992188 0.023437,-0.029297 0.035156,-0.049805 0.035156,-0.058594 0,-0.014648 -0.032226,-0.052734 -0.09375,-0.1171875 -0.032226,-0.023437 -0.055664,-0.058594 -0.070312,-0.1054688 -0.00879,-0.046875 -0.023437,-0.082031 -0.046875,-0.1054687 -0.023437,-0.140625 -0.020508,-0.234375 0.011719,-0.28125 0.038086,-0.052734 0.09375,-0.1640625 0.1640625,-0.328125 0.038086,-0.09375 0.049805,-0.178711 0.035156,-0.2578125 -0.041016,-0.076172 -0.1113281,-0.1289063 -0.2109375,-0.1523438 -0.041016,-0.00586 -0.082031,-0.011719 -0.1289062,-0.011719 -0.041016,0 -0.079102,-0.00586 -0.1171875,-0.023437 -0.2578125,-0.038086 -0.43945314,-0.1904297 -0.53906251,-0.4570313 -0.09375,-0.2402343 -0.0644531,-0.4482422 0.09375,-0.6210937 0.0849609,-0.140625 0.16992191,-0.2636719 0.25781251,-0.375 0.09375,-0.1171875 0.1904297,-0.234375 0.2929687,-0.3515625 0.1083985,-0.1171875 0.2109375,-0.2285156 0.3046875,-0.3398438 0.09375,-0.1083984 0.1875,-0.2167968 0.28125,-0.328125 l 0.070312,-0.09375 c 0.061524,-0.09375 0.1289063,-0.1787109 0.1992188,-0.2578125 0.070312,-0.076172 0.1347656,-0.1582031 0.1992187,-0.2460937 0.038086,-0.076172 0.038086,-0.1669922 0,-0.2695313 -0.023437,-0.046875 -0.041016,-0.09668 -0.046875,-0.1523437 -0.1582031,-0.2167969 -0.2197265,-0.4160156 -0.1875,-0.5976563 0.029297,-0.1875 0.076172,-0.3574218 0.140625,-0.515625 l 0.023437,-0.058594 c 0.023437,-0.061524 0.049805,-0.140625 0.082031,-0.234375 0.029297,-0.099609 0.064453,-0.2021485 0.1054687,-0.3046875 0.09375,-0.287109 0.1875,-0.568359 0.28125,-0.84375 0.09375,-0.28125 0.2109375,-0.509765 0.3515625,-0.691406 0.2578125,-0.328125 0.5097657,-0.597656 0.7617188,-0.808594 0.2490234,-0.210937 0.5273437,-0.380859 0.8320312,-0.515625 0.5859375,-0.225586 1.116211,-0.386718 1.59375,-0.480468 0.4833985,-0.09961 0.9667969,-0.152344 1.453125,-0.152344 0.4746094,0 0.9550782,0.04687 1.4414063,0.140625 h 0.035156 c 0.8818353,0.219726 1.6054683,0.550781 2.1679683,0.996094 0.5625,0.439453 0.972656,0.960937 1.230469,1.570312 0.140625,0.398438 0.237305,0.8027341 0.292969,1.207031 0.06152,0.3984375 0.105468,0.7851562 0.128906,1.1601562 z m 0,0"
       style="display:inline;fill:#000000;fill-opacity:1;fill-rule:nonzero;stroke:none;stroke-width:0.603994"
       aria-label="󲅰"
       transform="matrix(1.8729031,0,0,1.8729031,2.9351419,25.056013)"
       clip-path="url(#clipPath147)"
       id="path335"
       fill="currentColor" />
  </g>
</svg>
