<?xml version="1.0" encoding="UTF-8" standalone="no"?>
<!-- Created with Inkscape (http://www.inkscape.org/) -->

<svg
   width="32"
   height="32"
   viewBox="0 0 32 32"
   version="1.1"
   id="svg1"
   xmlns="http://www.w3.org/2000/svg"
   xmlns:svg="http://www.w3.org/2000/svg">
  <defs
     id="defs1">
    <clipPath
       clipPathUnits="userSpaceOnUse"
       id="clipPath157">
      <path
         d="M 0,0 H 612 V 792 H 0 Z"
         transform="matrix(1,0,0,-1,-521.90701,357.24301)"
         id="path157" />
    </clipPath>
  </defs>
  <g
     id="layer1">
    <path
       d="M 4.452375,-6.8673516 C 4.4113594,-6.9611016 4.3234688,-7.1134453 4.1828438,-7.3243828 4.0480781,-7.5353203 3.8957344,-7.7638359 3.7258125,-8.0157891 3.5529609,-8.2736016 3.37425,-8.5343438 3.18675,-8.8009453 c -0.1816406,-0.272461 -0.3486328,-0.5214844 -0.5039062,-0.75 -0.00879,-0.052734 -0.032227,-0.1347656 -0.070312,-0.2460938 -0.041016,-0.1083984 -0.041016,-0.2050779 0,-0.2929689 0.023437,-0.117187 0.09375,-0.246094 0.2109375,-0.386719 0.1230468,-0.146484 0.328125,-0.27539 0.609375,-0.386718 0.2167968,-0.08496 0.3925781,-0.117188 0.5273437,-0.09375 0.1318359,0.01758 0.2460938,0.07031 0.3398438,0.164062 0.099609,0.08789 0.1875,0.19336 0.2578125,0.316406 0.070312,0.117188 0.1435546,0.228516 0.2226562,0.328125 0.070312,0.0791 0.1875,0.2519536 0.3515625,0.5156254 0.1699219,0.2578125 0.3398438,0.5332032 0.5039063,0.8203125 0.1699218,0.2900391 0.3193359,0.5507813 0.4453125,0.7851563 0.1230468,0.234375 0.1875,0.3632812 0.1875,0.3867187 0,0.055664 0.00586,0.1347657 0.023437,0.234375 0.023437,0.1025391 0.038086,0.2109375 0.046875,0.328125 0.00586,0.1171875 -0.00586,0.2402344 -0.035156,0.3632813 -0.032227,0.1171875 -0.1054687,0.2285156 -0.2226562,0.328125 C 5.8615547,-6.2843438 5.671125,-6.2286797 5.5070625,-6.2228203 5.343,-6.2140313 5.1935859,-6.2374688 5.06175,-6.2931328 4.9357734,-6.3546563 4.8215156,-6.4366875 4.7219063,-6.5392266 4.6193672,-6.6388359 4.5285469,-6.7501641 4.452375,-6.8673516 Z m 1.7226563,-2.203125 C 6.0959297,-9.2111016 5.9582344,-9.4044609 5.764875,-9.6564141 5.577375,-9.9054375 5.3810859,-10.16032 5.1789375,-10.418133 c -0.2285156,-0.295898 -0.4804687,-0.600586 -0.7617187,-0.914062 -0.032227,-0.05274 -0.035156,-0.134766 -0.011719,-0.246094 0.029297,-0.108399 0.082031,-0.216797 0.1523438,-0.328125 0.070312,-0.108399 0.1640625,-0.210938 0.28125,-0.304688 0.1230468,-0.09375 0.2636718,-0.158203 0.421875,-0.199218 0.3105468,-0.131836 0.5654296,-0.158203 0.7617187,-0.08203 0.2021484,0.0791 0.3632813,0.208008 0.4804688,0.386719 0.099609,0.09375 0.2138671,0.251953 0.3398437,0.46875 0.1318359,0.210938 0.2490234,0.433594 0.3515625,0.667969 0.1230469,0.266601 0.2460938,0.55957 0.3632813,0.878906 -0.1025391,0.06445 -0.1992188,0.1259767 -0.2929688,0.1875002 -0.070312,0.064453 -0.140625,0.1259765 -0.2109375,0.1875 -0.064453,0.055664 -0.1054687,0.1113281 -0.1289062,0.1640625 -0.023437,0.046875 -0.017578,0.1289062 0.023437,0.2460937 0.046875,0.1171875 0.1083984,0.2431641 0.1875,0.375 0.076172,0.1259766 0.1552734,0.2431641 0.234375,0.3515625 0.084961,0.1025391 0.1552734,0.1728516 0.2109375,0.2109375 0.070312,0.041016 0.1582031,0.064453 0.2695312,0.070312 0.1083984,0.00879 0.2138672,0.00879 0.3164063,0 0.099609,-0.00586 0.1875,-0.011719 0.2578125,-0.011719 0.070312,0 0.1054687,0.020508 0.1054687,0.058594 0,0.064453 -0.079102,0.1494141 -0.234375,0.2578125 -0.1494141,0.1113282 -0.3867187,0.1962891 -0.7148437,0.2578125 -0.1582032,0.032227 -0.3134766,0.00879 -0.46875,-0.070312 C 6.9631172,-7.8810234 6.8195625,-7.9864922 6.6789375,-8.1212578 6.5441719,-8.2530938 6.4328438,-8.4025078 6.3390938,-8.5665703 6.2512031,-8.7364922 6.1984688,-8.9064141 6.1750313,-9.0704766 Z m 1.8046875,-1.2539064 c -0.055664,-0.09961 -0.1376954,-0.246094 -0.2460938,-0.433594 -0.1025391,-0.193359 -0.2109375,-0.392578 -0.328125,-0.597656 -0.140625,-0.234375 -0.2900391,-0.483398 -0.4453125,-0.75 -0.041016,-0.06152 -0.070312,-0.134765 -0.09375,-0.222656 -0.023437,-0.09375 -0.029297,-0.1875 -0.011719,-0.28125 0.023437,-0.09961 0.076172,-0.202149 0.1640625,-0.304688 0.09375,-0.09961 0.2285156,-0.193359 0.4101562,-0.28125 0.2871094,-0.155273 0.5419922,-0.213867 0.7617188,-0.175781 0.2255859,0.04102 0.3925781,0.09082 0.5039062,0.152344 0.1464844,0.04102 0.2958984,0.125976 0.4453125,0.257812 0.1464844,0.125977 0.2724609,0.257813 0.375,0.398438 0.1230469,0.164062 0.2460938,0.348633 0.3632813,0.550781 l -0.1171875,0.04687 c -0.087891,0.02344 -0.1464844,0.02344 -0.1757813,0 -0.023437,-0.01465 -0.055664,-0.04102 -0.09375,-0.08203 -0.041016,-0.03809 -0.079102,-0.07617 -0.1171875,-0.117188 L 9.2219063,-12.31657 c 0.014648,0.0791 0.029297,0.149414 0.046875,0.210937 0.023437,0.117188 0.00586,0.246094 -0.046875,0.386719 -0.00879,0.04687 -0.067383,0.161133 -0.1757813,0.339844 -0.1113281,0.18164 -0.2314453,0.363281 -0.3632812,0.550781 -0.1347657,0.1875 -0.2695313,0.339844 -0.4101563,0.457031 -0.1347656,0.111328 -0.2314453,0.125977 -0.2929687,0.04687 z M 7.264875,0.69124219 C 7.1154609,0.47151562 6.9631172,0.23714062 6.8078438,-0.01188281 6.6496406,-0.26969531 6.5031563,-0.52750781 6.3625313,-0.78532031 6.0959297,-0.90836719 5.8498359,-1.0431328 5.62425,-1.1837578 5.4133125,-1.3009453 5.1935859,-1.4239922 4.968,-1.5587578 4.7482734,-1.6993828 4.5637031,-1.8400078 4.4172188,-1.9806328 4.3058906,-2.1827813 4.1594063,-2.4054375 3.9719063,-2.6486016 3.7902656,-2.8888359 3.5998359,-3.1290703 3.3976875,-3.3634453 3.2013984,-3.6036797 3.0109688,-3.8263359 2.8234688,-4.0314141 2.6418281,-4.2335625 2.5070625,-4.397625 2.4133125,-4.5236016 c -0.1816406,-0.234375 -0.3691406,-0.4394531 -0.5625,-0.6210937 -0.1875,-0.1875 -0.3339844,-0.4013672 -0.4335937,-0.6445313 -0.064453,-0.140625 -0.1171875,-0.3046875 -0.1640625,-0.4921875 -0.046875,-0.1933593 -0.087891,-0.3779297 -0.1171875,-0.5507812 -0.055664,-0.1875 -0.1025391,-0.3867188 -0.14062505,-0.5976563 -0.0644531,-0.1699218 -0.10253906,-0.3457031 -0.1171875,-0.5273437 -0.008789,-0.1552735 0.00293,-0.3222656 0.0351563,-0.5039063 0.0380859,-0.1875 0.14355465,-0.3574218 0.31640625,-0.515625 0.3574218,-0.2578125 0.6152343,-0.3925781 0.7734375,-0.4101562 0.1640625,-0.023437 0.3515625,0.055664 0.5625,0.234375 0.140625,0.1171875 0.3076171,0.3164062 0.5039062,0.5976562 0.2021484,0.28125 0.3925781,0.5712891 0.5742188,0.8671875 0.2167968,0.3457032 0.4365234,0.7148438 0.65625,1.1132813 0.076172,0.149414 0.1318359,0.290039 0.1640625,0.421875 0.029297,0.102539 0.035156,0.2080078 0.011719,0.3164062 -0.017578,0.1025391 -0.09375,0.1728516 -0.234375,0.2109375 -0.1582031,0.1025391 -0.3105469,0.1582032 -0.4570312,0.1640625 -0.1494141,0.00879 -0.2871093,-0.00586 -0.4101563,-0.046875 -0.1259766,-0.046875 -0.2402344,-0.09668 -0.3398437,-0.1523437 -0.1025391,-0.061523 -0.1875,-0.1054688 -0.2578125,-0.1289063 -0.064453,0 -0.1611329,-0.064453 -0.2929688,-0.1992187 -0.1347656,-0.140625 -0.2695312,-0.2929688 -0.4101562,-0.4570313 -0.1640625,-0.1933593 -0.3515625,-0.4160156 -0.5625,-0.6679687 l 0.6328125,1.125 -0.4921875,-0.1640625 c 0.140625,0.070312 0.2724609,0.1347656 0.3984375,0.1875 0.099609,0.046875 0.2021484,0.099609 0.3046875,0.1523437 0.099609,0.055664 0.1699218,0.09375 0.2109375,0.1171875 0.052734,0.064453 0.1523437,0.1816407 0.2929687,0.3515625 0.140625,0.1640625 0.2929688,0.3339844 0.4570313,0.5039063 0.1640625,0.1728515 0.3310546,0.3222656 0.5039062,0.4453125 0.1787109,0.1171875 0.3310547,0.1699219 0.4570313,0.1523437 0.1171875,-0.00586 0.234375,-0.058594 0.3515625,-0.1523437 0.1230468,-0.099609 0.2402343,-0.2050781 0.3515625,-0.3164063 0.1171875,-0.1171875 0.2285156,-0.2255859 0.3398437,-0.328125 C 5.4279609,-5.147625 5.5305,-5.2062188 5.62425,-5.2150078 c 0.1640625,-0.029297 0.3339844,-0.1289063 0.515625,-0.2929688 0.1787109,-0.1640625 0.4013672,-0.3164062 0.6679688,-0.4570312 0.1640625,-0.178711 0.3076171,-0.3046875 0.4335937,-0.375 0.1230469,-0.070312 0.2226563,-0.1083985 0.2929688,-0.1171875 0.070312,-0.00586 0.1201171,0.00879 0.1523437,0.046875 0.038086,0.041016 0.058594,0.079102 0.058594,0.1171875 0.029297,0.140625 0.029297,0.3398437 0,0.5976562 -0.023437,0.2578125 -0.023437,0.5097657 0,0.75 0.014648,0.140625 0.046875,0.2050782 0.09375,0.1875 0.052734,-0.014648 0.1171875,-0.076172 0.1875,-0.1875 0.070312,-0.1171875 0.1464843,-0.2636718 0.234375,-0.4453125 0.09375,-0.1787109 0.1816406,-0.3779297 0.2695312,-0.5976562 0.076172,-0.319336 0.1640625,-0.5625 0.2578125,-0.7265625 0.099609,-0.1640625 0.2021484,-0.2929688 0.3046875,-0.3867188 0.099609,-0.099609 0.2050781,-0.1904297 0.3164063,-0.2695312 0.1083984,-0.084961 0.2138671,-0.1992188 0.3164062,-0.3398438 0.2021484,-0.2021484 0.3632813,-0.2958984 0.4804683,-0.28125 0.117188,0.00879 0.225586,0.043945 0.328125,0.1054688 0.03809,0.023437 0.117188,0.043945 0.234375,0.058594 0.123047,0.017578 0.249024,0.029297 0.375,0.035156 0.140625,0.017578 0.307617,0.023437 0.503907,0.023437 -0.19629,-0.099609 -0.372071,-0.2109375 -0.527344,-0.328125 -0.140625,-0.084961 -0.266602,-0.178711 -0.375,-0.28125 C 10.642805,-8.4786797 10.593,-8.5695 10.593,-8.6486016 c -0.01758,-0.1699218 -0.01172,-0.2958984 0.01172,-0.375 0.0293,-0.084961 0.131836,-0.1201172 0.304687,-0.1054687 0.131836,0 0.216797,-0.00586 0.257813,-0.023437 0.03809,-0.023437 0.06445,-0.049805 0.08203,-0.082031 0.02344,-0.029297 0.0498,-0.061523 0.08203,-0.09375 0.03809,-0.029297 0.128907,-0.061523 0.269532,-0.09375 0.140625,-0.023437 0.175781,-0.029297 0.105468,-0.023437 -0.07031,0.00879 -0.161133,-0.00293 -0.269531,-0.035156 -0.102539,-0.038086 -0.1875,-0.099609 -0.257812,-0.1875 -0.06445,-0.09375 -0.01758,-0.2402344 0.140625,-0.4453117 0.140625,-0.263672 0.175781,-0.375 0.105468,-0.328125 -0.06445,0.04101 -0.18457,0.149414 -0.363281,0.328125 -0.172852,0.1728507 -0.375,0.3691398 -0.609375,0.5859367 -0.228516,0.2109375 -0.439453,0.3486328 -0.6328125,0.4101562 -0.2431641,0.079102 -0.4658203,0.1523438 -0.6679687,0.2226563 -0.1962891,0.064453 -0.375,0.102539 -0.5390625,0.1171875 C 8.4543281,-8.7687188 8.3019844,-8.7892266 8.1555,-8.8361016 8.014875,-8.8829766 7.87425,-8.9796563 7.733625,-9.1290703 7.5607734,-9.2609063 7.4465156,-9.3634453 7.3937813,-9.4337578 7.3381172,-9.5040703 7.31175,-9.553875 7.31175,-9.5861016 c -0.017578,-0.052734 0.00293,-0.087891 0.058594,-0.1054687 0.2021484,-0.061523 0.3867187,-0.131836 0.5507812,-0.2109375 0.140625,-0.061523 0.2695313,-0.1347652 0.3867188,-0.2226562 0.1230468,-0.09375 0.1992187,-0.19043 0.2226562,-0.292969 0.2578125,-0.28125 0.5332031,-0.56543 0.8320313,-0.855469 0.3046875,-0.295898 0.5771484,-0.492187 0.8203125,-0.585937 0.07617,-0.02344 0.155273,-0.06152 0.234375,-0.117188 0.08496,-0.06152 0.169922,-0.108398 0.257812,-0.140625 0.09375,-0.0293 0.199219,-0.04101 0.316407,-0.03516 0.123046,0.0088 0.263671,0.05566 0.421875,0.140625 0.155273,0.102539 0.319335,0.222656 0.492187,0.363281 0.169922,0.140625 0.331055,0.28125 0.480469,0.421875 0.155273,0.140625 0.292969,0.28125 0.410156,0.421875 0.123047,0.134766 0.213867,0.240235 0.269531,0.316407 0.04687,0.06445 0.123047,0.158203 0.234375,0.28125 0.108399,0.125976 0.199219,0.2988278 0.269532,0.5156247 0.07031,0.2109375 0.09668,0.4746094 0.08203,0.7851562 -0.0088,0.3134766 -0.09375,0.6855469 -0.257813,1.1132813 -0.336914,0.9609375 -0.626953,1.7695312 -0.867187,2.4257812 -0.243164,0.6503907 -0.363281,1.0253907 -0.363281,1.125 0.02344,0.1347657 0.03516,0.234375 0.03516,0.3046875 0,0.070312 0.0293,0.1962891 0.09375,0.375 0.0293,0 0.05859,0.011719 0.08203,0.035156 0.02344,0.023437 0.04687,0.052734 0.07031,0.082031 0.0293,0.023437 0.07031,0.055664 0.117187,0.09375 -0.266602,0.3837891 -0.629883,0.7734375 -1.089844,1.171875 -0.46289,0.3925782 -0.955078,0.7705078 -1.476562,1.1367188 C 9.4797188,-0.68278125 8.9758125,-0.35172656 8.483625,-0.04703906 7.9914375,0.24885937 7.5842109,0.49495312 7.264875,0.69124219 Z M 14.06175,-1.7228203 c 0.04687,0.046875 0.06152,0.1054687 0.04687,0.1757812 -0.0088,0.070312 -0.02344,0.1376953 -0.04687,0.1992188 -0.04102,0.079101 -0.09082,0.1640625 -0.152344,0.2578125 -0.102539,0.18749999 -0.27539,0.41015624 -0.515625,0.66796874 -0.243164,0.2578125 -0.533203,0.52734375 -0.867187,0.80859375 C 12.18968,0.66780469 11.826398,0.95198437 11.43675,1.2420234 11.052961,1.5379219 10.666242,1.8279609 10.276594,2.1092109 9.3625313,2.7654609 8.3547188,3.4451484 7.2531563,4.1482734 7.0187813,3.7322578 6.8195625,3.3455391 6.6555,2.9881172 6.4972969,2.6980781 6.3566719,2.4051094 6.233625,2.1092109 6.1164375,1.8103828 6.046125,1.5994453 6.0226875,1.4763984 5.9816719,1.3357734 5.9933906,1.2010078 6.0578438,1.0779609 6.1193672,0.96077344 6.2043281,0.85530469 6.3156563,0.76155469 c 0.1083984,-0.10253907 0.234375,-0.1875 0.375,-0.2578125 L 7.0187813,1.1365547 C 8.3605781,0.40120312 9.421125,-0.2491875 10.194563,-0.82047656 10.968,-1.397625 11.545148,-1.8868828 11.928938,-2.2853203 c 0.451171,-0.459961 0.75,-0.8613281 0.890625,-1.2070313 l -0.199219,-0.035156 h 0.351562 c 0.178711,0.28125 0.342774,0.5449219 0.492188,0.7851562 0.131836,0.2197266 0.257812,0.4277344 0.375,0.6210938 0.123047,0.196289 0.199219,0.328125 0.222656,0.3984373 z m 0,0"
       style="display:inline;fill:#000000;fill-opacity:1;fill-rule:nonzero;stroke:none;stroke-width:0.618447"
       aria-label="󲅳"
       transform="matrix(1.8329412,0,0,1.8329412,2.2626554,24.462907)"
       clip-path="url(#clipPath157)"
       id="path340"
       fill="currentColor" />
  </g>
</svg>
