<?xml version="1.0" encoding="UTF-8" standalone="no"?>
<!-- Created with Inkscape (http://www.inkscape.org/) -->

<svg
   width="32"
   height="32"
   viewBox="0 0 32 32"
   version="1.1"
   id="svg1"
   xmlns="http://www.w3.org/2000/svg"
   xmlns:svg="http://www.w3.org/2000/svg">
  <defs
     id="defs1">
    <clipPath
       clipPathUnits="userSpaceOnUse"
       id="clipPath160">
      <path
         d="M 0,0 H 612 V 792 H 0 Z"
         transform="matrix(1,0,0,-1,-521.13001,329.03801)"
         id="path160" />
    </clipPath>
  </defs>
  <g
     id="layer1">
    <path
       d="m 11.331914,-1.9346563 c -0.266601,-0.1171875 -0.509766,-0.2724609 -0.726562,-0.46875 -0.181641,-0.1640625 -0.345704,-0.375 -0.492188,-0.6328125 -0.1406249,-0.2636718 -0.2080077,-0.5800781 -0.1992187,-0.9492187 0.014648,-0.4277344 0.073242,-0.8027344 0.1757817,-1.125 0.09961,-0.328125 0.225586,-0.6210938 0.375,-0.8789063 0.146484,-0.2636718 0.298828,-0.5068359 0.457031,-0.7265625 0.164062,-0.2255859 0.307617,-0.4482421 0.433594,-0.6679687 0.202148,-0.1318359 0.436523,-0.3164063 0.703125,-0.5507813 0.272461,-0.234375 0.533203,-0.4951171 0.785156,-0.7851562 0.249023,-0.2871094 0.46289,-0.5888672 0.644531,-0.9023438 0.178711,-0.3105468 0.272461,-0.6093747 0.28125,-0.8906247 0,-0.295899 -0.0088,-0.550782 -0.02344,-0.761719 -0.0088,-0.210938 -0.02344,-0.392578 -0.04687,-0.550781 -0.02344,-0.164063 -0.05859,-0.316407 -0.105469,-0.457032 -0.04687,-0.146484 -0.102539,-0.307617 -0.164063,-0.480468 0.216797,0.0791 0.416016,0.1875 0.597657,0.328125 0.146484,0.117187 0.298828,0.266601 0.457031,0.445312 0.155273,0.181641 0.27539,0.398438 0.363281,0.65625 0.08496,0.290039 0.123047,0.550781 0.117188,0.785156 0,0.228516 -0.03223,0.430665 -0.09375,0.6093755 -0.07031,0.2050781 -0.161133,0.3925781 -0.269532,0.5625 0.0059,0.00879 0.02637,0.00879 0.05859,0 0.02344,0 0.04102,-0.00586 0.05859,-0.023437 0.02344,-0.014648 0.05859,-0.035156 0.105469,-0.058594 0.03809,-0.052734 0.07031,-0.09668 0.09375,-0.1289062 0.0293,-0.029297 0.0498,-0.076172 0.05859,-0.140625 0.140625,0.1025391 0.263672,0.234375 0.375,0.3984375 0.08496,0.140625 0.155274,0.3369141 0.210938,0.5859375 0.06152,0.2519531 0.07324,0.5566406 0.03516,0.9140625 -0.04102,0.3369141 -0.102539,0.6064453 -0.1875,0.8085937 -0.0791,0.2050782 -0.164062,0.3632813 -0.257812,0.4804688 -0.102539,0.140625 -0.210938,0.234375 -0.328125,0.28125 h 0.105468 c 0.02344,0 0.05274,0.00586 0.09375,0.011719 0.03809,0.00879 0.07617,0.00586 0.117188,-0.011719 0.06152,-0.023437 0.123047,-0.061523 0.1875,-0.1171875 0.06152,-0.061523 0.09961,-0.1054688 0.117187,-0.1289063 0,0.1962891 -0.0293,0.3984375 -0.08203,0.609375 -0.04687,0.1962891 -0.128906,0.4160157 -0.246094,0.65625 -0.117187,0.2431641 -0.290039,0.4921875 -0.515625,0.75 -0.257812,0.2050782 -0.489257,0.3603516 -0.691406,0.46875 -0.196289,0.1113282 -0.363281,0.1933594 -0.503906,0.2460938 -0.149414,0.064453 -0.290039,0.099609 -0.421875,0.1054687 -0.04102,-0.038086 -0.09375,-0.082031 -0.164063,-0.1289062 -0.07031,-0.038086 -0.169922,-0.073242 -0.292968,-0.1054688 -0.117188,-0.029297 -0.269532,-0.046875 -0.457032,-0.046875 -0.313476,0 -0.515625,0.046875 -0.609375,0.140625 -0.09375,0.09375 -0.117187,0.140625 -0.07031,0.140625 0.05273,-0.00586 0.120117,-0.011719 0.199219,-0.011719 0.06152,0 0.152343,0 0.269531,0 0.123047,0 0.27539,0.00586 0.457031,0.011719 0.436524,0 0.588867,0.328125 0.457031,0.984375 -0.08789,0.3691407 -0.246093,0.6035157 -0.480468,0.703125 -0.228516,0.09375 -0.547852,0.1113282 -0.960938,0.046875 z m -4.1015624,-3.28125 c 0,-0.2402343 0.017578,-0.4980468 0.058594,-0.7734375 0.023437,-0.2255859 0.058594,-0.4833984 0.1054688,-0.7734375 0.052734,-0.2871093 0.1347656,-0.5859375 0.2460937,-0.890625 0.2402344,-0.3046875 0.4511719,-0.6386718 0.6328125,-1.0078125 0.1875,-0.3662109 0.3515625,-0.703125 0.4921875,-1.0078125 0.1552735,-0.3574217 0.2958985,-0.7177737 0.421875,-1.0781247 0.014648,-0.404297 -0.023437,-0.764649 -0.1171875,-1.078125 -0.087891,-0.310547 -0.1816406,-0.577149 -0.28125,-0.796875 -0.1347656,-0.240235 -0.28125,-0.451172 -0.4453125,-0.632813 0.1933594,0.02344 0.3515625,0.05859 0.46875,0.105469 0.1230469,0.04687 0.2285156,0.111328 0.3164063,0.1875 0.09375,0.07031 0.1757812,0.158203 0.2460937,0.257812 0.076172,0.10254 0.1669922,0.231446 0.2695313,0.386719 0.1699218,0.158203 0.2929687,0.325196 0.3632806,0.503906 0.07617,0.181641 0.131836,0.339844 0.164063,0.480469 0.03809,0.172852 0.04101,0.345703 0.01172,0.515625 0.0293,0 0.07617,-0.0293 0.140625,-0.09375 0.02344,-0.05273 0.04687,-0.120117 0.07031,-0.199219 0.01465,-0.03809 0.02344,-0.07031 0.02344,-0.09375 0.123046,0.10254 0.234375,0.222657 0.328125,0.363282 0.07617,0.117187 0.146484,0.266601 0.210937,0.445312 0.06152,0.181641 0.09961,0.375 0.117188,0.5859377 0,0.2109375 -0.01758,0.3984375 -0.04687,0.5625 -0.02344,0.1582032 -0.04687,0.2900391 -0.07031,0.3984375 -0.04102,0.140625 -0.07031,0.2578125 -0.09375,0.3515625 0.0293,0 0.05273,-0.00293 0.07031,-0.011719 0.02344,-0.014648 0.0498,-0.038086 0.08203,-0.070312 0.0059,-0.00586 0.01758,-0.017578 0.03516,-0.035156 0.01465,-0.023437 0.03516,-0.049805 0.05859,-0.082031 l 0.05859,-0.046875 c 0.03809,0.140625 0.06152,0.2695312 0.07031,0.3867187 0.01465,0.1113282 0.0293,0.2167969 0.04687,0.3164063 0.0059,0.1171875 0.01172,0.2197266 0.01172,0.3046875 l -0.339844,0.3867187 c -0.181641,-0.038086 -0.37207,-0.052734 -0.574219,-0.046875 -0.196289,0.00879 -0.3837884,0.041016 -0.5624994,0.09375 -0.1816406,0.055664 -0.3398437,0.1494141 -0.4804687,0.28125 -0.140625,0.1259766 -0.2314453,0.2900391 -0.2695313,0.4921875 -0.290039,0.2197266 -0.5390625,0.4189454 -0.75,0.5976563 -0.2109328,0.1816399 -0.386714,0.339843 -0.527339,0.480468 C 7.62,-5.2920781 7.479375,-5.1455938 7.3709766,-5.0049688 Z m 5.9062504,2.1796875 c 0.09375,0.140625 0.18164,0.3105469 0.269531,0.5039063 0.07617,0.1640625 0.152344,0.3720703 0.222656,0.6210937 0.07031,0.2519532 0.134766,0.5478516 0.199219,0.890625 L 11.296758,0.866125 10.699102,0.03409375 C 10.353398,0.47061719 10.010625,0.8895625 9.6678516,1.288 9.3631641,1.616125 9.02625,1.94425 8.6600391,2.272375 8.2908984,2.6063594 7.9364063,2.8612422 7.5936328,3.0340937 7.4061328,3.2128047 7.0897266,3.3534297 6.6444141,3.4559687 6.2049609,3.5555781 5.6951953,3.6229609 5.1092578,3.6551875 4.5291797,3.6844844 3.9051563,3.6727656 3.2342578,3.6200312 2.5604297,3.5731562 1.9041797,3.4794062 1.2655078,3.3387812 1.1776172,3.1044062 1.1395313,2.8729609 1.1483203,2.647375 1.1629688,2.4510859 1.2244922,2.2518672 1.3358203,2.0497187 1.4530078,1.8446406 1.6698047,1.6659297 1.9920703,1.5106562 2.3114063,1.3465937 2.5926563,1.2176875 2.8358203,1.1239375 3.0760547,1.0360469 3.2957813,0.97745312 3.4920703,0.94815625 3.6942188,0.91592969 3.8729297,0.90421094 4.0311328,0.913 c 0.1640625,0.0146484 0.3339844,0.0410156 0.515625,0.0820313 0.076172,0.0380859 0.1464844,0.0703124 0.2109375,0.0937499 0.061523,0.029297 0.1171875,0.049805 0.1640625,0.058594 0.046875,0.014648 0.070312,0.011719 0.070312,-0.011719 C 4.9744922,1.0946406 4.9393359,1.0565547 4.8866016,1.0184687 4.8397266,0.98624219 4.7752734,0.9364375 4.6991016,0.866125 4.5965625,0.78702344 4.52625,0.74014844 4.4881641,0.7255 4.4471484,0.71671094 4.4237109,0.71378125 4.4178516,0.71378125 4.5408984,0.62003125 4.666875,0.5145625 4.7928516,0.397375 4.8924609,0.29483594 5.0037891,0.1864375 5.1209766,0.06925 c 0.1171875,-0.10839844 0.2138672,-0.234375 0.2929687,-0.375 0.038086,-0.17871094 0.073242,-0.36621094 0.1054688,-0.5625 0.038086,-0.2021484 0.073242,-0.4365234 0.1054687,-0.703125 0.00586,-0.3808594 0.026367,-0.7324219 0.058594,-1.0546875 0.023437,-0.2724609 0.038086,-0.515625 0.046875,-0.7265625 0.014648,-0.2167969 0.029297,-0.3427734 0.046875,-0.375 0,-0.099609 0.014648,-0.2226563 0.046875,-0.3632813 0.029297,-0.1464843 0.084961,-0.2871093 0.1640625,-0.421875 0.076172,-0.140625 0.1816406,-0.2578125 0.3164062,-0.3515625 0.131836,-0.09375 0.3076172,-0.1347656 0.5273438,-0.1289062 0.1230468,0.032227 0.2636718,0.1142578 0.421875,0.2460937 0.1640625,0.1347657 0.3544922,0.2783204 0.5742187,0.4335938 0.2167969,0.1494141 0.4628906,0.2871094 0.7382813,0.4101562 0.2724609,0.1171875 0.5800781,0.1757813 0.9257812,0.1757813 0,0.3222656 0.058594,0.6181641 0.1757813,0.890625 0.099609,0.2285156 0.2607422,0.4511719 0.4804682,0.6679687 0.216797,0.2197266 0.541993,0.3808594 0.972657,0.4804688 0.375,0.1025391 0.691406,0.1142578 0.949218,0.035156 0.263672,-0.076172 0.480469,-0.1992187 0.644532,-0.3632812 0.169921,-0.1640625 0.292968,-0.3398438 0.363281,-0.5273438 0.07031,-0.1933593 0.08789,-0.3574218 0.05859,-0.4921875 z m 0,0"
       style="display:inline;fill:#000000;fill-opacity:1;fill-rule:nonzero;stroke:none;stroke-width:0.597106"
       aria-label="󲅱"
       transform="matrix(1.8206378,0,0,1.8206378,0.73717512,24.724575)"
       clip-path="url(#clipPath160)"
       id="path342"
       fill="currentColor" />
  </g>
</svg>
