<?xml version="1.0" encoding="UTF-8" standalone="no"?>
<!-- Created with Inkscape (http://www.inkscape.org/) -->

<svg
   width="32"
   height="32"
   viewBox="0 0 32 32"
   version="1.1"
   id="svg1"
   xmlns="http://www.w3.org/2000/svg"
   xmlns:svg="http://www.w3.org/2000/svg">
  <defs
     id="defs1">
    <clipPath
       clipPathUnits="userSpaceOnUse"
       id="clipPath167">
      <path
         d="M 0,0 H 612 V 792 H 0 Z"
         transform="matrix(1,0,0,-1,-523.19902,300.68801)"
         id="path167" />
    </clipPath>
  </defs>
  <g
     id="layer1">
    <path
       d="m 8.0148672,-5.4379766 c -0.055664,0 -0.1142578,0.029297 -0.1757813,0.082031 -0.2666015,0.234375 -0.5449218,0.3515625 -0.8320312,0.3515625 -0.1962891,0 -0.3603516,-0.041016 -0.4921875,-0.1289063 -0.1259766,-0.084961 -0.1875,-0.1992187 -0.1875,-0.3398437 0,-0.084961 0.026367,-0.1816406 0.082031,-0.2929688 0.061523,-0.1083984 0.178711,-0.2402343 0.3515625,-0.3984375 0.178711,-0.1552734 0.4335938,-0.3339843 0.7617188,-0.5390625 0.328125,-0.2021484 0.7617187,-0.4482422 1.3007812,-0.7382812 0.3427735,-0.1699219 0.6826172,-0.3544922 1.0195313,-0.5507813 0.342774,-0.2021484 0.644531,-0.421875 0.902344,-0.65625 0.263672,-0.2402343 0.480469,-0.515625 0.644531,-0.8203125 0.164063,-0.3105468 0.246094,-0.6591791 0.246094,-1.0429681 0,-0.647461 -0.105469,-1.230469 -0.316406,-1.746094 -0.205078,-0.521484 -0.533203,-0.963867 -0.984375,-1.324219 -0.4541021,-0.366211 -1.0488286,-0.644531 -1.7812505,-0.832031 -0.7265625,-0.193359 -1.6171875,-0.292969 -2.671875,-0.292969 -0.8378906,0 -1.5703125,0.105469 -2.203125,0.316406 -0.6328125,0.205079 -1.1601563,0.477539 -1.5820313,0.820313 -0.4160156,0.336914 -0.7324218,0.726562 -0.9492187,1.171875 -0.21093751,0.439453 -0.31640626,0.890625 -0.31640626,1.359375 0,0.369141 0.0615234,0.726562 0.18749996,1.0781246 0.131836,0.3457032 0.319336,0.6533203 0.5625,0.9257813 0.2490235,0.2666015 0.5566407,0.4863281 0.9257813,0.65625 0.375,0.1728515 0.8115234,0.2578125 1.3125,0.2578125 0.4746094,0 0.8583984,-0.049805 1.1484375,-0.1523438 0.2958984,-0.1083984 0.515625,-0.2578125 0.65625,-0.4453125 0.140625,-0.1933593 0.2285156,-0.4248047 0.2695312,-0.6914062 0.046875,-0.2636719 0.070312,-0.5449219 0.070312,-0.8437499 0,-0.123047 0.017578,-0.237305 0.058594,-0.339844 0.046875,-0.09961 0.1640625,-0.1875 0.3515625,-0.257812 0.070312,-0.0293 0.1054687,-0.08203 0.1054687,-0.152344 0,-0.08496 -0.1142578,-0.128906 -0.3398437,-0.128906 -0.140625,0 -0.2783203,0.02344 -0.4101563,0.07031 -0.1259765,0.04102 -0.2519531,0.09375 -0.375,0.164063 -0.1875,0.0791 -0.3632812,0.158203 -0.5273437,0.234375 -0.1640625,0.0791 -0.3398438,0.117187 -0.5273438,0.117187 -0.3691406,0 -0.6621093,-0.134765 -0.8789062,-0.410156 -0.2197266,-0.28125 -0.328125,-0.585937 -0.328125,-0.914062 0,-0.427735 0.2167969,-0.814453 0.65625,-1.160157 0.4453125,-0.351562 1.0927734,-0.527343 1.9453125,-0.527343 0.5214844,0 0.9638672,0.08203 1.3242187,0.246093 0.366211,0.164063 0.65625,0.395508 0.8671875,0.691407 0.2109375,0.298828 0.3632813,0.65039 0.4570313,1.054687 0.09375,0.407227 0.140625,0.852539 0.140625,1.335938 0,0.4541009 -0.1640625,0.8496088 -0.4921875,1.1835931 -0.328125,0.3369141 -0.703125,0.6650391 -1.125,0.984375 -0.2578125,0.2050782 -0.5126953,0.4072266 -0.7617188,0.609375 -0.2519531,0.1962891 -0.477539,0.4042969 -0.6796875,0.6210938 -0.196289,0.2197265 -0.3574218,0.4570312 -0.4804687,0.7148437 -0.1171875,0.2578125 -0.1757813,0.5449219 -0.1757813,0.8554688 0,0.4072265 0.1289063,0.7089844 0.3867188,0.9023437 0.2578125,0.1962891 0.5566406,0.2929688 0.9023437,0.2929688 0.3339844,0 0.6738282,-0.082031 1.0195313,-0.2460938 0.3427734,-0.1640625 0.6328125,-0.4101562 0.8671875,-0.7382812 0.084961,-0.1230469 0.1289062,-0.225586 0.1289062,-0.3046875 0,-0.052734 -0.020508,-0.082031 -0.058594,-0.082031 z m -0.75,4.0078125 c 0,-0.2109375 -0.023437,-0.4160156 -0.070312,-0.6210937 -0.046875,-0.2109375 -0.1259766,-0.3984375 -0.234375,-0.5625 -0.1113281,-0.1640625 -0.2402344,-0.2958985 -0.3867188,-0.3984375 -0.149414,-0.1083985 -0.328125,-0.1640625 -0.5390625,-0.1640625 -0.2197265,0 -0.4042968,0.055664 -0.5507812,0.1640625 -0.1494141,0.102539 -0.2783203,0.234375 -0.3867188,0.3984375 -0.102539,0.1640625 -0.1816406,0.3515625 -0.234375,0.5625 -0.046875,0.2050781 -0.070312,0.4101562 -0.070312,0.6210937 0,0.2109375 0.023437,0.421875 0.070312,0.63281254 0.052734,0.20507812 0.131836,0.38671875 0.234375,0.55078125 0.1083985,0.1640625 0.2373047,0.29589843 0.3867188,0.3984375 0.1464844,0.10839843 0.3310547,0.1640625 0.5507812,0.1640625 0.2109375,0 0.3896485,-0.0556641 0.5390625,-0.1640625 0.1464844,-0.10253907 0.2753907,-0.234375 0.3867188,-0.3984375 0.1083984,-0.1640625 0.1875,-0.34570313 0.234375,-0.55078125 0.046875,-0.21093754 0.070312,-0.42187504 0.070312,-0.63281254 z m 0,0"
       style="display:inline;fill:#ffffff;fill-opacity:1;fill-rule:nonzero;stroke:none;stroke-width:0.529993"
       aria-label="?"
       transform="matrix(1.8546818,0,0,1.8546818,-1.1551906,27.619885)"
       clip-path="url(#clipPath167)"
       id="path345"
       fill="currentColor" />
  </g>
</svg>
